font.ufo
<glyph name="exclam" format="1">
  <advance width="600"/>
  <unicode hex="0021"/>
  <outline>
    <contour>
      <point x="240" y="264" type="line"/>
      <point x="344" y="264" type="line"/>
      <point x="422" y="532" type="line"/>
      <point x="452" y="670" type="line"/>
      <point x="296" y="670" type="line"/>
      <point x="272" y="532" type="line"/>
    </contour>
    <contour>
      <point x="248" y="-12" type="curve" smooth="yes"/>
      <point x="318" y="-12"/>
      <point x="366" y="42"/>
      <point x="366" y="108" type="curve" smooth="yes"/>
      <point x="366" y="160"/>
      <point x="330" y="198"/>
      <point x="280" y="198" type="curve" smooth="yes"/>
      <point x="210" y="198"/>
      <point x="162" y="144"/>
      <point x="162" y="78" type="curve" smooth="yes"/>
      <point x="162" y="26"/>
      <point x="198" y="-12"/>
    </contour>
  </outline>
</glyph>
<glyph name="numbersign" format="1">
	<unicode hex="0023"/>
	<advance width="600"/>
	<outline>
		<contour>
			<point x="54" y="0" type="line"/>
			<point x="145" y="0" type="line"/>
			<point x="349" y="650" type="line"/>
			<point x="260" y="650" type="line"/>
		</contour>
		<contour>
			<point x="250" y="0" type="line"/>
			<point x="341" y="0" type="line"/>
			<point x="538" y="650" type="line"/>
			<point x="448" y="650" type="line"/>
		</contour>
		<contour>
			<point x="97" y="397" type="line"/>
			<point x="545" y="397" type="line"/>
			<point x="570" y="488" type="line"/>
			<point x="121" y="488" type="line"/>
		</contour>
		<contour>
			<point x="40" y="183" type="line"/>
			<point x="489" y="183" type="line"/>
			<point x="513" y="274" type="line"/>
			<point x="64" y="274" type="line"/>
		</contour>
	</outline>
</glyph>
<glyph name="dollar" format="1">
  <advance width="600"/>
  <unicode hex="0024"/>
  <outline>
    <contour>
      <point x="267" y="34" type="curve" smooth="yes"/>
      <point x="401" y="34"/>
      <point x="506" y="93"/>
      <point x="506" y="217" type="curve" smooth="yes"/>
      <point x="506" y="308"/>
      <point x="438" y="347"/>
      <point x="357" y="384" type="curve" smooth="yes"/>
      <point x="302" y="409"/>
      <point x="265" y="426"/>
      <point x="265" y="454" type="curve" smooth="yes"/>
      <point x="265" y="480"/>
      <point x="288" y="491"/>
      <point x="321" y="491" type="curve" smooth="yes"/>
      <point x="371" y="491"/>
      <point x="409" y="474"/>
      <point x="449" y="432" type="curve"/>
      <point x="541" y="519" type="line"/>
      <point x="507" y="563"/>
      <point x="437" y="618"/>
      <point x="336" y="618" type="curve" smooth="yes"/>
      <point x="203" y="618"/>
      <point x="111" y="558"/>
      <point x="111" y="439" type="curve" smooth="yes"/>
      <point x="111" y="345"/>
      <point x="182" y="301"/>
      <point x="259" y="266" type="curve" smooth="yes"/>
      <point x="317" y="240"/>
      <point x="350" y="223"/>
      <point x="350" y="200" type="curve" smooth="yes"/>
      <point x="350" y="175"/>
      <point x="327" y="161"/>
      <point x="278" y="161" type="curve" smooth="yes"/>
      <point x="214" y="161"/>
      <point x="174" y="192"/>
      <point x="134" y="238" type="curve"/>
      <point x="39" y="142" type="line"/>
      <point x="83" y="87"/>
      <point x="160" y="34"/>
    </contour>
    <contour>
      <point x="294" y="569" type="line"/>
      <point x="397" y="569" type="line"/>
      <point x="430" y="745" type="line"/>
      <point x="326" y="745" type="line"/>
    </contour>
    <contour>
      <point x="166" y="-110" type="line"/>
      <point x="270" y="-110" type="line"/>
      <point x="311" y="99" type="line"/>
      <point x="208" y="99" type="line"/>
    </contour>
  </outline>
</glyph>
<glyph name="ampersand" format="1">
  <advance width="600"/>
  <unicode hex="0026"/>
  <outline>
    <contour>
      <point x="188" y="-12" type="curve" smooth="yes"/>
      <point x="286" y="-12"/>
      <point x="370" y="27"/>
      <point x="437" y="98" type="curve" smooth="yes"/>
      <point x="510" y="176"/>
      <point x="556" y="260"/>
      <point x="600" y="362" type="curve"/>
      <point x="460" y="362" type="line"/>
      <point x="430" y="287"/>
      <point x="399" y="221"/>
      <point x="342" y="168" type="curve" smooth="yes"/>
      <point x="298" y="128"/>
      <point x="256" y="108"/>
      <point x="216" y="108" type="curve" smooth="yes"/>
      <point x="176" y="108"/>
      <point x="154" y="134"/>
      <point x="154" y="170" type="curve" smooth="yes"/>
      <point x="154" y="298"/>
      <point x="458" y="314"/>
      <point x="458" y="522" type="curve" smooth="yes"/>
      <point x="458" y="608"/>
      <point x="406" y="662"/>
      <point x="314" y="662" type="curve" smooth="yes"/>
      <point x="188" y="662"/>
      <point x="110" y="572"/>
      <point x="110" y="466" type="curve" smooth="yes"/>
      <point x="110" y="340"/>
      <point x="205" y="178"/>
      <point x="329" y="78" type="curve" smooth="yes"/>
      <point x="386" y="32"/>
      <point x="451" y="0"/>
      <point x="514" y="-12" type="curve"/>
      <point x="576" y="114" type="line"/>
      <point x="540" y="122"/>
      <point x="486" y="140"/>
      <point x="440" y="173" type="curve" smooth="yes"/>
      <point x="339" y="245"/>
      <point x="242" y="365"/>
      <point x="242" y="470" type="curve" smooth="yes"/>
      <point x="242" y="526"/>
      <point x="270" y="558"/>
      <point x="304" y="558" type="curve" smooth="yes"/>
      <point x="322" y="558"/>
      <point x="334" y="546"/>
      <point x="334" y="525" type="curve" smooth="yes"/>
      <point x="334" y="380"/>
      <point x="0" y="376"/>
      <point x="0" y="154" type="curve" smooth="yes"/>
      <point x="0" y="56"/>
      <point x="68" y="-12"/>
    </contour>
  </outline>
</glyph>
<glyph name="asterisk" format="1">
  <advance width="600"/>
  <unicode hex="002A"/>
  <outline>
    <contour>
      <point x="142" y="90" type="line"/>
      <point x="286" y="222" type="line"/>
      <point x="380" y="82" type="line"/>
      <point x="454" y="126" type="line"/>
      <point x="388" y="282" type="line"/>
      <point x="550" y="356" type="line"/>
      <point x="528" y="432" type="line"/>
      <point x="372" y="390" type="line"/>
      <point x="388" y="554" type="line"/>
      <point x="306" y="554" type="line"/>
      <point x="258" y="392" type="line"/>
      <point x="110" y="434" type="line"/>
      <point x="72" y="364" type="line"/>
      <point x="200" y="290" type="line"/>
      <point x="83" y="140" type="line"/>
    </contour>
  </outline>
</glyph>
<glyph name="plus" format="1">
  <advance width="600"/>
  <unicode hex="002B"/>
  <outline>
    <contour>
      <point x="248" y="92" type="line"/>
      <point x="362" y="92" type="line"/>
      <point x="362" y="274" type="line"/>
      <point x="536" y="274" type="line"/>
      <point x="536" y="386" type="line"/>
      <point x="362" y="386" type="line"/>
      <point x="362" y="568" type="line"/>
      <point x="248" y="568" type="line"/>
      <point x="248" y="386" type="line"/>
      <point x="74" y="386" type="line"/>
      <point x="74" y="274" type="line"/>
      <point x="248" y="274" type="line"/>
    </contour>
  </outline>
</glyph>
<glyph name="comma" format="1">
  <advance width="600"/>
  <unicode hex="002C"/>
  <outline>
    <contour>
      <point x="104" y="-206" type="line"/>
      <point x="270" y="-172"/>
      <point x="385" y="-55"/>
      <point x="385" y="97" type="curve" smooth="yes"/>
      <point x="385" y="179"/>
      <point x="344" y="225"/>
      <point x="283" y="225" type="curve" smooth="yes"/>
      <point x="211" y="225"/>
      <point x="152" y="170"/>
      <point x="152" y="100" type="curve" smooth="yes"/>
      <point x="152" y="43"/>
      <point x="193" y="7"/>
      <point x="238" y="7" type="curve" smooth="yes"/>
      <point x="272" y="7"/>
      <point x="294" y="24"/>
      <point x="309" y="34" type="curve"/>
      <point x="275" y="141" type="line"/>
      <point x="252" y="16" type="line"/>
      <point x="237" y="-52"/>
      <point x="177" y="-100"/>
      <point x="88" y="-127" type="curve"/>
    </contour>
  </outline>
</glyph>
<glyph name="zero" format="1">
	<unicode hex="0030"/>
	<advance width="600"/>
	<outline>
		<contour>
			<point x="256" y="-12" type="curve" smooth="yes"/>
			<point x="452" y="-12"/>
			<point x="570" y="172"/>
			<point x="570" y="392" type="curve" smooth="yes"/>
			<point x="570" y="548"/>
			<point x="480" y="646"/>
			<point x="348" y="646" type="curve" smooth="yes"/>
			<point x="152" y="646"/>
			<point x="34" y="462"/>
			<point x="34" y="242" type="curve" smooth="yes"/>
			<point x="34" y="86"/>
			<point x="124" y="-12"/>
		</contour>
		<contour>
			<point x="270" y="110" type="curve" smooth="yes"/>
			<point x="212" y="110"/>
			<point x="182" y="160"/>
			<point x="182" y="252" type="curve" smooth="yes"/>
			<point x="182" y="398"/>
			<point x="242" y="524"/>
			<point x="334" y="524" type="curve" smooth="yes"/>
			<point x="392" y="524"/>
			<point x="422" y="474"/>
			<point x="422" y="382" type="curve" smooth="yes"/>
			<point x="422" y="236"/>
			<point x="362" y="110"/>
		</contour>
		<contour>
			<point x="292" y="246" type="curve" smooth="yes"/>
			<point x="338" y="246"/>
			<point x="370" y="290"/>
			<point x="370" y="340" type="curve" smooth="yes"/>
			<point x="370" y="380"/>
			<point x="350" y="404"/>
			<point x="314" y="404" type="curve" smooth="yes"/>
			<point x="268" y="404"/>
			<point x="236" y="360"/>
			<point x="236" y="310" type="curve" smooth="yes"/>
			<point x="236" y="270"/>
			<point x="256" y="246"/>
		</contour>
	</outline>
</glyph>
<glyph name="two" format="1">
  <advance width="600"/>
  <unicode hex="0032"/>
  <outline>
    <contour>
      <point x="10" y="0" type="line"/>
      <point x="488" y="0" type="line"/>
      <point x="514" y="134" type="line"/>
      <point x="398" y="134" type="line" smooth="yes"/>
      <point x="363" y="134"/>
      <point x="313" y="134"/>
      <point x="274" y="130" type="curve"/>
      <point x="404" y="252"/>
      <point x="514" y="346"/>
      <point x="514" y="470" type="curve" smooth="yes"/>
      <point x="514" y="576"/>
      <point x="436" y="646"/>
      <point x="312" y="646" type="curve" smooth="yes"/>
      <point x="228" y="646"/>
      <point x="162" y="606"/>
      <point x="102" y="546" type="curve"/>
      <point x="178" y="454" type="line"/>
      <point x="222" y="498"/>
      <point x="258" y="520"/>
      <point x="292" y="520" type="curve" smooth="yes"/>
      <point x="334" y="520"/>
      <point x="358" y="494"/>
      <point x="358" y="454" type="curve" smooth="yes"/>
      <point x="358" y="348"/>
      <point x="216" y="242"/>
      <point x="28" y="90" type="curve"/>
    </contour>
  </outline>
</glyph>
<glyph name="four" format="1">
  <advance width="600"/>
  <unicode hex="0034"/>
  <outline>
    <contour>
      <point x="282" y="0" type="line"/>
      <point x="426" y="0" type="line"/>
      <point x="552" y="634" type="line"/>
      <point x="356" y="634" type="line"/>
      <point x="24" y="258" type="line"/>
      <point x="2" y="146" type="line"/>
      <point x="528" y="146" type="line"/>
      <point x="552" y="268" type="line"/>
      <point x="186" y="268" type="line"/>
      <point x="292" y="392" type="line" smooth="yes"/>
      <point x="322" y="428"/>
      <point x="352" y="470"/>
      <point x="380" y="508" type="curve"/>
      <point x="384" y="508" type="line"/>
      <point x="374" y="468"/>
      <point x="362" y="410"/>
      <point x="352" y="360" type="curve" smooth="yes"/>
    </contour>
  </outline>
</glyph>
<glyph name="five" format="1">
  <advance width="600"/>
  <unicode hex="0035"/>
  <outline>
    <contour>
      <point x="230" y="-12" type="curve" smooth="yes"/>
      <point x="370" y="-12"/>
      <point x="508" y="84"/>
      <point x="508" y="242" type="curve" smooth="yes"/>
      <point x="508" y="352"/>
      <point x="426" y="410"/>
      <point x="322" y="410" type="curve" smooth="yes"/>
      <point x="296" y="410"/>
      <point x="274" y="408"/>
      <point x="248" y="400" type="curve"/>
      <point x="276" y="500" type="line"/>
      <point x="520" y="500" type="line"/>
      <point x="546" y="634" type="line"/>
      <point x="164" y="634" type="line"/>
      <point x="86" y="312" type="line"/>
      <point x="144" y="264" type="line"/>
      <point x="196" y="290"/>
      <point x="216" y="292"/>
      <point x="254" y="292" type="curve" smooth="yes"/>
      <point x="312" y="292"/>
      <point x="346" y="266"/>
      <point x="346" y="216" type="curve" smooth="yes"/>
      <point x="346" y="152"/>
      <point x="292" y="116"/>
      <point x="232" y="116" type="curve" smooth="yes"/>
      <point x="183" y="116"/>
      <point x="136" y="138"/>
      <point x="100" y="186" type="curve"/>
      <point x="0" y="104" type="line"/>
      <point x="62" y="16"/>
      <point x="148" y="-12"/>
    </contour>
  </outline>
</glyph>
<glyph name="six" format="1">
  <advance width="600"/>
  <unicode hex="0036"/>
  <outline>
    <contour>
      <point x="276" y="-12" type="curve" smooth="yes"/>
      <point x="423" y="-12"/>
      <point x="526" y="110"/>
      <point x="526" y="234" type="curve" smooth="yes"/>
      <point x="526" y="350"/>
      <point x="446" y="400"/>
      <point x="348" y="400" type="curve" smooth="yes"/>
      <point x="310" y="400"/>
      <point x="244" y="380"/>
      <point x="207" y="340" type="curve"/>
      <point x="192" y="228" type="line"/>
      <point x="232" y="280"/>
      <point x="272" y="292"/>
      <point x="304" y="292" type="curve" smooth="yes"/>
      <point x="354" y="292"/>
      <point x="380" y="266"/>
      <point x="380" y="221" type="curve" smooth="yes"/>
      <point x="380" y="174"/>
      <point x="352" y="106"/>
      <point x="284" y="106" type="curve" smooth="yes"/>
      <point x="234" y="106"/>
      <point x="198" y="138"/>
      <point x="198" y="202" type="curve" smooth="yes"/>
      <point x="198" y="422"/>
      <point x="286" y="518"/>
      <point x="386" y="518" type="curve" smooth="yes"/>
      <point x="430" y="518"/>
      <point x="458" y="502"/>
      <point x="480" y="472" type="curve"/>
      <point x="580" y="556" type="line"/>
      <point x="550" y="596"/>
      <point x="490" y="646"/>
      <point x="396" y="646" type="curve" smooth="yes"/>
      <point x="194" y="646"/>
      <point x="50" y="478"/>
      <point x="50" y="218" type="curve" smooth="yes"/>
      <point x="50" y="81"/>
      <point x="138" y="-12"/>
    </contour>
  </outline>
</glyph>
<glyph name="greater" format="1">
  <advance width="600"/>
  <unicode hex="003E"/>
  <outline>
    <contour>
      <point x="148" y="28" type="line"/>
      <point x="536" y="278" type="line"/>
      <point x="536" y="386" type="line"/>
      <point x="148" y="636" type="line"/>
      <point x="148" y="494" type="line"/>
      <point x="408" y="334" type="line"/>
      <point x="408" y="330" type="line"/>
      <point x="148" y="170" type="line"/>
    </contour>
  </outline>
</glyph>
<glyph name="at" format="1">
  <advance width="600"/>
  <unicode hex="0040"/>
  <outline>
    <contour>
      <point x="252" y="-147" type="curve" smooth="yes"/>
      <point x="331" y="-147"/>
      <point x="398" y="-129"/>
      <point x="458" y="-88" type="curve"/>
      <point x="415" y="-6" type="line"/>
      <point x="372" y="-33"/>
      <point x="331" y="-53"/>
      <point x="271" y="-53" type="curve" smooth="yes"/>
      <point x="179" y="-53"/>
      <point x="121" y="19"/>
      <point x="121" y="167" type="curve" smooth="yes"/>
      <point x="121" y="437"/>
      <point x="274" y="554"/>
      <point x="393" y="554" type="curve" smooth="yes"/>
      <point x="480" y="554"/>
      <point x="491" y="490"/>
      <point x="478" y="418" type="curve" smooth="yes"/>
      <point x="474" y="396" type="line"/>
      <point x="284" y="372"/>
      <point x="197" y="314"/>
      <point x="197" y="195" type="curve" smooth="yes"/>
      <point x="197" y="130"/>
      <point x="237" y="89"/>
      <point x="300" y="89" type="curve" smooth="yes"/>
      <point x="349" y="89"/>
      <point x="395" y="109"/>
      <point x="428" y="148" type="curve"/>
      <point x="432" y="148" type="line"/>
      <point x="433" y="100" type="line"/>
      <point x="516" y="100" type="line"/>
      <point x="577" y="409" type="line" smooth="yes"/>
      <point x="606" y="558"/>
      <point x="554" y="646"/>
      <point x="407" y="646" type="curve" smooth="yes"/>
      <point x="203" y="646"/>
      <point x="9" y="482"/>
      <point x="9" y="153" type="curve" smooth="yes"/>
      <point x="9" y="-49"/>
      <point x="118" y="-147"/>
    </contour>
    <contour>
      <point x="354" y="187" type="curve" smooth="yes"/>
      <point x="328" y="187"/>
      <point x="315" y="202"/>
      <point x="315" y="225" type="curve" smooth="yes"/>
      <point x="315" y="265"/>
      <point x="344" y="294"/>
      <point x="446" y="311" type="curve"/>
      <point x="427" y="214" type="line"/>
      <point x="404" y="197"/>
      <point x="377" y="187"/>
    </contour>
  </outline>
</glyph>
<glyph name="A" format="1">
  <advance width="600"/>
  <unicode hex="0041"/>
  <outline>
    <contour>
      <point x="372" y="672" type="move" name="aboveUC"/>
    </contour>
    <contour>
      <point x="432" y="0" type="move" name="ogonekUC"/>
    </contour>
    <contour>
      <point x="250" y="-22" type="move" name="belowLC"/>
    </contour>
    <contour>
      <point x="-50" y="0" type="line"/>
      <point x="126" y="0" type="line"/>
      <point x="270" y="344" type="line" smooth="yes"/>
      <point x="296" y="407"/>
      <point x="320" y="469"/>
      <point x="344" y="530" type="curve"/>
      <point x="348" y="530" type="line"/>
      <point x="349" y="465"/>
      <point x="350" y="406"/>
      <point x="352" y="344" type="curve" smooth="yes"/>
      <point x="362" y="0" type="line"/>
      <point x="530" y="0" type="line"/>
      <point x="468" y="650" type="line"/>
      <point x="276" y="650" type="line"/>
    </contour>
    <contour>
      <point x="114" y="148" type="line"/>
      <point x="416" y="148" type="line"/>
      <point x="444" y="268" type="line"/>
      <point x="142" y="268" type="line"/>
    </contour>
  </outline>
</glyph>
<glyph name="C" format="1">
  <advance width="600"/>
  <unicode hex="0043"/>
  <outline>
    <contour>
      <point x="320" y="-12" type="curve" smooth="yes"/>
      <point x="412" y="-12"/>
      <point x="484" y="36"/>
      <point x="520" y="70" type="curve"/>
      <point x="454" y="172" type="line"/>
      <point x="424" y="146"/>
      <point x="388" y="126"/>
      <point x="354" y="126" type="curve" smooth="yes"/>
      <point x="266" y="126"/>
      <point x="230" y="180"/>
      <point x="230" y="274" type="curve" smooth="yes"/>
      <point x="230" y="414"/>
      <point x="314" y="524"/>
      <point x="408" y="524" type="curve" smooth="yes"/>
      <point x="438" y="524"/>
      <point x="462" y="508"/>
      <point x="486" y="472" type="curve"/>
      <point x="594" y="556" type="line"/>
      <point x="556" y="624"/>
      <point x="492" y="662"/>
      <point x="416" y="662" type="curve" smooth="yes"/>
      <point x="224" y="662"/>
      <point x="66" y="496"/>
      <point x="66" y="264" type="curve" smooth="yes"/>
      <point x="66" y="88"/>
      <point x="168" y="-12"/>
    </contour>
    <contour>
      <point x="420" y="670" type="move" name="aboveUC"/>
    </contour>
    <contour>
      <point x="298" y="0" type="move" name="baseLC"/>
    </contour>
    <contour>
      <point x="294" y="-20" type="move" name="belowLC"/>
    </contour>
  </outline>
</glyph>
<glyph name="D" format="1">
  <advance width="600"/>
  <unicode hex="0044"/>
  <outline>
    <contour>
      <point x="372" y="672" type="move" name="aboveUC"/>
    </contour>
    <contour>
      <point x="232" y="-22" type="move" name="belowLC"/>
    </contour>
    <contour>
      <point x="8" y="0" type="line"/>
      <point x="222" y="0" type="line" smooth="yes"/>
      <point x="416" y="0"/>
      <point x="568" y="130"/>
      <point x="568" y="394" type="curve" smooth="yes"/>
      <point x="568" y="570"/>
      <point x="462" y="650"/>
      <point x="290" y="650" type="curve" smooth="yes"/>
      <point x="138" y="650" type="line"/>
    </contour>
    <contour>
      <point x="194" y="128" type="line"/>
      <point x="272" y="522" type="line"/>
      <point x="286" y="522" type="line" smooth="yes"/>
      <point x="352" y="522"/>
      <point x="404" y="486"/>
      <point x="404" y="384" type="curve" smooth="yes"/>
      <point x="404" y="196"/>
      <point x="316" y="128"/>
      <point x="218" y="128" type="curve" smooth="yes"/>
    </contour>
  </outline>
</glyph>
<glyph name="E" format="1">
	<unicode hex="0045"/>
	<advance width="600"/>
	<outline>
		<contour>
			<point x="30" y="0" type="line"/>
			<point x="474" y="0" type="line"/>
			<point x="500" y="134" type="line"/>
			<point x="216" y="134" type="line"/>
			<point x="244" y="268" type="line"/>
			<point x="474" y="268" type="line"/>
			<point x="500" y="402" type="line"/>
			<point x="270" y="402" type="line"/>
			<point x="292" y="516" type="line"/>
			<point x="568" y="516" type="line"/>
			<point x="594" y="650" type="line"/>
			<point x="160" y="650" type="line"/>
		</contour>
		<contour>
			<point name="aboveUC" x="386" y="670" type="move"/>
		</contour>
		<contour>
			<point name="ogonekUC" x="368" y="0" type="move"/>
		</contour>
		<contour>
			<point name="baseLC" x="270" y="0" type="move"/>
		</contour>
		<contour>
			<point name="belowLC" x="260" y="-20" type="move"/>
		</contour>
	</outline>
</glyph>
<glyph name="F" format="1">
  <advance width="600"/>
  <unicode hex="0046"/>
  <outline>
    <contour>
      <point x="396" y="672" type="move" name="aboveUC"/>
    </contour>
    <contour>
      <point x="130" y="-22" type="move" name="belowLC"/>
    </contour>
    <contour>
      <point x="46" y="0" type="line"/>
      <point x="206" y="0" type="line"/>
      <point x="256" y="248" type="line"/>
      <point x="482" y="248" type="line"/>
      <point x="508" y="382" type="line"/>
      <point x="282" y="382" type="line"/>
      <point x="308" y="516" type="line"/>
      <point x="580" y="516" type="line"/>
      <point x="606" y="650" type="line"/>
      <point x="176" y="650" type="line"/>
    </contour>
  </outline>
</glyph>
<glyph name="G" format="1">
  <advance width="600"/>
  <unicode hex="0047"/>
  <outline>
    <contour>
      <point x="292" y="-12" type="curve" smooth="yes"/>
      <point x="376" y="-12"/>
      <point x="452" y="18"/>
      <point x="502" y="56" type="curve"/>
      <point x="564" y="378" type="line"/>
      <point x="328" y="378" type="line"/>
      <point x="304" y="248" type="line"/>
      <point x="400" y="248" type="line"/>
      <point x="376" y="140" type="line"/>
      <point x="361" y="130"/>
      <point x="339" y="124"/>
      <point x="320" y="124" type="curve" smooth="yes"/>
      <point x="237" y="124"/>
      <point x="204" y="180"/>
      <point x="204" y="274" type="curve" smooth="yes"/>
      <point x="204" y="414"/>
      <point x="283" y="524"/>
      <point x="380" y="524" type="curve" smooth="yes"/>
      <point x="418" y="524"/>
      <point x="444" y="508"/>
      <point x="468" y="472" type="curve"/>
      <point x="576" y="556" type="line"/>
      <point x="538" y="624"/>
      <point x="474" y="662"/>
      <point x="388" y="662" type="curve" smooth="yes"/>
      <point x="193" y="662"/>
      <point x="40" y="496"/>
      <point x="40" y="264" type="curve" smooth="yes"/>
      <point x="40" y="88"/>
      <point x="137" y="-12"/>
    </contour>
    <contour>
      <point x="388" y="670" type="move" name="aboveUC"/>
    </contour>
    <contour>
      <point x="294" y="-20" type="move" name="belowLC"/>
    </contour>
  </outline>
</glyph>
<glyph name="H" format="1">
	<unicode hex="0048"/>
	<advance width="600"/>
	<outline>
		<contour>
			<point x="-2" y="0" type="line"/>
			<point x="158" y="0" type="line"/>
			<point x="210" y="266" type="line"/>
			<point x="370" y="266" type="line"/>
			<point x="316" y="0" type="line"/>
			<point x="476" y="0" type="line"/>
			<point x="606" y="650" type="line"/>
			<point x="446" y="650" type="line"/>
			<point x="398" y="406" type="line"/>
			<point x="238" y="406" type="line"/>
			<point x="288" y="650" type="line"/>
			<point x="128" y="650" type="line"/>
		</contour>
		<contour>
			<point name="aboveUC" x="370" y="670" type="move"/>
		</contour>
		<contour>
			<point name="baseLC" x="84" y="0" type="move"/>
		</contour>
		<contour>
			<point name="belowLC" x="234" y="-20" type="move"/>
		</contour>
	</outline>
</glyph>
<glyph name="K" format="1">
  <advance width="600"/>
  <unicode hex="004B"/>
  <outline>
    <contour>
      <point x="380" y="672" type="move" name="aboveUC"/>
    </contour>
    <contour>
      <point x="264" y="-22" type="move" name="belowLC"/>
    </contour>
    <contour>
      <point x="648" y="650" type="line"/>
      <point x="474" y="650" type="line"/>
      <point x="242" y="382" type="line"/>
      <point x="238" y="382" type="line"/>
      <point x="293" y="650" type="line"/>
      <point x="134" y="650" type="line"/>
      <point x="4" y="0" type="line"/>
      <point x="162" y="0" type="line"/>
      <point x="196" y="170" type="line"/>
    </contour>
    <contour>
      <point x="266" y="292" type="line"/>
      <point x="356" y="0" type="line"/>
      <point x="538" y="0" type="line"/>
      <point x="382" y="420" type="line"/>
    </contour>
  </outline>
</glyph>
<glyph name="L" format="1">
  <advance width="600"/>
  <unicode hex="004C"/>
  <outline>
    <contour>
      <point x="266" y="672" type="move" name="aboveUC"/>
    </contour>
    <contour>
      <point x="280" y="-22" type="move" name="belowLC"/>
    </contour>
    <contour>
      <point x="52" y="0" type="line"/>
      <point x="492" y="0" type="line"/>
      <point x="518" y="134" type="line"/>
      <point x="238" y="134" type="line"/>
      <point x="342" y="650" type="line"/>
      <point x="182" y="650" type="line"/>
    </contour>
  </outline>
</glyph>
<glyph name="P" format="1">
  <advance width="600"/>
  <unicode hex="0050"/>
  <outline>
    <contour>
      <point x="390" y="672" type="move" name="aboveUC"/>
    </contour>
    <contour>
      <point x="110" y="-22" type="move" name="belowLC"/>
    </contour>
    <contour>
      <point x="20" y="0" type="line"/>
      <point x="180" y="0" type="line"/>
      <point x="223" y="212" type="line"/>
      <point x="289" y="212" type="line" smooth="yes"/>
      <point x="450" y="212"/>
      <point x="593" y="282"/>
      <point x="593" y="472" type="curve" smooth="yes"/>
      <point x="593" y="602"/>
      <point x="489" y="650"/>
      <point x="360" y="650" type="curve" smooth="yes"/>
      <point x="150" y="650" type="line"/>
    </contour>
    <contour>
      <point x="248" y="338" type="line"/>
      <point x="284" y="524" type="line"/>
      <point x="335" y="524" type="line" smooth="yes"/>
      <point x="398" y="524"/>
      <point x="432" y="500"/>
      <point x="432" y="448" type="curve" smooth="yes"/>
      <point x="432" y="376"/>
      <point x="384" y="338"/>
      <point x="300" y="338" type="curve" smooth="yes"/>
    </contour>
  </outline>
</glyph>
<glyph name="Q" format="1">
  <advance width="600"/>
  <unicode hex="0051"/>
  <outline>
    <contour>
      <point x="250" y="-12" type="curve" smooth="yes"/>
      <point x="442" y="-12"/>
      <point x="580" y="164"/>
      <point x="580" y="394" type="curve" smooth="yes"/>
      <point x="580" y="562"/>
      <point x="493" y="662"/>
      <point x="358" y="662" type="curve" smooth="yes"/>
      <point x="165" y="662"/>
      <point x="26" y="486"/>
      <point x="26" y="256" type="curve" smooth="yes"/>
      <point x="26" y="88"/>
      <point x="114" y="-12"/>
    </contour>
    <contour>
      <point x="268" y="118" type="curve" smooth="yes"/>
      <point x="214" y="118"/>
      <point x="190" y="152"/>
      <point x="190" y="240" type="curve" smooth="yes"/>
      <point x="190" y="404"/>
      <point x="256" y="524"/>
      <point x="342" y="524" type="curve" smooth="yes"/>
      <point x="393" y="524"/>
      <point x="416" y="490"/>
      <point x="416" y="410" type="curve" smooth="yes"/>
      <point x="416" y="236"/>
      <point x="352" y="118"/>
    </contour>
    <contour>
      <point x="410" y="-188" type="curve" smooth="yes"/>
      <point x="465" y="-188"/>
      <point x="510" y="-178"/>
      <point x="531" y="-168" type="curve"/>
      <point x="507" y="-47" type="line"/>
      <point x="488" y="-53"/>
      <point x="464" y="-60"/>
      <point x="429" y="-60" type="curve" smooth="yes"/>
      <point x="375" y="-60"/>
      <point x="333" y="-32"/>
      <point x="320" y="32" type="curve"/>
      <point x="161" y="32" type="line"/>
      <point x="201" y="-118"/>
      <point x="291" y="-188"/>
    </contour>
    <contour>
      <point x="370" y="670" type="move" name="aboveUC"/>
    </contour>
  </outline>
</glyph>
<glyph name="R" format="1">
  <advance width="600"/>
  <unicode hex="0052"/>
  <outline>
    <contour>
      <point x="370" y="672" type="move" name="aboveUC"/>
    </contour>
    <contour>
      <point x="260" y="-22" type="move" name="belowLC"/>
    </contour>
    <contour>
      <point x="8" y="0" type="line"/>
      <point x="168" y="0" type="line"/>
      <point x="212" y="224" type="line"/>
      <point x="284" y="224" type="line" smooth="yes"/>
      <point x="428" y="224"/>
      <point x="581" y="298"/>
      <point x="581" y="471" type="curve" smooth="yes"/>
      <point x="581" y="604"/>
      <point x="476" y="650"/>
      <point x="346" y="650" type="curve" smooth="yes"/>
      <point x="138" y="650" type="line"/>
    </contour>
    <contour>
      <point x="238" y="350" type="line"/>
      <point x="272" y="524" type="line"/>
      <point x="327" y="524" type="line" smooth="yes"/>
      <point x="387" y="524"/>
      <point x="419" y="502"/>
      <point x="419" y="454" type="curve" smooth="yes"/>
      <point x="419" y="392"/>
      <point x="371" y="350"/>
      <point x="285" y="350" type="curve" smooth="yes"/>
    </contour>
    <contour>
      <point x="259" y="252" type="line"/>
      <point x="347" y="0" type="line"/>
      <point x="524" y="0" type="line"/>
      <point x="393" y="319" type="line"/>
    </contour>
  </outline>
</glyph>
<glyph name="T" format="1">
  <advance width="600"/>
  <unicode hex="0054"/>
  <outline>
    <contour>
      <point x="372" y="672" type="move" name="aboveUC"/>
    </contour>
    <contour>
      <point x="240" y="0" type="move" name="baseLC"/>
    </contour>
    <contour>
      <point x="240" y="-22" type="move" name="belowLC"/>
    </contour>
    <contour>
      <point x="158" y="0" type="line"/>
      <point x="318" y="0" type="line"/>
      <point x="420" y="516" type="line"/>
      <point x="610" y="516" type="line"/>
      <point x="636" y="650" type="line"/>
      <point x="96" y="650" type="line"/>
      <point x="70" y="516" type="line"/>
      <point x="260" y="516" type="line"/>
    </contour>
  </outline>
</glyph>
<glyph name="U" format="1">
  <advance width="600"/>
  <unicode hex="0055"/>
  <outline>
    <contour>
      <point x="247" y="-12" type="curve" smooth="yes"/>
      <point x="400" y="-12"/>
      <point x="488" y="58"/>
      <point x="530" y="268" type="curve" smooth="yes"/>
      <point x="606" y="650" type="line"/>
      <point x="450" y="650" type="line"/>
      <point x="376" y="276" type="line" smooth="yes"/>
      <point x="352" y="156"/>
      <point x="324" y="126"/>
      <point x="268" y="126" type="curve" smooth="yes"/>
      <point x="226" y="126"/>
      <point x="204" y="154"/>
      <point x="204" y="208" type="curve" smooth="yes"/>
      <point x="204" y="234"/>
      <point x="211" y="261"/>
      <point x="216" y="288" type="curve" smooth="yes"/>
      <point x="288" y="650" type="line"/>
      <point x="128" y="650" type="line"/>
      <point x="60" y="308" type="line" smooth="yes"/>
      <point x="52" y="270"/>
      <point x="48" y="236"/>
      <point x="48" y="196" type="curve" smooth="yes"/>
      <point x="48" y="74"/>
      <point x="112" y="-12"/>
    </contour>
    <contour>
      <point x="370" y="670" type="move" name="aboveUC"/>
    </contour>
    <contour>
      <point x="456" y="660" type="move" name="hornLC"/>
    </contour>
    <contour>
      <point x="238" y="0" type="move" name="ogonekUC"/>
    </contour>
    <contour>
      <point x="238" y="0" type="move" name="baseLC"/>
    </contour>
    <contour>
      <point x="230" y="-20" type="move" name="belowLC"/>
    </contour>
  </outline>
</glyph>
<glyph name="Y" format="1">
  <advance width="600"/>
  <unicode hex="0059"/>
  <outline>
    <contour>
      <point x="157" y="0" type="line"/>
      <point x="315" y="0" type="line"/>
      <point x="354" y="184" type="line"/>
      <point x="653" y="651" type="line"/>
      <point x="485" y="651" type="line"/>
      <point x="394" y="491" type="line" smooth="yes"/>
      <point x="365" y="440"/>
      <point x="336" y="385"/>
      <point x="307" y="333" type="curve"/>
      <point x="303" y="333" type="line"/>
      <point x="294" y="385"/>
      <point x="284" y="441"/>
      <point x="275" y="491" type="curve" smooth="yes"/>
      <point x="246" y="651" type="line"/>
      <point x="80" y="651" type="line"/>
      <point x="197" y="200" type="line"/>
    </contour>
    <contour>
      <point x="360" y="670" type="move" name="aboveUC"/>
    </contour>
    <contour>
      <point x="238" y="0" type="move" name="ogonekUC"/>
    </contour>
    <contour>
      <point x="234" y="-20" type="move" name="belowLC"/>
    </contour>
  </outline>
</glyph>
<glyph name="backslash" format="1">
  <advance width="600"/>
  <unicode hex="005C"/>
  <outline>
    <contour>
      <point x="315" y="-160" type="line"/>
      <point x="440" y="-160" type="line"/>
      <point x="284" y="710" type="line"/>
      <point x="159" y="710" type="line"/>
    </contour>
  </outline>
</glyph>
<glyph name="bracketright" format="1">
  <advance width="600"/>
  <unicode hex="005D"/>
  <outline>
    <contour>
      <point x="350" y="624" type="line"/>
      <point x="210" y="-68" type="line"/>
      <point x="30" y="-68" type="line"/>
      <point x="14" y="-152" type="line"/>
      <point x="312" y="-152" type="line"/>
      <point x="486" y="708" type="line"/>
      <point x="188" y="708" type="line"/>
      <point x="172" y="624" type="line"/>
    </contour>
  </outline>
</glyph>
<glyph name="asciicircum" format="1">
  <advance width="600"/>
  <unicode hex="005E"/>
  <outline>
    <contour>
      <point x="22" y="272" type="line"/>
      <point x="151" y="272" type="line"/>
      <point x="194" y="393" type="line"/>
      <point x="238" y="528" type="line"/>
      <point x="242" y="528" type="line"/>
      <point x="287" y="393" type="line"/>
      <point x="330" y="272" type="line"/>
      <point x="459" y="272" type="line"/>
      <point x="303" y="670" type="line"/>
      <point x="177" y="670" type="line"/>
    </contour>
  </outline>
</glyph>
<glyph name="underscore" format="1">
  <advance width="600"/>
  <unicode hex="005F"/>
  <outline>
    <contour>
      <point x="-33" y="-169" type="line"/>
      <point x="447" y="-169" type="line"/>
      <point x="470" y="-51" type="line"/>
      <point x="-10" y="-51" type="line"/>
    </contour>
  </outline>
</glyph>
<glyph name="c" format="1">
  <advance width="600"/>
  <unicode hex="0063"/>
  <outline>
    <contour>
      <point x="380" y="522" type="move" name="aboveLC"/>
    </contour>
    <contour>
      <point x="280" y="0" type="move" name="baseLC"/>
    </contour>
    <contour>
      <point x="280" y="-22" type="move" name="belowLC"/>
    </contour>
    <contour>
      <point x="287" y="-12" type="curve" smooth="yes"/>
      <point x="367" y="-12"/>
      <point x="444" y="16"/>
      <point x="493" y="62" type="curve"/>
      <point x="438" y="170" type="line"/>
      <point x="402" y="141"/>
      <point x="361" y="118"/>
      <point x="314" y="118" type="curve" smooth="yes"/>
      <point x="260" y="118"/>
      <point x="220" y="150"/>
      <point x="220" y="220" type="curve" smooth="yes"/>
      <point x="220" y="312"/>
      <point x="286" y="382"/>
      <point x="354" y="382" type="curve" smooth="yes"/>
      <point x="392" y="382"/>
      <point x="430" y="366"/>
      <point x="462" y="332" type="curve"/>
      <point x="558" y="420" type="line"/>
      <point x="522" y="466"/>
      <point x="454" y="512"/>
      <point x="364" y="512" type="curve" smooth="yes"/>
      <point x="200" y="512"/>
      <point x="58" y="390"/>
      <point x="58" y="206" type="curve" smooth="yes"/>
      <point x="58" y="60"/>
      <point x="157" y="-12"/>
    </contour>
  </outline>
</glyph>
<glyph name="i" format="1">
  <advance width="600"/>
  <unicode hex="0069"/>
  <outline>
    <contour>
      <point x="336" y="0" type="move" name="ogonekLC"/>
    </contour>
    <contour>
      <point x="384" y="770" type="move" name="aboveLC"/>
    </contour>
    <contour>
      <point x="304" y="-22" type="move" name="belowLC"/>
    </contour>
    <component base="dotaccentcmb" xOffset="-20"/>
    <component base="dotlessi"/>
  </outline>
</glyph>
<glyph name="j" format="1">
  <advance width="600"/>
  <unicode hex="006A"/>
  <outline>
    <contour>
      <point x="468" y="770" type="move" name="aboveLC"/>
    </contour>
    <contour>
      <point x="170" y="-200" type="move" name="belowLC"/>
    </contour>
    <component base="dotlessj"/>
    <component base="dotaccentcmb" xOffset="60"/>
  </outline>
</glyph>
<glyph name="k" format="1">
  <advance width="600"/>
  <unicode hex="006B"/>
  <outline>
    <contour>
      <point x="10" y="0" type="line"/>
      <point x="170" y="0" type="line"/>
      <point x="192" y="114" type="line"/>
      <point x="346" y="246" type="line"/>
      <point x="618" y="500" type="line"/>
      <point x="434" y="500" type="line"/>
      <point x="236" y="316" type="line"/>
      <point x="232" y="316" type="line"/>
      <point x="310" y="696" type="line"/>
      <point x="150" y="696" type="line"/>
    </contour>
    <contour>
      <point x="276" y="218" type="line"/>
      <point x="368" y="0" type="line"/>
      <point x="530" y="0" type="line"/>
      <point x="378" y="328" type="line"/>
    </contour>
    <contour>
      <point x="230" y="720" type="move" name="aboveUC"/>
    </contour>
    <contour>
      <point x="270" y="-20" type="move" name="belowLC"/>
    </contour>
  </outline>
</glyph>
<glyph name="l" format="1">
  <advance width="600"/>
  <unicode hex="006C"/>
  <outline>
    <contour>
      <point x="356" y="720" type="move" name="aboveUC"/>
    </contour>
    <contour>
      <point x="310" y="-22" type="move" name="belowLC"/>
    </contour>
    <contour>
      <point x="326" y="-12" type="curve" smooth="yes"/>
      <point x="384" y="-12"/>
      <point x="432" y="-4"/>
      <point x="486" y="20" type="curve"/>
      <point x="454" y="138" type="line"/>
      <point x="422" y="124"/>
      <point x="405" y="118"/>
      <point x="376" y="118" type="curve" smooth="yes"/>
      <point x="348" y="118"/>
      <point x="324" y="132"/>
      <point x="324" y="164" type="curve" smooth="yes"/>
      <point x="324" y="180"/>
      <point x="326" y="190"/>
      <point x="328" y="198" type="curve" smooth="yes"/>
      <point x="440" y="696" type="line"/>
      <point x="148" y="696" type="line"/>
      <point x="122" y="572" type="line"/>
      <point x="256" y="572" type="line"/>
      <point x="174" y="220" type="line" smooth="yes"/>
      <point x="168" y="196"/>
      <point x="166" y="174"/>
      <point x="166" y="154" type="curve" smooth="yes"/>
      <point x="166" y="50"/>
      <point x="232" y="-12"/>
    </contour>
  </outline>
</glyph>
<glyph name="m" format="1">
  <advance width="600"/>
  <unicode hex="006D"/>
  <outline>
    <contour>
      <point x="-28" y="0" type="line"/>
      <point x="120" y="0" type="line"/>
      <point x="184" y="334" type="line"/>
      <point x="201" y="365"/>
      <point x="218" y="376"/>
      <point x="236" y="376" type="curve" smooth="yes"/>
      <point x="247" y="376"/>
      <point x="254" y="372"/>
      <point x="254" y="358" type="curve" smooth="yes"/>
      <point x="254" y="354"/>
      <point x="254" y="350"/>
      <point x="252" y="340" type="curve" smooth="yes"/>
      <point x="181" y="0" type="line"/>
      <point x="305" y="0" type="line"/>
      <point x="374" y="335" type="line"/>
      <point x="390" y="364"/>
      <point x="404" y="376"/>
      <point x="422" y="376" type="curve" smooth="yes"/>
      <point x="432" y="376"/>
      <point x="438" y="372"/>
      <point x="438" y="358" type="curve" smooth="yes"/>
      <point x="438" y="354"/>
      <point x="438" y="350"/>
      <point x="436" y="340" type="curve" smooth="yes"/>
      <point x="366" y="0" type="line"/>
      <point x="512" y="0" type="line"/>
      <point x="588" y="372" type="line" smooth="yes"/>
      <point x="592" y="391"/>
      <point x="594" y="404"/>
      <point x="594" y="422" type="curve" smooth="yes"/>
      <point x="594" y="480"/>
      <point x="564" y="512"/>
      <point x="516" y="512" type="curve" smooth="yes"/>
      <point x="458" y="512"/>
      <point x="410" y="483"/>
      <point x="378" y="428" type="curve"/>
      <point x="389" y="434" type="line"/>
      <point x="385" y="487"/>
      <point x="363" y="512"/>
      <point x="320" y="512" type="curve" smooth="yes"/>
      <point x="260" y="512"/>
      <point x="215" y="475"/>
      <point x="188" y="436" type="curve"/>
      <point x="184" y="436" type="line"/>
      <point x="184" y="500" type="line"/>
      <point x="70" y="500" type="line"/>
    </contour>
    <contour>
      <point x="350" y="520" type="move" name="aboveLC"/>
    </contour>
    <contour>
      <point x="444" y="0" type="move" name="baseLC"/>
    </contour>
    <contour>
      <point x="250" y="-20" type="move" name="belowLC"/>
    </contour>
  </outline>
</glyph>
<glyph name="s" format="1">
  <advance width="600"/>
  <unicode hex="0073"/>
  <outline>
    <contour>
      <point x="264" y="-12" type="curve" smooth="yes"/>
      <point x="396" y="-12"/>
      <point x="498" y="41"/>
      <point x="498" y="156" type="curve" smooth="yes"/>
      <point x="498" y="238"/>
      <point x="440" y="278"/>
      <point x="352" y="308" type="curve" smooth="yes"/>
      <point x="276" y="334"/>
      <point x="254" y="344"/>
      <point x="254" y="364" type="curve" smooth="yes"/>
      <point x="254" y="385"/>
      <point x="275" y="394"/>
      <point x="306" y="394" type="curve" smooth="yes"/>
      <point x="356" y="394"/>
      <point x="409" y="369"/>
      <point x="449" y="337" type="curve"/>
      <point x="536" y="430" type="line"/>
      <point x="488" y="477"/>
      <point x="422" y="512"/>
      <point x="324" y="512" type="curve" smooth="yes"/>
      <point x="208" y="512"/>
      <point x="104" y="454"/>
      <point x="104" y="344" type="curve" smooth="yes"/>
      <point x="104" y="266"/>
      <point x="162" y="220"/>
      <point x="262" y="188" type="curve" smooth="yes"/>
      <point x="332" y="166"/>
      <point x="348" y="156"/>
      <point x="348" y="134" type="curve" smooth="yes"/>
      <point x="348" y="116"/>
      <point x="328" y="106"/>
      <point x="290" y="106" type="curve" smooth="yes"/>
      <point x="232" y="106"/>
      <point x="172" y="128"/>
      <point x="119" y="180" type="curve"/>
      <point x="32" y="80" type="line"/>
      <point x="88" y="24"/>
      <point x="168" y="-12"/>
    </contour>
    <contour>
      <point x="350" y="520" type="move" name="aboveLC"/>
    </contour>
    <contour>
      <point x="266" y="0" type="move" name="baseLC"/>
    </contour>
    <contour>
      <point x="266" y="-20" type="move" name="belowLC"/>
    </contour>
  </outline>
</glyph>
<glyph name="w" format="1">
  <advance width="600"/>
  <unicode hex="0077"/>
  <outline>
    <contour>
      <point x="330" y="523" type="move" name="aboveLC"/>
    </contour>
    <contour>
      <point x="240" y="-22" type="move" name="belowLC"/>
    </contour>
    <contour>
      <point x="21" y="0" type="line"/>
      <point x="205" y="0" type="line"/>
      <point x="255" y="152" type="line" smooth="yes"/>
      <point x="275" y="213"/>
      <point x="283" y="245"/>
      <point x="297" y="299" type="curve"/>
      <point x="301" y="299" type="line"/>
      <point x="296" y="244"/>
      <point x="290" y="200"/>
      <point x="288" y="154" type="curve" smooth="yes"/>
      <point x="281" y="0" type="line"/>
      <point x="458" y="0" type="line"/>
      <point x="626" y="500" type="line"/>
      <point x="480" y="500" type="line"/>
      <point x="419" y="277" type="line" smooth="yes"/>
      <point x="405" y="227"/>
      <point x="393" y="177"/>
      <point x="377" y="126" type="curve"/>
      <point x="373" y="126" type="line"/>
      <point x="376" y="177"/>
      <point x="377" y="227"/>
      <point x="378" y="277" type="curve" smooth="yes"/>
      <point x="379" y="426" type="line"/>
      <point x="271" y="426" type="line"/>
      <point x="215" y="277" type="line" smooth="yes"/>
      <point x="195" y="229"/>
      <point x="178" y="177"/>
      <point x="163" y="126" type="curve"/>
      <point x="159" y="126" type="line"/>
      <point x="163" y="177"/>
      <point x="169" y="227"/>
      <point x="175" y="277" type="curve" smooth="yes"/>
      <point x="200" y="500" type="line"/>
      <point x="48" y="500" type="line"/>
    </contour>
  </outline>
</glyph>
<glyph name="y" format="1">
  <advance width="600"/>
  <unicode hex="0079"/>
  <outline>
    <contour>
      <point x="48" y="-188" type="curve" smooth="yes"/>
      <point x="170" y="-188"/>
      <point x="254" y="-130"/>
      <point x="328" y="0" type="curve" smooth="yes"/>
      <point x="612" y="500" type="line"/>
      <point x="450" y="500" type="line"/>
      <point x="350" y="306" type="line" smooth="yes"/>
      <point x="324" y="256"/>
      <point x="292" y="188"/>
      <point x="274" y="146" type="curve"/>
      <point x="270" y="146" type="line"/>
      <point x="266" y="188"/>
      <point x="258" y="256"/>
      <point x="250" y="306" type="curve" smooth="yes"/>
      <point x="218" y="500" type="line"/>
      <point x="64" y="500" type="line"/>
      <point x="173" y="4" type="line"/>
      <point x="160" y="-18" type="line" smooth="yes"/>
      <point x="140" y="-52"/>
      <point x="108" y="-70"/>
      <point x="58" y="-70" type="curve" smooth="yes"/>
      <point x="38" y="-70"/>
      <point x="10" y="-62"/>
      <point x="-6" y="-54" type="curve"/>
      <point x="-50" y="-162" type="line"/>
      <point x="-30" y="-176"/>
      <point x="10" y="-188"/>
    </contour>
    <contour>
      <point x="80" y="-176" type="move" name="ogonekLC"/>
    </contour>
    <contour>
      <point x="330" y="520" type="move" name="aboveLC"/>
    </contour>
    <contour>
      <point x="197" y="-200" type="move" name="belowLC"/>
    </contour>
  </outline>
</glyph>
<glyph name="z" format="1">
  <advance width="600"/>
  <unicode hex="007A"/>
  <outline>
    <contour>
      <point x="342" y="522" type="move" name="aboveLC"/>
    </contour>
    <contour>
      <point x="260" y="-22" type="move" name="belowLC"/>
    </contour>
    <contour>
      <point x="18" y="0" type="line"/>
      <point x="472" y="0" type="line"/>
      <point x="496" y="124" type="line"/>
      <point x="250" y="124" type="line"/>
      <point x="542" y="406" type="line"/>
      <point x="560" y="500" type="line"/>
      <point x="120" y="500" type="line"/>
      <point x="94" y="378" type="line"/>
      <point x="330" y="378" type="line"/>
      <point x="36" y="94" type="line"/>
    </contour>
  </outline>
</glyph>
<glyph name="brokenbar" format="1">
  <advance width="600"/>
  <unicode hex="00A6"/>
  <outline>
    <contour>
      <point x="230" y="-250" type="line"/>
      <point x="370" y="-250" type="line"/>
      <point x="370" y="202" type="line"/>
      <point x="230" y="202" type="line"/>
    </contour>
    <contour>
      <point x="230" y="315" type="line"/>
      <point x="370" y="315" type="line"/>
      <point x="370" y="750" type="line"/>
      <point x="230" y="750" type="line"/>
    </contour>
  </outline>
</glyph>
<glyph name="section" format="1">
  <advance width="600"/>
  <unicode hex="00A7"/>
  <outline>
    <contour>
      <point x="227" y="-81" type="curve" smooth="yes"/>
      <point x="347" y="-81"/>
      <point x="427" y="-13"/>
      <point x="427" y="93" type="curve" smooth="yes"/>
      <point x="427" y="180"/>
      <point x="338" y="224"/>
      <point x="284" y="257" type="curve" smooth="yes"/>
      <point x="240" y="284"/>
      <point x="212" y="302"/>
      <point x="212" y="335" type="curve" smooth="yes"/>
      <point x="212" y="374"/>
      <point x="248" y="396"/>
      <point x="284" y="404" type="curve"/>
      <point x="216" y="474" type="line"/>
      <point x="138" y="450"/>
      <point x="76" y="392"/>
      <point x="76" y="312" type="curve" smooth="yes"/>
      <point x="76" y="231"/>
      <point x="124" y="189"/>
      <point x="188" y="152" type="curve" smooth="yes"/>
      <point x="236" y="124"/>
      <point x="283" y="104"/>
      <point x="283" y="75" type="curve" smooth="yes"/>
      <point x="283" y="51"/>
      <point x="266" y="37"/>
      <point x="227" y="37" type="curve" smooth="yes"/>
      <point x="178" y="37"/>
      <point x="135" y="69"/>
      <point x="102" y="104" type="curve"/>
      <point x="22" y="11" type="line"/>
      <point x="77" y="-52"/>
      <point x="153" y="-81"/>
    </contour>
    <contour>
      <point x="392" y="122" type="line"/>
      <point x="470" y="156"/>
      <point x="520" y="210"/>
      <point x="520" y="292" type="curve" smooth="yes"/>
      <point x="520" y="377"/>
      <point x="456" y="422"/>
      <point x="389" y="464" type="curve" smooth="yes"/>
      <point x="335" y="498"/>
      <point x="306" y="513"/>
      <point x="306" y="537" type="curve" smooth="yes"/>
      <point x="306" y="561"/>
      <point x="324" y="572"/>
      <point x="348" y="572" type="curve" smooth="yes"/>
      <point x="386" y="572"/>
      <point x="416" y="548"/>
      <point x="441" y="522" type="curve"/>
      <point x="527" y="606" type="line"/>
      <point x="479" y="659"/>
      <point x="412" y="692"/>
      <point x="348" y="692" type="curve" smooth="yes"/>
      <point x="236" y="692"/>
      <point x="162" y="618"/>
      <point x="162" y="520" type="curve" smooth="yes"/>
      <point x="162" y="434"/>
      <point x="242" y="391"/>
      <point x="306" y="352" type="curve" smooth="yes"/>
      <point x="348" y="328"/>
      <point x="382" y="305"/>
      <point x="382" y="269" type="curve" smooth="yes"/>
      <point x="382" y="230"/>
      <point x="354" y="208"/>
      <point x="312" y="198" type="curve"/>
    </contour>
  </outline>
</glyph>
<glyph name="logicalnot" format="1">
  <advance width="600"/>
  <unicode hex="00AC"/>
  <outline>
    <contour>
      <point x="416" y="92" type="line"/>
      <point x="530" y="92" type="line"/>
      <point x="530" y="386" type="line"/>
      <point x="82" y="386" type="line"/>
      <point x="82" y="274" type="line"/>
      <point x="416" y="274" type="line"/>
    </contour>
  </outline>
</glyph>
<glyph name="degree" format="1">
  <advance width="600"/>
  <unicode hex="00B0"/>
  <outline>
    <contour>
      <point x="315" y="393" type="curve" smooth="yes"/>
      <point x="417" y="393"/>
      <point x="495" y="463"/>
      <point x="495" y="565" type="curve" smooth="yes"/>
      <point x="495" y="635"/>
      <point x="450" y="686"/>
      <point x="371" y="686" type="curve" smooth="yes"/>
      <point x="272" y="686"/>
      <point x="193" y="616"/>
      <point x="193" y="514" type="curve" smooth="yes"/>
      <point x="193" y="443"/>
      <point x="244" y="393"/>
    </contour>
    <contour>
      <point x="330" y="466" type="curve" smooth="yes"/>
      <point x="296" y="466"/>
      <point x="276" y="489"/>
      <point x="276" y="525" type="curve" smooth="yes"/>
      <point x="276" y="573"/>
      <point x="312" y="616"/>
      <point x="360" y="616" type="curve" smooth="yes"/>
      <point x="394" y="616"/>
      <point x="412" y="593"/>
      <point x="412" y="556" type="curve" smooth="yes"/>
      <point x="412" y="506"/>
      <point x="377" y="466"/>
    </contour>
  </outline>
</glyph>
<glyph name="plusminus" format="1">
  <advance width="600"/>
  <unicode hex="00B1"/>
  <outline>
    <contour>
      <point x="242" y="165" type="line"/>
      <point x="358" y="165" type="line"/>
      <point x="358" y="292" type="line"/>
      <point x="533" y="292" type="line"/>
      <point x="533" y="404" type="line"/>
      <point x="358" y="404" type="line"/>
      <point x="358" y="568" type="line"/>
      <point x="242" y="568" type="line"/>
      <point x="242" y="404" type="line"/>
      <point x="67" y="404" type="line"/>
      <point x="67" y="292" type="line"/>
      <point x="242" y="292" type="line"/>
    </contour>
    <contour>
      <point x="67" y="0" type="line"/>
      <point x="533" y="0" type="line"/>
      <point x="533" y="113" type="line"/>
      <point x="67" y="113" type="line"/>
    </contour>
  </outline>
</glyph>
<glyph name="mu.math" format="1">
	<unicode hex="00B5"/>
	<advance width="600"/>
	<outline>
		<contour>
			<point x="-40" y="-198" type="line"/>
			<point x="120" y="-198" type="line"/>
			<point x="127" y="-125"/>
			<point x="137" y="-62"/>
			<point x="151" y="14" type="curve"/>
			<point x="163" y="-3"/>
			<point x="188" y="-7"/>
			<point x="210" y="-7" type="curve" smooth="yes"/>
			<point x="257" y="-7"/>
			<point x="304" y="24"/>
			<point x="340" y="80" type="curve"/>
			<point x="344" y="80" type="line"/>
			<point x="351" y="20"/>
			<point x="384" y="-12"/>
			<point x="451" y="-12" type="curve" smooth="yes"/>
			<point x="486" y="-12"/>
			<point x="513" y="-6"/>
			<point x="532" y="1" type="curve"/>
			<point x="537" y="117" type="line"/>
			<point x="528" y="115"/>
			<point x="524" y="115"/>
			<point x="518" y="115" type="curve" smooth="yes"/>
			<point x="501" y="115"/>
			<point x="489" y="123"/>
			<point x="489" y="145" type="curve" smooth="yes"/>
			<point x="489" y="160"/>
			<point x="532" y="350"/>
			<point x="569" y="500" type="curve"/>
			<point x="410" y="500" type="line"/>
			<point x="349" y="194" type="line"/>
			<point x="312" y="143"/>
			<point x="281" y="122"/>
			<point x="245" y="122" type="curve" smooth="yes"/>
			<point x="204" y="122"/>
			<point x="185" y="144"/>
			<point x="200" y="212" type="curve" smooth="yes"/>
			<point x="262" y="500" type="line"/>
			<point x="102" y="500" type="line"/>
		</contour>
	</outline>
</glyph>
<glyph name="Eth" format="1">
  <advance width="600"/>
  <unicode hex="00D0"/>
  <outline>
    <contour>
      <point x="342" y="300" type="line"/>
      <point x="358" y="376" type="line"/>
      <point x="84" y="376" type="line"/>
      <point x="12" y="370" type="line"/>
      <point x="-2" y="300" type="line"/>
    </contour>
    <component base="D" xOffset="12"/>
  </outline>
</glyph>
<glyph name="multiply" format="1">
  <advance width="600"/>
  <unicode hex="00D7"/>
  <outline>
    <contour>
      <point x="176" y="114" type="line"/>
      <point x="308" y="252" type="line"/>
      <point x="440" y="114" type="line"/>
      <point x="518" y="192" type="line"/>
      <point x="386" y="330" type="line"/>
      <point x="518" y="468" type="line"/>
      <point x="440" y="546" type="line"/>
      <point x="308" y="408" type="line"/>
      <point x="176" y="546" type="line"/>
      <point x="98" y="468" type="line"/>
      <point x="230" y="330" type="line"/>
      <point x="98" y="192" type="line"/>
    </contour>
  </outline>
</glyph>
<glyph name="Oslash" format="1">
  <advance width="600"/>
  <unicode hex="00D8"/>
  <outline>
    <contour>
      <point x="246" y="672" type="move" name="aboveUC"/>
    </contour>
    <contour>
      <point x="253" y="-12" type="curve" smooth="yes"/>
      <point x="444" y="-12"/>
      <point x="581" y="154"/>
      <point x="581" y="394" type="curve" smooth="yes"/>
      <point x="581" y="562"/>
      <point x="494" y="662"/>
      <point x="358" y="662" type="curve" smooth="yes"/>
      <point x="166" y="662"/>
      <point x="26" y="484"/>
      <point x="26" y="253" type="curve" smooth="yes"/>
      <point x="26" y="87"/>
      <point x="115" y="-12"/>
    </contour>
    <contour>
      <point x="268" y="125" type="curve" smooth="yes"/>
      <point x="209" y="125"/>
      <point x="186" y="171"/>
      <point x="186" y="253" type="curve" smooth="yes"/>
      <point x="186" y="403"/>
      <point x="259" y="527"/>
      <point x="341" y="527" type="curve" smooth="yes"/>
      <point x="400" y="527"/>
      <point x="421" y="474"/>
      <point x="421" y="394" type="curve" smooth="yes"/>
      <point x="421" y="242"/>
      <point x="352" y="125"/>
    </contour>
    <contour>
      <point x="44" y="-43" type="line"/>
      <point x="654" y="641" type="line"/>
      <point x="581" y="694" type="line"/>
      <point x="-28" y="10" type="line"/>
    </contour>
  </outline>
</glyph>
<glyph name="Thorn" format="1">
  <advance width="600"/>
  <unicode hex="00DE"/>
  <outline>
    <contour>
      <point x="9" y="0" type="line"/>
      <point x="167" y="0" type="line"/>
      <point x="191" y="116" type="line"/>
      <point x="261" y="116" type="line" smooth="yes"/>
      <point x="423" y="116"/>
      <point x="569" y="186"/>
      <point x="569" y="376" type="curve" smooth="yes"/>
      <point x="569" y="506"/>
      <point x="475" y="554"/>
      <point x="357" y="554" type="curve" smooth="yes"/>
      <point x="279" y="554" type="line"/>
      <point x="299" y="650" type="line"/>
      <point x="139" y="650" type="line"/>
    </contour>
    <contour>
      <point x="217" y="242" type="line"/>
      <point x="253" y="428" type="line"/>
      <point x="325" y="428" type="line" smooth="yes"/>
      <point x="379" y="428"/>
      <point x="411" y="404"/>
      <point x="411" y="352" type="curve" smooth="yes"/>
      <point x="411" y="280"/>
      <point x="363" y="242"/>
      <point x="279" y="242" type="curve" smooth="yes"/>
    </contour>
  </outline>
</glyph>
<glyph name="divide" format="1">
  <advance width="600"/>
  <unicode hex="00F7"/>
  <outline>
    <contour>
      <point x="300" y="428" type="curve" smooth="yes"/>
      <point x="349" y="428"/>
      <point x="387" y="462"/>
      <point x="387" y="510" type="curve" smooth="yes"/>
      <point x="387" y="558"/>
      <point x="349" y="592"/>
      <point x="300" y="592" type="curve" smooth="yes"/>
      <point x="251" y="592"/>
      <point x="213" y="558"/>
      <point x="213" y="510" type="curve" smooth="yes"/>
      <point x="213" y="462"/>
      <point x="251" y="428"/>
    </contour>
    <contour>
      <point x="300" y="68" type="curve" smooth="yes"/>
      <point x="349" y="68"/>
      <point x="387" y="102"/>
      <point x="387" y="150" type="curve" smooth="yes"/>
      <point x="387" y="198"/>
      <point x="349" y="232"/>
      <point x="300" y="232" type="curve" smooth="yes"/>
      <point x="251" y="232"/>
      <point x="213" y="198"/>
      <point x="213" y="150" type="curve" smooth="yes"/>
      <point x="213" y="102"/>
      <point x="251" y="68"/>
    </contour>
    <contour>
      <point x="67" y="274" type="line"/>
      <point x="533" y="274" type="line"/>
      <point x="533" y="386" type="line"/>
      <point x="67" y="386" type="line"/>
    </contour>
  </outline>
</glyph>
<glyph name="oslash" format="1">
	<unicode hex="00F8"/>
	<advance width="600"/>
	<outline>
		<contour>
			<point x="256" y="-12" type="curve" smooth="yes"/>
			<point x="406" y="-12"/>
			<point x="548" y="106"/>
			<point x="548" y="288" type="curve" smooth="yes"/>
			<point x="548" y="424"/>
			<point x="462" y="512"/>
			<point x="322" y="512" type="curve" smooth="yes"/>
			<point x="172" y="512"/>
			<point x="30" y="394"/>
			<point x="30" y="212" type="curve" smooth="yes"/>
			<point x="30" y="76"/>
			<point x="116" y="-12"/>
		</contour>
		<contour>
			<point x="260" y="112" type="curve" smooth="yes"/>
			<point x="210" y="112"/>
			<point x="184" y="152"/>
			<point x="184" y="208" type="curve" smooth="yes"/>
			<point x="184" y="310"/>
			<point x="234" y="388"/>
			<point x="318" y="388" type="curve" smooth="yes"/>
			<point x="368" y="388"/>
			<point x="394" y="348"/>
			<point x="394" y="292" type="curve" smooth="yes"/>
			<point x="394" y="190"/>
			<point x="344" y="112"/>
		</contour>
		<contour>
			<point x="48" y="-26" type="line"/>
			<point x="576" y="480" type="line"/>
			<point x="530" y="526" type="line"/>
			<point x="2" y="20" type="line"/>
		</contour>
		<contour>
			<point name="aboveLC" x="340" y="520" type="move"/>
		</contour>
		<contour>
			<point name="baseLC" x="238" y="0" type="move"/>
		</contour>
		<contour>
			<point name="belowLC" x="234" y="-20" type="move"/>
		</contour>
	</outline>
</glyph>
<glyph name="thorn" format="1">
  <advance width="600"/>
  <unicode hex="00FE"/>
  <outline>
    <contour>
      <point x="-28" y="-176" type="line"/>
      <point x="132" y="-176" type="line"/>
      <point x="156" y="-52" type="line"/>
      <point x="168" y="42" type="line"/>
      <point x="170" y="42" type="line"/>
      <point x="196" y="8"/>
      <point x="244" y="-12"/>
      <point x="294" y="-12" type="curve" smooth="yes"/>
      <point x="454" y="-12"/>
      <point x="560" y="134"/>
      <point x="560" y="318" type="curve" smooth="yes"/>
      <point x="560" y="442"/>
      <point x="502" y="512"/>
      <point x="398" y="512" type="curve" smooth="yes"/>
      <point x="350" y="512"/>
      <point x="293" y="488"/>
      <point x="250" y="444" type="curve"/>
      <point x="248" y="444" type="line"/>
      <point x="278" y="550" type="line"/>
      <point x="308" y="696" type="line"/>
      <point x="148" y="696" type="line"/>
    </contour>
    <contour>
      <point x="276" y="118" type="curve" smooth="yes"/>
      <point x="248" y="118"/>
      <point x="214" y="130"/>
      <point x="200" y="156" type="curve"/>
      <point x="232" y="306" type="line"/>
      <point x="266" y="362"/>
      <point x="302" y="382"/>
      <point x="334" y="382" type="curve" smooth="yes"/>
      <point x="368" y="382"/>
      <point x="394" y="357"/>
      <point x="394" y="298" type="curve" smooth="yes"/>
      <point x="394" y="192"/>
      <point x="339" y="118"/>
    </contour>
    <contour>
      <point x="236" y="730" type="move" name="aboveUC"/>
    </contour>
    <contour>
      <point x="64" y="-200" type="move" name="belowLC"/>
    </contour>
  </outline>
</glyph>
<glyph name="Aogonek" format="1">
  <advance width="600"/>
  <unicode hex="0104"/>
  <outline>
    <contour>
      <point x="372" y="672" type="move" name="aboveUC"/>
    </contour>
    <contour>
      <point x="400" y="-228" type="curve" smooth="yes"/>
      <point x="438" y="-228"/>
      <point x="488" y="-216"/>
      <point x="520" y="-194" type="curve"/>
      <point x="490" y="-118" type="line"/>
      <point x="478" y="-124"/>
      <point x="470" y="-126"/>
      <point x="460" y="-126" type="curve" smooth="yes"/>
      <point x="438" y="-126"/>
      <point x="420" y="-114"/>
      <point x="420" y="-94" type="curve" smooth="yes"/>
      <point x="420" y="-54"/>
      <point x="472" y="-4"/>
      <point x="530" y="0" type="curve"/>
      <point x="468" y="650" type="line"/>
      <point x="276" y="650" type="line"/>
      <point x="-50" y="0" type="line"/>
      <point x="126" y="0" type="line"/>
      <point x="270" y="344" type="line" smooth="yes"/>
      <point x="297" y="407"/>
      <point x="319" y="466"/>
      <point x="344" y="530" type="curve"/>
      <point x="348" y="530" type="line"/>
      <point x="348" y="464"/>
      <point x="350" y="406"/>
      <point x="352" y="344" type="curve" smooth="yes"/>
      <point x="362" y="0" type="line"/>
      <point x="404" y="0" type="line"/>
      <point x="364" y="-20"/>
      <point x="296" y="-76"/>
      <point x="296" y="-146" type="curve" smooth="yes"/>
      <point x="296" y="-198"/>
      <point x="338" y="-228"/>
    </contour>
    <contour>
      <point x="114" y="148" type="line"/>
      <point x="416" y="148" type="line"/>
      <point x="444" y="268" type="line"/>
      <point x="142" y="268" type="line"/>
    </contour>
  </outline>
</glyph>
<glyph name="aogonek" format="1">
	<unicode hex="0105"/>
	<advance width="600"/>
	<outline>
		<contour>
			<point x="352" y="-228" type="curve" smooth="yes"/>
			<point x="400" y="-228"/>
			<point x="444" y="-212"/>
			<point x="476" y="-188" type="curve"/>
			<point x="450" y="-124" type="line"/>
			<point x="434" y="-132"/>
			<point x="424" y="-134"/>
			<point x="410" y="-134" type="curve" smooth="yes"/>
			<point x="386" y="-134"/>
			<point x="364" y="-120"/>
			<point x="364" y="-94" type="curve" smooth="yes"/>
			<point x="364" y="-62"/>
			<point x="390" y="-24"/>
			<point x="480" y="0" type="curve"/>
			<point x="580" y="500" type="line"/>
			<point x="452" y="500" type="line"/>
			<point x="430" y="450" type="line"/>
			<point x="426" y="450" type="line"/>
			<point x="404" y="488"/>
			<point x="358" y="512"/>
			<point x="294" y="512" type="curve" smooth="yes"/>
			<point x="156" y="512"/>
			<point x="28" y="366"/>
			<point x="28" y="182" type="curve" smooth="yes"/>
			<point x="28" y="58"/>
			<point x="90" y="-12"/>
			<point x="189" y="-12" type="curve" smooth="yes"/>
			<point x="242" y="-12"/>
			<point x="300" y="16"/>
			<point x="346" y="66" type="curve"/>
			<point x="350" y="66" type="line"/>
			<point x="350" y="2" type="line"/>
			<point x="314" y="-18"/>
			<point x="250" y="-72"/>
			<point x="250" y="-140" type="curve" smooth="yes"/>
			<point x="250" y="-198"/>
			<point x="292" y="-228"/>
		</contour>
		<contour>
			<point x="250" y="118" type="curve" smooth="yes"/>
			<point x="216" y="118"/>
			<point x="194" y="143"/>
			<point x="194" y="202" type="curve" smooth="yes"/>
			<point x="194" y="308"/>
			<point x="256" y="382"/>
			<point x="324" y="382" type="curve" smooth="yes"/>
			<point x="345" y="382"/>
			<point x="377" y="370"/>
			<point x="391" y="344" type="curve"/>
			<point x="358" y="188" type="line"/>
			<point x="324" y="138"/>
			<point x="282" y="118"/>
		</contour>
		<contour>
			<point name="aboveLC" x="344" y="520" type="move"/>
		</contour>
	</outline>
</glyph>
<glyph name="dcaron" format="1">
  <advance width="600"/>
  <unicode hex="010F"/>
  <outline>
    <contour>
      <point x="120" y="-12" type="curve" smooth="yes"/>
      <point x="165" y="-12"/>
      <point x="214" y="2"/>
      <point x="256" y="46" type="curve"/>
      <point x="258" y="46" type="line"/>
      <point x="262" y="0" type="line"/>
      <point x="392" y="0" type="line"/>
      <point x="532" y="696" type="line"/>
      <point x="372" y="696" type="line"/>
      <point x="346" y="560" type="line"/>
      <point x="336" y="466" type="line"/>
      <point x="334" y="466" type="line"/>
      <point x="312" y="496"/>
      <point x="283" y="512"/>
      <point x="248" y="512" type="curve" smooth="yes"/>
      <point x="114" y="512"/>
      <point x="0" y="366"/>
      <point x="0" y="182" type="curve" smooth="yes"/>
      <point x="0" y="58"/>
      <point x="47" y="-12"/>
    </contour>
    <contour>
      <point x="200" y="118" type="curve" smooth="yes"/>
      <point x="182" y="118"/>
      <point x="166" y="143"/>
      <point x="166" y="202" type="curve" smooth="yes"/>
      <point x="166" y="308"/>
      <point x="216" y="382"/>
      <point x="268" y="382" type="curve" smooth="yes"/>
      <point x="284" y="382"/>
      <point x="296" y="372"/>
      <point x="304" y="354" type="curve"/>
      <point x="266" y="168" type="line"/>
      <point x="240" y="126"/>
      <point x="220" y="118"/>
    </contour>
    <component base="caron.alt" xOffset="258"/>
  </outline>
</glyph>
<glyph name="Dcroat" format="1">
	<unicode hex="0110"/>
	<advance width="600"/>
	<outline>
		<component base="Eth"/>
		<contour>
			<point name="aboveUC" x="370" y="670" type="move"/>
		</contour>
		<contour>
			<point name="belowLC" x="230" y="-20" type="move"/>
		</contour>
	</outline>
</glyph>
<glyph name="dcroat" format="1">
	<unicode hex="0111"/>
	<advance width="600"/>
	<outline>
		<contour>
			<point x="176" y="-12" type="curve" smooth="yes"/>
			<point x="230" y="-12"/>
			<point x="288" y="16"/>
			<point x="334" y="66" type="curve"/>
			<point x="338" y="66" type="line"/>
			<point x="338" y="0" type="line"/>
			<point x="468" y="0" type="line"/>
			<point x="608" y="696" type="line"/>
			<point x="448" y="696" type="line"/>
			<point x="416" y="530" type="line"/>
			<point x="406" y="436" type="line"/>
			<point x="404" y="436" type="line"/>
			<point x="380" y="470"/>
			<point x="342" y="492"/>
			<point x="278" y="492" type="curve" smooth="yes"/>
			<point x="132" y="492"/>
			<point x="16" y="354"/>
			<point x="16" y="182" type="curve" smooth="yes"/>
			<point x="16" y="58"/>
			<point x="78" y="-12"/>
		</contour>
		<contour>
			<point x="238" y="118" type="curve" smooth="yes"/>
			<point x="204" y="118"/>
			<point x="182" y="144"/>
			<point x="182" y="202" type="curve" smooth="yes"/>
			<point x="182" y="296"/>
			<point x="232" y="362"/>
			<point x="308" y="362" type="curve" smooth="yes"/>
			<point x="329" y="362"/>
			<point x="360" y="350"/>
			<point x="374" y="324" type="curve"/>
			<point x="346" y="188" type="line"/>
			<point x="312" y="138"/>
			<point x="270" y="118"/>
		</contour>
		<contour>
			<point x="270" y="554" type="line"/>
			<point x="570" y="554" type="line"/>
			<point x="646" y="560" type="line"/>
			<point x="660" y="628" type="line"/>
			<point x="285" y="628" type="line"/>
		</contour>
		<contour>
			<point name="aboveUC" x="540" y="730" type="move"/>
		</contour>
		<contour>
			<point name="belowLC" x="250" y="-20" type="move"/>
		</contour>
	</outline>
</glyph>
<glyph name="Hbar" format="1">
  <advance width="600"/>
  <unicode hex="0126"/>
  <outline>
    <contour>
      <point x="36" y="485" type="line"/>
      <point x="632" y="485" type="line"/>
      <point x="647" y="560" type="line"/>
      <point x="117" y="560" type="line"/>
      <point x="50" y="554" type="line"/>
    </contour>
    <component base="H"/>
  </outline>
</glyph>
<glyph name="dotlessi" format="1">
  <advance width="600"/>
  <unicode hex="0131"/>
  <outline>
    <contour>
      <point x="340" y="-12" type="curve" smooth="yes"/>
      <point x="404" y="-12"/>
      <point x="450" y="-2"/>
      <point x="494" y="16" type="curve"/>
      <point x="462" y="136" type="line"/>
      <point x="432" y="124"/>
      <point x="412" y="118"/>
      <point x="390" y="118" type="curve" smooth="yes"/>
      <point x="358" y="118"/>
      <point x="336" y="133"/>
      <point x="336" y="170" type="curve" smooth="yes"/>
      <point x="336" y="178"/>
      <point x="338" y="186"/>
      <point x="340" y="194" type="curve" smooth="yes"/>
      <point x="414" y="500" type="line"/>
      <point x="96" y="500" type="line"/>
      <point x="70" y="376" type="line"/>
      <point x="228" y="376" type="line"/>
      <point x="182" y="200" type="line" smooth="yes"/>
      <point x="176" y="178"/>
      <point x="172" y="158"/>
      <point x="172" y="138" type="curve" smooth="yes"/>
      <point x="172" y="46"/>
      <point x="238" y="-12"/>
    </contour>
    <contour>
      <point x="336" y="0" type="move" name="ogonekLC"/>
    </contour>
    <contour>
      <point x="320" y="520" type="move" name="aboveLC"/>
    </contour>
    <contour>
      <point x="336" y="0" type="move" name="baseLC"/>
    </contour>
    <contour>
      <point x="304" y="-20" type="move" name="belowLC"/>
    </contour>
  </outline>
</glyph>
<glyph name="napostrophe" format="1">
  <advance width="600"/>
  <unicode hex="0149"/>
  <outline>
    <contour>
      <point x="160" y="0" type="line"/>
      <point x="318" y="0" type="line"/>
      <point x="384" y="331" type="line"/>
      <point x="414" y="359"/>
      <point x="433" y="376"/>
      <point x="462" y="376" type="curve" smooth="yes"/>
      <point x="496" y="376"/>
      <point x="504" y="349"/>
      <point x="492" y="288" type="curve" smooth="yes"/>
      <point x="434" y="0" type="line"/>
      <point x="592" y="0" type="line"/>
      <point x="654" y="308" type="line" smooth="yes"/>
      <point x="679" y="432"/>
      <point x="651" y="510"/>
      <point x="553" y="510" type="curve" smooth="yes"/>
      <point x="488" y="510"/>
      <point x="437" y="476"/>
      <point x="391" y="435" type="curve"/>
      <point x="387" y="435" type="line"/>
      <point x="388" y="498" type="line"/>
      <point x="259" y="498" type="line"/>
    </contour>
    <contour>
      <point x="2" y="319" type="line"/>
      <point x="162" y="369"/>
      <point x="235" y="468"/>
      <point x="235" y="576" type="curve" smooth="yes"/>
      <point x="235" y="661"/>
      <point x="199" y="696"/>
      <point x="140" y="696" type="curve" smooth="yes"/>
      <point x="74" y="696"/>
      <point x="14" y="644"/>
      <point x="14" y="573" type="curve" smooth="yes"/>
      <point x="14" y="527"/>
      <point x="42" y="497"/>
      <point x="90" y="497" type="curve" smooth="yes"/>
      <point x="115" y="497"/>
      <point x="149" y="510"/>
      <point x="171" y="526" type="curve"/>
      <point x="127" y="609" type="line"/>
      <point x="108" y="511" type="line"/>
      <point x="94" y="448"/>
      <point x="54" y="423"/>
      <point x="-19" y="396" type="curve"/>
    </contour>
  </outline>
</glyph>
<glyph name="eng" format="1">
  <advance width="600"/>
  <unicode hex="014B"/>
  <outline>
    <contour>
      <point x="280" y="-188" type="curve" smooth="yes"/>
      <point x="404" y="-188"/>
      <point x="458" y="-104"/>
      <point x="480" y="0" type="curve"/>
      <point x="542" y="310" type="line" smooth="yes"/>
      <point x="547" y="334"/>
      <point x="550" y="360"/>
      <point x="550" y="382" type="curve" smooth="yes"/>
      <point x="550" y="468"/>
      <point x="502" y="512"/>
      <point x="420" y="512" type="curve" smooth="yes"/>
      <point x="356" y="512"/>
      <point x="282" y="466"/>
      <point x="236" y="420" type="curve"/>
      <point x="232" y="420" type="line"/>
      <point x="235" y="500" type="line"/>
      <point x="106" y="500" type="line"/>
      <point x="8" y="0" type="line"/>
      <point x="168" y="0" type="line"/>
      <point x="226" y="298" type="line"/>
      <point x="265" y="350"/>
      <point x="311" y="376"/>
      <point x="344" y="376" type="curve" smooth="yes"/>
      <point x="370" y="376"/>
      <point x="385" y="363"/>
      <point x="385" y="335" type="curve" smooth="yes"/>
      <point x="385" y="323"/>
      <point x="382" y="308"/>
      <point x="378" y="290" type="curve" smooth="yes"/>
      <point x="322" y="8" type="line"/>
      <point x="310" y="-44"/>
      <point x="298" y="-62"/>
      <point x="266" y="-62" type="curve" smooth="yes"/>
      <point x="252" y="-62"/>
      <point x="238" y="-58"/>
      <point x="224" y="-50" type="curve"/>
      <point x="176" y="-164" type="line"/>
      <point x="212" y="-182"/>
      <point x="244" y="-188"/>
    </contour>
    <contour>
      <point x="354" y="520" type="move" name="aboveLC"/>
    </contour>
  </outline>
</glyph>
<glyph name="oe" format="1">
  <advance width="600"/>
  <unicode hex="0153"/>
  <outline>
    <contour>
      <point x="133" y="-12" type="curve" smooth="yes"/>
      <point x="192" y="-12"/>
      <point x="246" y="9"/>
      <point x="285" y="63" type="curve"/>
      <point x="260" y="72" type="line"/>
      <point x="270" y="17"/>
      <point x="333" y="-12"/>
      <point x="387" y="-12" type="curve" smooth="yes"/>
      <point x="448" y="-12"/>
      <point x="504" y="8"/>
      <point x="548" y="44" type="curve"/>
      <point x="504" y="145" type="line"/>
      <point x="474" y="127"/>
      <point x="450" y="114"/>
      <point x="412" y="114" type="curve" smooth="yes"/>
      <point x="376" y="114"/>
      <point x="354" y="142"/>
      <point x="354" y="202" type="curve" smooth="yes"/>
      <point x="354" y="284"/>
      <point x="384" y="390"/>
      <point x="437" y="390" type="curve" smooth="yes"/>
      <point x="459" y="390"/>
      <point x="468" y="370"/>
      <point x="468" y="339" type="curve" smooth="yes"/>
      <point x="468" y="325"/>
      <point x="466" y="308"/>
      <point x="462" y="289" type="curve"/>
      <point x="478" y="298" type="line"/>
      <point x="326" y="298" type="line"/>
      <point x="318" y="202" type="line"/>
      <point x="570" y="202" type="line"/>
      <point x="578" y="224"/>
      <point x="595" y="280"/>
      <point x="595" y="340" type="curve" smooth="yes"/>
      <point x="595" y="430"/>
      <point x="554" y="512"/>
      <point x="465" y="512" type="curve" smooth="yes"/>
      <point x="418" y="512"/>
      <point x="353" y="488"/>
      <point x="323" y="421" type="curve"/>
      <point x="342" y="417" type="line"/>
      <point x="332" y="480"/>
      <point x="297" y="512"/>
      <point x="236" y="512" type="curve" smooth="yes"/>
      <point x="107" y="512"/>
      <point x="-8" y="381"/>
      <point x="-8" y="181" type="curve" smooth="yes"/>
      <point x="-8" y="60"/>
      <point x="50" y="-12"/>
    </contour>
    <contour>
      <point x="134" y="189" type="curve" smooth="yes"/>
      <point x="134" y="254"/>
      <point x="164" y="383"/>
      <point x="220" y="383" type="curve" smooth="yes"/>
      <point x="245" y="383"/>
      <point x="254" y="354"/>
      <point x="254" y="310" type="curve" smooth="yes"/>
      <point x="254" y="221"/>
      <point x="222" y="115"/>
      <point x="168" y="115" type="curve" smooth="yes"/>
      <point x="144" y="115"/>
      <point x="134" y="144"/>
    </contour>
    <contour>
      <point x="410" y="0" type="move" name="ogonekLC"/>
    </contour>
    <contour>
      <point x="340" y="520" type="move" name="aboveLC"/>
    </contour>
    <contour>
      <point x="390" y="0" type="move" name="baseLC"/>
    </contour>
    <contour>
      <point x="270" y="-20" type="move" name="belowLC"/>
    </contour>
  </outline>
</glyph>
<glyph name="Tbar" format="1">
  <advance width="600"/>
  <unicode hex="0166"/>
  <outline>
    <contour>
      <point x="81" y="281" type="line"/>
      <point x="508" y="281" type="line"/>
      <point x="524" y="359" type="line"/>
      <point x="163" y="359" type="line"/>
      <point x="96" y="353" type="line"/>
    </contour>
    <component base="T"/>
  </outline>
</glyph>
<glyph name="tbar" format="1">
  <advance width="600"/>
  <unicode hex="0167"/>
  <outline>
    <contour>
      <point x="28" y="224" type="line"/>
      <point x="504" y="224" type="line"/>
      <point x="520" y="300" type="line"/>
      <point x="164" y="300" type="line"/>
      <point x="42" y="294" type="line"/>
    </contour>
    <component base="t"/>
  </outline>
</glyph>
<glyph name="Uogonek" format="1">
  <advance width="600"/>
  <unicode hex="0172"/>
  <outline>
    <contour>
      <point x="216" y="-228" type="curve" smooth="yes"/>
      <point x="254" y="-228"/>
      <point x="304" y="-216"/>
      <point x="336" y="-194" type="curve"/>
      <point x="306" y="-118" type="line"/>
      <point x="294" y="-124"/>
      <point x="286" y="-126"/>
      <point x="276" y="-126" type="curve" smooth="yes"/>
      <point x="254" y="-126"/>
      <point x="236" y="-114"/>
      <point x="236" y="-94" type="curve" smooth="yes"/>
      <point x="236" y="-65"/>
      <point x="269" y="-34"/>
      <point x="328" y="-10" type="curve" smooth="yes"/>
      <point x="455" y="41"/>
      <point x="500" y="118"/>
      <point x="530" y="268" type="curve" smooth="yes"/>
      <point x="606" y="650" type="line"/>
      <point x="450" y="650" type="line"/>
      <point x="376" y="276" type="line" smooth="yes"/>
      <point x="352" y="156"/>
      <point x="324" y="126"/>
      <point x="268" y="126" type="curve" smooth="yes"/>
      <point x="226" y="126"/>
      <point x="204" y="154"/>
      <point x="204" y="208" type="curve" smooth="yes"/>
      <point x="204" y="234"/>
      <point x="211" y="261"/>
      <point x="216" y="288" type="curve" smooth="yes"/>
      <point x="288" y="650" type="line"/>
      <point x="128" y="650" type="line"/>
      <point x="60" y="308" type="line" smooth="yes"/>
      <point x="52" y="270"/>
      <point x="48" y="236"/>
      <point x="48" y="196" type="curve" smooth="yes"/>
      <point x="48" y="78"/>
      <point x="106" y="6"/>
      <point x="204" y="-8" type="curve"/>
      <point x="166" y="-32"/>
      <point x="112" y="-86"/>
      <point x="112" y="-146" type="curve" smooth="yes"/>
      <point x="112" y="-198"/>
      <point x="154" y="-228"/>
    </contour>
    <contour>
      <point x="370" y="670" type="move" name="aboveUC"/>
    </contour>
  </outline>
</glyph>
<glyph name="uogonek" format="1">
  <advance width="600"/>
  <unicode hex="0173"/>
  <outline>
    <contour>
      <point x="344" y="-228" type="curve" smooth="yes"/>
      <point x="392" y="-228"/>
      <point x="436" y="-212"/>
      <point x="468" y="-188" type="curve"/>
      <point x="442" y="-124" type="line"/>
      <point x="426" y="-132"/>
      <point x="416" y="-134"/>
      <point x="402" y="-134" type="curve" smooth="yes"/>
      <point x="378" y="-134"/>
      <point x="356" y="-120"/>
      <point x="356" y="-94" type="curve" smooth="yes"/>
      <point x="356" y="-62"/>
      <point x="382" y="-24"/>
      <point x="472" y="0" type="curve"/>
      <point x="570" y="500" type="line"/>
      <point x="410" y="500" type="line"/>
      <point x="352" y="202" type="line"/>
      <point x="313" y="150"/>
      <point x="271" y="124"/>
      <point x="238" y="124" type="curve" smooth="yes"/>
      <point x="212" y="124"/>
      <point x="196" y="138"/>
      <point x="196" y="166" type="curve" smooth="yes"/>
      <point x="196" y="178"/>
      <point x="200" y="192"/>
      <point x="204" y="210" type="curve" smooth="yes"/>
      <point x="262" y="500" type="line"/>
      <point x="102" y="500" type="line"/>
      <point x="40" y="190" type="line" smooth="yes"/>
      <point x="35" y="166"/>
      <point x="32" y="140"/>
      <point x="32" y="118" type="curve" smooth="yes"/>
      <point x="32" y="32"/>
      <point x="80" y="-12"/>
      <point x="162" y="-12" type="curve" smooth="yes"/>
      <point x="226" y="-12"/>
      <point x="296" y="34"/>
      <point x="342" y="80" type="curve"/>
      <point x="346" y="80" type="line"/>
      <point x="342" y="2" type="line"/>
      <point x="306" y="-18"/>
      <point x="242" y="-72"/>
      <point x="242" y="-140" type="curve" smooth="yes"/>
      <point x="242" y="-198"/>
      <point x="284" y="-228"/>
    </contour>
    <contour>
      <point x="334" y="520" type="move" name="aboveLC"/>
    </contour>
  </outline>
</glyph>
<glyph name="florin" format="1">
  <advance width="600"/>
  <unicode hex="0192"/>
  <outline>
    <contour>
      <point x="65" y="-96" type="curve" smooth="yes"/>
      <point x="212" y="-97"/>
      <point x="271" y="-5"/>
      <point x="309" y="114" type="curve" smooth="yes"/>
      <point x="426" y="482" type="line" smooth="yes"/>
      <point x="440" y="526"/>
      <point x="462" y="547"/>
      <point x="501" y="547" type="curve" smooth="yes"/>
      <point x="526" y="547"/>
      <point x="544" y="538"/>
      <point x="557" y="529" type="curve"/>
      <point x="618" y="625" type="line"/>
      <point x="588" y="645"/>
      <point x="549" y="663"/>
      <point x="494" y="663" type="curve" smooth="yes"/>
      <point x="390" y="663"/>
      <point x="315" y="622"/>
      <point x="271" y="477" type="curve" smooth="yes"/>
      <point x="176" y="162" type="line" smooth="yes"/>
      <point x="141" y="45"/>
      <point x="114" y="28"/>
      <point x="73" y="24" type="curve" smooth="yes"/>
      <point x="46" y="21"/>
      <point x="27" y="29"/>
      <point x="8" y="38" type="curve"/>
      <point x="-42" y="-68" type="line"/>
      <point x="-22" y="-80"/>
      <point x="20" y="-96"/>
    </contour>
    <contour>
      <point x="135" y="303" type="line"/>
      <point x="493" y="303" type="line"/>
      <point x="516" y="415" type="line"/>
      <point x="233" y="415" type="line"/>
      <point x="157" y="409" type="line"/>
    </contour>
  </outline>
</glyph>
<glyph name="Ohorn" format="1">
	<unicode hex="01A0"/>
	<advance width="600"/>
	<outline>
		<contour>
			<point x="516" y="576" type="line"/>
			<point x="632" y="594"/>
			<point x="684" y="648"/>
			<point x="684" y="744" type="curve" smooth="yes"/>
			<point x="684" y="770"/>
			<point x="678" y="801"/>
			<point x="666" y="828" type="curve"/>
			<point x="548" y="792" type="line"/>
			<point x="555" y="775"/>
			<point x="560" y="748"/>
			<point x="560" y="732" type="curve" smooth="yes"/>
			<point x="560" y="674"/>
			<point x="530" y="640"/>
			<point x="465" y="633" type="curve"/>
		</contour>
		<component base="O"/>
		<contour>
			<point name="aboveUC" x="370" y="670" type="move"/>
		</contour>
		<contour>
			<point name="belowLC" x="230" y="-20" type="move"/>
		</contour>
	</outline>
</glyph>
<glyph name="ohorn" format="1">
  <advance width="600"/>
  <unicode hex="01A1"/>
  <outline>
    <contour>
      <point x="342" y="522" type="move" name="aboveLC"/>
    </contour>
    <contour>
      <point x="234" y="-22" type="move" name="belowLC"/>
    </contour>
    <contour>
      <point x="490" y="435" type="line"/>
      <point x="610" y="458"/>
      <point x="644" y="528"/>
      <point x="644" y="608" type="curve" smooth="yes"/>
      <point x="644" y="630"/>
      <point x="638" y="662"/>
      <point x="628" y="684" type="curve"/>
      <point x="510" y="648" type="line"/>
      <point x="515" y="636"/>
      <point x="520" y="612"/>
      <point x="520" y="600" type="curve" smooth="yes"/>
      <point x="520" y="548"/>
      <point x="498" y="500"/>
      <point x="428" y="490" type="curve"/>
    </contour>
    <component base="o"/>
  </outline>
</glyph>
<glyph name="Uhorn" format="1">
  <advance width="600"/>
  <unicode hex="01AF"/>
  <outline>
    <contour>
      <point x="592" y="592" type="line"/>
      <point x="698" y="610"/>
      <point x="748" y="655"/>
      <point x="748" y="730" type="curve" smooth="yes"/>
      <point x="748" y="756"/>
      <point x="742" y="781"/>
      <point x="730" y="808" type="curve"/>
      <point x="612" y="772" type="line"/>
      <point x="619" y="755"/>
      <point x="624" y="738"/>
      <point x="624" y="722" type="curve" smooth="yes"/>
      <point x="624" y="681"/>
      <point x="597" y="655"/>
      <point x="541" y="649" type="curve"/>
    </contour>
    <component base="U"/>
    <contour>
      <point x="370" y="670" type="move" name="aboveUC"/>
    </contour>
    <contour>
      <point x="230" y="-20" type="move" name="belowLC"/>
    </contour>
  </outline>
</glyph>
<glyph name="uhorn" format="1">
  <advance width="600"/>
  <unicode hex="01B0"/>
  <outline>
    <contour>
      <point x="348" y="522" type="move" name="aboveLC"/>
    </contour>
    <contour>
      <point x="258" y="-22" type="move" name="belowLC"/>
    </contour>
    <contour>
      <point x="548" y="443" type="line"/>
      <point x="641" y="464"/>
      <point x="682" y="528"/>
      <point x="682" y="608" type="curve" smooth="yes"/>
      <point x="682" y="630"/>
      <point x="676" y="662"/>
      <point x="666" y="684" type="curve"/>
      <point x="548" y="648" type="line"/>
      <point x="553" y="636"/>
      <point x="558" y="612"/>
      <point x="558" y="600" type="curve" smooth="yes"/>
      <point x="558" y="548"/>
      <point x="530" y="506"/>
      <point x="486" y="500" type="curve"/>
    </contour>
    <component base="u"/>
  </outline>
</glyph>
<glyph name="oogonek" format="1">
  <advance width="600"/>
  <unicode hex="01EB"/>
  <outline>
    <contour>
      <point x="216" y="-228" type="curve" smooth="yes"/>
      <point x="264" y="-228"/>
      <point x="308" y="-212"/>
      <point x="340" y="-188" type="curve"/>
      <point x="314" y="-124" type="line"/>
      <point x="298" y="-132"/>
      <point x="288" y="-134"/>
      <point x="274" y="-134" type="curve" smooth="yes"/>
      <point x="250" y="-134"/>
      <point x="228" y="-120"/>
      <point x="228" y="-94" type="curve" smooth="yes"/>
      <point x="228" y="-67"/>
      <point x="250" y="-30"/>
      <point x="328" y="-6" type="curve" smooth="yes"/>
      <point x="446" y="30"/>
      <point x="548" y="128"/>
      <point x="548" y="288" type="curve" smooth="yes"/>
      <point x="548" y="424"/>
      <point x="462" y="512"/>
      <point x="322" y="512" type="curve" smooth="yes"/>
      <point x="172" y="512"/>
      <point x="30" y="394"/>
      <point x="30" y="212" type="curve" smooth="yes"/>
      <point x="30" y="94"/>
      <point x="96" y="12"/>
      <point x="198" y="-6" type="curve"/>
      <point x="163" y="-31"/>
      <point x="114" y="-80"/>
      <point x="114" y="-140" type="curve" smooth="yes"/>
      <point x="114" y="-198"/>
      <point x="156" y="-228"/>
    </contour>
    <contour>
      <point x="268" y="114" type="curve" smooth="yes"/>
      <point x="222" y="114"/>
      <point x="192" y="148"/>
      <point x="192" y="216" type="curve" smooth="yes"/>
      <point x="192" y="316"/>
      <point x="250" y="382"/>
      <point x="310" y="382" type="curve" smooth="yes"/>
      <point x="356" y="382"/>
      <point x="386" y="348"/>
      <point x="386" y="284" type="curve" smooth="yes"/>
      <point x="386" y="182"/>
      <point x="328" y="114"/>
    </contour>
    <contour>
      <point x="340" y="520" type="move" name="aboveLC"/>
    </contour>
  </outline>
</glyph>
<glyph name="aturned" format="1">
  <advance width="600"/>
  <unicode hex="0250"/>
  <outline>
    <component base="a.a" xScale="-1.0" yScale="-1.0" xOffset="580" yOffset="500"/>
    <contour>
      <point x="360" y="520" type="move" name="aboveLC"/>
    </contour>
    <contour>
      <point x="250" y="-20" type="move" name="belowLC"/>
    </contour>
  </outline>
</glyph>
<glyph name="eopenreversed" format="1">
  <advance width="600"/>
  <unicode hex="025C"/>
  <outline>
    <contour>
      <point x="244" y="-12" type="curve" smooth="yes"/>
      <point x="378" y="-12"/>
      <point x="500" y="50"/>
      <point x="500" y="152" type="curve" smooth="yes"/>
      <point x="500" y="196"/>
      <point x="479" y="244"/>
      <point x="419" y="262" type="curve"/>
      <point x="420" y="266" type="line"/>
      <point x="487" y="278"/>
      <point x="524" y="325"/>
      <point x="524" y="382" type="curve" smooth="yes"/>
      <point x="524" y="469"/>
      <point x="421" y="512"/>
      <point x="310" y="512" type="curve" smooth="yes"/>
      <point x="239" y="512"/>
      <point x="174" y="501"/>
      <point x="92" y="454" type="curve"/>
      <point x="136" y="346" type="line"/>
      <point x="188" y="372"/>
      <point x="235" y="390"/>
      <point x="268" y="390" type="curve" smooth="yes"/>
      <point x="327" y="390"/>
      <point x="358" y="376"/>
      <point x="358" y="350" type="curve" smooth="yes"/>
      <point x="358" y="318"/>
      <point x="334" y="304"/>
      <point x="294" y="304" type="curve"/>
      <point x="189" y="304" type="line"/>
      <point x="168" y="204" type="line"/>
      <point x="258" y="204" type="line"/>
      <point x="316" y="204"/>
      <point x="334" y="190"/>
      <point x="334" y="160" type="curve" smooth="yes"/>
      <point x="334" y="132"/>
      <point x="300" y="112"/>
      <point x="252" y="112" type="curve" smooth="yes"/>
      <point x="192" y="112"/>
      <point x="149" y="128"/>
      <point x="98" y="158" type="curve"/>
      <point x="14" y="48" type="line"/>
      <point x="81" y="2"/>
      <point x="157" y="-12"/>
    </contour>
    <contour>
      <point x="330" y="520" type="move" name="aboveLC"/>
    </contour>
    <contour>
      <point x="230" y="-20" type="move" name="belowLC"/>
    </contour>
  </outline>
</glyph>
<glyph name="gscript" format="1">
	<unicode hex="0261"/>
	<advance width="600"/>
	<outline>
		<component base="g"/>
		<contour>
			<point name="aboveLC" x="346" y="520" type="move"/>
		</contour>
		<contour>
			<point name="belowLC" x="216" y="-200" type="move"/>
		</contour>
	</outline>
</glyph>
<glyph name="ismall" format="1">
  <advance width="600"/>
  <unicode hex="026A"/>
  <outline>
    <contour>
      <point x="22" y="0" type="line"/>
      <point x="462" y="0" type="line"/>
      <point x="488" y="134" type="line"/>
      <point x="350" y="134" type="line"/>
      <point x="396" y="366" type="line"/>
      <point x="534" y="366" type="line"/>
      <point x="560" y="500" type="line"/>
      <point x="120" y="500" type="line"/>
      <point x="94" y="366" type="line"/>
      <point x="230" y="366" type="line"/>
      <point x="184" y="134" type="line"/>
      <point x="48" y="134" type="line"/>
    </contour>
    <contour>
      <point x="340" y="520" type="move" name="aboveLC"/>
    </contour>
    <contour>
      <point x="234" y="-20" type="move" name="belowLC"/>
    </contour>
  </outline>
</glyph>
<glyph name="lmiddletilde" format="1">
	<unicode hex="026B"/>
	<advance width="600"/>
	<outline>
		<component base="l"/>
		<component base="tildeoverlaycmb" xOffset="-4" yOffset="110"/>
		<contour>
			<point name="aboveUC" x="360" y="730" type="move"/>
		</contour>
		<contour>
			<point name="belowLC" x="310" y="-20" type="move"/>
		</contour>
	</outline>
</glyph>
<glyph name="mlonglegturned" format="1">
	<unicode hex="0270"/>
	<advance width="600"/>
	<outline>
		<contour>
			<point x="326" y="-176" type="line"/>
			<point x="472" y="-176" type="line"/>
			<point x="608" y="500" type="line"/>
			<point x="460" y="500" type="line"/>
			<point x="396" y="166" type="line"/>
			<point x="379" y="135"/>
			<point x="362" y="124"/>
			<point x="344" y="124" type="curve" smooth="yes"/>
			<point x="333" y="124"/>
			<point x="326" y="128"/>
			<point x="326" y="142" type="curve" smooth="yes"/>
			<point x="326" y="146"/>
			<point x="326" y="150"/>
			<point x="328" y="160" type="curve" smooth="yes"/>
			<point x="399" y="500" type="line"/>
			<point x="275" y="500" type="line"/>
			<point x="206" y="165" type="line"/>
			<point x="190" y="136"/>
			<point x="176" y="124"/>
			<point x="158" y="124" type="curve" smooth="yes"/>
			<point x="148" y="124"/>
			<point x="142" y="128"/>
			<point x="142" y="142" type="curve" smooth="yes"/>
			<point x="142" y="146"/>
			<point x="142" y="150"/>
			<point x="144" y="160" type="curve" smooth="yes"/>
			<point x="214" y="500" type="line"/>
			<point x="68" y="500" type="line"/>
			<point x="-8" y="128" type="line" smooth="yes"/>
			<point x="-12" y="109"/>
			<point x="-14" y="96"/>
			<point x="-14" y="78" type="curve" smooth="yes"/>
			<point x="-14" y="20"/>
			<point x="16" y="-12"/>
			<point x="64" y="-12" type="curve" smooth="yes"/>
			<point x="122" y="-12"/>
			<point x="170" y="17"/>
			<point x="202" y="72" type="curve"/>
			<point x="191" y="66" type="line"/>
			<point x="195" y="13"/>
			<point x="217" y="-12"/>
			<point x="260" y="-12" type="curve" smooth="yes"/>
			<point x="320" y="-12"/>
			<point x="365" y="25"/>
			<point x="392" y="64" type="curve"/>
			<point x="396" y="64" type="line"/>
			<point x="374" y="11"/>
			<point x="359" y="-26"/>
			<point x="354" y="-48" type="curve" smooth="yes"/>
		</contour>
		<contour>
			<point name="aboveLC" x="340" y="520" type="move"/>
		</contour>
		<contour>
			<point name="belowLC" x="390" y="-200" type="move"/>
		</contour>
	</outline>
</glyph>
<glyph name="obar" format="1">
  <advance width="600"/>
  <unicode hex="0275"/>
  <outline>
    <contour>
      <point x="256" y="-12" type="curve" smooth="yes"/>
      <point x="407" y="-12"/>
      <point x="548" y="106"/>
      <point x="548" y="288" type="curve" smooth="yes"/>
      <point x="548" y="424"/>
      <point x="462" y="512"/>
      <point x="322" y="512" type="curve" smooth="yes"/>
      <point x="171" y="512"/>
      <point x="30" y="394"/>
      <point x="30" y="212" type="curve" smooth="yes"/>
      <point x="30" y="76"/>
      <point x="116" y="-12"/>
    </contour>
    <contour>
      <point x="268" y="110" type="curve" smooth="yes"/>
      <point x="211" y="110"/>
      <point x="182" y="146"/>
      <point x="182" y="216" type="curve" smooth="yes"/>
      <point x="182" y="322"/>
      <point x="240" y="390"/>
      <point x="310" y="390" type="curve" smooth="yes"/>
      <point x="366" y="390"/>
      <point x="396" y="354"/>
      <point x="396" y="284" type="curve" smooth="yes"/>
      <point x="396" y="178"/>
      <point x="338" y="110"/>
    </contour>
    <contour>
      <point x="158" y="202" type="line"/>
      <point x="397" y="202" type="line"/>
      <point x="418" y="306" type="line"/>
      <point x="179" y="306" type="line"/>
    </contour>
    <contour>
      <point x="340" y="520" type="move" name="aboveLC"/>
    </contour>
    <contour>
      <point x="234" y="-20" type="move" name="belowLC"/>
    </contour>
  </outline>
</glyph>
<glyph name="rtail" format="1">
  <advance width="600"/>
  <unicode hex="027D"/>
  <outline>
    <contour>
      <point x="238" y="-188" type="curve" smooth="yes"/>
      <point x="318" y="-188"/>
      <point x="395" y="-164"/>
      <point x="440" y="-133" type="curve"/>
      <point x="392" y="-22" type="line"/>
      <point x="364" y="-40"/>
      <point x="326" y="-58"/>
      <point x="288" y="-58" type="curve" smooth="yes"/>
      <point x="251" y="-58"/>
      <point x="228" y="-42"/>
      <point x="228" y="4" type="curve" smooth="yes"/>
      <point x="228" y="14"/>
      <point x="228" y="22"/>
      <point x="232" y="40" type="curve" smooth="yes"/>
      <point x="266" y="206" type="line"/>
      <point x="320" y="308"/>
      <point x="390" y="370"/>
      <point x="452" y="370" type="curve" smooth="yes"/>
      <point x="480" y="370"/>
      <point x="504" y="365"/>
      <point x="526" y="354" type="curve"/>
      <point x="582" y="492" type="line"/>
      <point x="564" y="504"/>
      <point x="528" y="512"/>
      <point x="484" y="512" type="curve" smooth="yes"/>
      <point x="412" y="512"/>
      <point x="336" y="460"/>
      <point x="284" y="370" type="curve"/>
      <point x="280" y="370" type="line"/>
      <point x="292" y="500" type="line"/>
      <point x="162" y="501" type="line"/>
      <point x="70" y="32" type="line" smooth="yes"/>
      <point x="64" y="4"/>
      <point x="62" y="-14"/>
      <point x="62" y="-34" type="curve" smooth="yes"/>
      <point x="62" y="-128"/>
      <point x="114" y="-188"/>
    </contour>
    <contour>
      <point x="390" y="520" type="move" name="aboveLC"/>
    </contour>
    <contour>
      <point x="234" y="-200" type="move" name="belowLC"/>
    </contour>
  </outline>
</glyph>
<glyph name="bsmall" format="1">
	<unicode hex="0299"/>
	<advance width="600"/>
	<outline>
		<contour>
			<point x="24" y="0" type="line"/>
			<point x="290" y="0" type="line" smooth="yes"/>
			<point x="434" y="0"/>
			<point x="524" y="70"/>
			<point x="524" y="172" type="curve" smooth="yes"/>
			<point x="524" y="220"/>
			<point x="496" y="246"/>
			<point x="444" y="260" type="curve"/>
			<point x="444" y="264" type="line"/>
			<point x="516" y="284"/>
			<point x="550" y="336"/>
			<point x="550" y="396" type="curve" smooth="yes"/>
			<point x="550" y="475"/>
			<point x="471" y="500"/>
			<point x="374" y="500" type="curve" smooth="yes"/>
			<point x="122" y="500" type="line"/>
		</contour>
		<contour>
			<point x="206" y="112" type="line"/>
			<point x="224" y="204" type="line"/>
			<point x="320" y="204" type="line" smooth="yes"/>
			<point x="350" y="204"/>
			<point x="366" y="188"/>
			<point x="366" y="166" type="curve" smooth="yes"/>
			<point x="366" y="140"/>
			<point x="348" y="112"/>
			<point x="302" y="112" type="curve" smooth="yes"/>
		</contour>
		<contour>
			<point x="242" y="304" type="line"/>
			<point x="260" y="388" type="line"/>
			<point x="342" y="388" type="line" smooth="yes"/>
			<point x="374" y="388"/>
			<point x="388" y="376"/>
			<point x="388" y="358" type="curve" smooth="yes"/>
			<point x="388" y="330"/>
			<point x="368" y="304"/>
			<point x="326" y="304" type="curve" smooth="yes"/>
		</contour>
		<contour>
			<point name="aboveLC" x="350" y="520" type="move"/>
		</contour>
		<contour>
			<point name="belowLC" x="250" y="-20" type="move"/>
		</contour>
	</outline>
</glyph>
<glyph name="jcrossedtail" format="1">
	<unicode hex="029D"/>
	<advance width="600"/>
	<outline>
		<component base="jcrossedtail.d"/>
		<component base="dotaccentcmb" xOffset="58"/>
		<contour>
			<point name="belowLC" x="170" y="-200" type="move"/>
		</contour>
	</outline>
</glyph>
<glyph name="dezh" format="1">
  <advance width="600"/>
  <unicode hex="02A4"/>
  <outline>
    <contour>
      <point x="78" y="-12" type="curve" smooth="yes"/>
      <point x="108" y="-12"/>
      <point x="139" y="3"/>
      <point x="172" y="38" type="curve"/>
      <point x="174" y="38" type="line"/>
      <point x="180" y="0" type="line"/>
      <point x="280" y="0" type="line"/>
      <point x="420" y="696" type="line"/>
      <point x="290" y="696" type="line"/>
      <point x="264" y="560" type="line"/>
      <point x="254" y="470" type="line"/>
      <point x="252" y="470" type="line"/>
      <point x="234" y="498"/>
      <point x="208" y="512"/>
      <point x="180" y="512" type="curve" smooth="yes"/>
      <point x="74" y="512"/>
      <point x="-28" y="356"/>
      <point x="-28" y="176" type="curve" smooth="yes"/>
      <point x="-28" y="58"/>
      <point x="11" y="-12"/>
    </contour>
    <contour>
      <point x="146" y="118" type="curve" smooth="yes"/>
      <point x="128" y="118"/>
      <point x="118" y="136"/>
      <point x="118" y="178" type="curve" smooth="yes"/>
      <point x="118" y="298"/>
      <point x="160" y="382"/>
      <point x="196" y="382" type="curve" smooth="yes"/>
      <point x="208" y="382"/>
      <point x="218" y="374"/>
      <point x="222" y="358" type="curve"/>
      <point x="182" y="160" type="line"/>
      <point x="172" y="126"/>
      <point x="158" y="118"/>
    </contour>
    <contour>
      <point x="334" y="-188" type="curve" smooth="yes"/>
      <point x="476" y="-188"/>
      <point x="568" y="-46"/>
      <point x="568" y="88" type="curve" smooth="yes"/>
      <point x="568" y="164"/>
      <point x="524" y="224"/>
      <point x="446" y="224" type="curve"/>
      <point x="460" y="200" type="line"/>
      <point x="614" y="408" type="line"/>
      <point x="632" y="500" type="line"/>
      <point x="338" y="500" type="line"/>
      <point x="314" y="376" type="line"/>
      <point x="456" y="376" type="line"/>
      <point x="326" y="204" type="line"/>
      <point x="358" y="112" type="line"/>
      <point x="370" y="118"/>
      <point x="374" y="118"/>
      <point x="382" y="118" type="curve" smooth="yes"/>
      <point x="404" y="118"/>
      <point x="422" y="100"/>
      <point x="422" y="58" type="curve" smooth="yes"/>
      <point x="422" y="-4"/>
      <point x="382" y="-62"/>
      <point x="336" y="-62" type="curve" smooth="yes"/>
      <point x="320" y="-62"/>
      <point x="304" y="-54"/>
      <point x="288" y="-36" type="curve"/>
      <point x="206" y="-128" type="line"/>
      <point x="234" y="-162"/>
      <point x="270" y="-188"/>
    </contour>
    <contour>
      <point x="350" y="730" type="move" name="aboveUC"/>
    </contour>
    <contour>
      <point x="240" y="-200" type="move" name="belowLC"/>
    </contour>
  </outline>
</glyph>
<glyph name="verticallinemod" format="1">
  <advance width="600"/>
  <unicode hex="02C8"/>
  <outline>
    <contour>
      <point x="267" y="374" type="line"/>
      <point x="363" y="374" type="line"/>
      <point x="470" y="745" type="line"/>
      <point x="309" y="745" type="line"/>
    </contour>
  </outline>
</glyph>
<glyph name="gravecmb" format="1">
	<unicode hex="0300"/>
	<advance width="600"/>
	<outline>
		<contour>
			<point x="386" y="569" type="line"/>
			<point x="484" y="645" type="line"/>
			<point x="360" y="844" type="line"/>
			<point x="224" y="742" type="line"/>
		</contour>
		<contour>
			<point name="_aboveLC" x="340" y="520" type="move"/>
		</contour>
		<contour>
			<point name="aboveLC" x="300" y="520" type="move"/>
		</contour>
	</outline>
</glyph>
<glyph name="overlinecmb" format="1">
	<unicode hex="0305"/>
	<advance width="600"/>
	<outline>
		<component base="macroncmb"/>
		<contour>
			<point name="_aboveLC" x="340" y="520" type="move"/>
		</contour>
		<contour>
			<point name="aboveLC" x="300" y="520" type="move"/>
		</contour>
	</outline>
</glyph>
<glyph name="dieresiscmb" format="1">
	<unicode hex="0308"/>
	<advance width="600"/>
	<outline>
		<contour>
			<point x="248" y="566" type="curve" smooth="yes"/>
			<point x="296" y="566"/>
			<point x="332" y="602"/>
			<point x="332" y="648" type="curve" smooth="yes"/>
			<point x="332" y="689"/>
			<point x="303" y="714"/>
			<point x="266" y="714" type="curve" smooth="yes"/>
			<point x="218" y="714"/>
			<point x="182" y="675"/>
			<point x="182" y="632" type="curve" smooth="yes"/>
			<point x="182" y="589"/>
			<point x="211" y="566"/>
		</contour>
		<contour>
			<point x="468" y="566" type="curve" smooth="yes"/>
			<point x="516" y="566"/>
			<point x="552" y="602"/>
			<point x="552" y="648" type="curve" smooth="yes"/>
			<point x="552" y="689"/>
			<point x="523" y="714"/>
			<point x="486" y="714" type="curve" smooth="yes"/>
			<point x="438" y="714"/>
			<point x="402" y="675"/>
			<point x="402" y="632" type="curve" smooth="yes"/>
			<point x="402" y="589"/>
			<point x="431" y="566"/>
		</contour>
		<contour>
			<point name="_aboveLC" x="340" y="520" type="move"/>
		</contour>
		<contour>
			<point name="aboveLC" x="370" y="674" type="move"/>
		</contour>
	</outline>
</glyph>
<glyph name="caroncmb" format="1">
  <advance width="600"/>
  <unicode hex="030C"/>
  <outline>
    <contour>
      <point x="276" y="580" type="line"/>
      <point x="452" y="580" type="line"/>
      <point x="580" y="704" type="line"/>
      <point x="526" y="768" type="line"/>
      <point x="376" y="680" type="line"/>
      <point x="372" y="680" type="line"/>
      <point x="262" y="768" type="line"/>
      <point x="192" y="708" type="line"/>
    </contour>
    <contour>
      <point x="340" y="520" type="move" name="_aboveLC"/>
    </contour>
  </outline>
</glyph>
<glyph name="breveinvertedcmb" format="1">
  <advance width="600"/>
  <unicode hex="0311"/>
  <outline>
    <contour>
      <point x="276" y="564" type="line"/>
      <point x="289" y="604"/>
      <point x="319" y="634"/>
      <point x="365" y="634" type="curve" smooth="yes"/>
      <point x="411" y="634"/>
      <point x="428" y="604"/>
      <point x="426" y="564" type="curve"/>
      <point x="521" y="580" type="line"/>
      <point x="538" y="674"/>
      <point x="498" y="740"/>
      <point x="386" y="740" type="curve" smooth="yes"/>
      <point x="273" y="740"/>
      <point x="208" y="674"/>
      <point x="187" y="580" type="curve"/>
    </contour>
    <contour>
      <point x="340" y="520" type="move" name="_aboveLC"/>
    </contour>
  </outline>
</glyph>
<glyph name="commaturnedabovecmb" format="1">
  <advance width="600"/>
  <unicode hex="0312"/>
  <outline>
    <contour>
      <point x="362" y="566" type="curve" smooth="yes"/>
      <point x="406" y="566"/>
      <point x="444" y="596"/>
      <point x="444" y="642" type="curve" smooth="yes"/>
      <point x="444" y="676"/>
      <point x="413" y="700"/>
      <point x="382" y="700" type="curve" smooth="yes"/>
      <point x="358" y="700"/>
      <point x="343" y="691"/>
      <point x="322" y="674" type="curve"/>
      <point x="346" y="636" type="line"/>
      <point x="365" y="684" type="line"/>
      <point x="373" y="716"/>
      <point x="400" y="730"/>
      <point x="449" y="744" type="curve"/>
      <point x="428" y="800" type="line"/>
      <point x="334" y="778"/>
      <point x="284" y="722"/>
      <point x="284" y="646" type="curve" smooth="yes"/>
      <point x="284" y="598"/>
      <point x="314" y="566"/>
    </contour>
    <contour>
      <point x="340" y="520" type="move" name="_aboveLC"/>
    </contour>
  </outline>
</glyph>
<glyph name="verticallinebelowcmb" format="1">
  <advance width="600"/>
  <unicode hex="0329"/>
  <outline>
    <contour>
      <point x="122" y="-270" type="line"/>
      <point x="250" y="-270" type="line"/>
      <point x="280" y="-62" type="line"/>
      <point x="172" y="-62" type="line"/>
    </contour>
    <contour>
      <point x="234" y="-20" type="move" name="_belowLC"/>
    </contour>
  </outline>
</glyph>
<glyph name="bridgebelowcmb" format="1">
  <advance width="600"/>
  <unicode hex="032A"/>
  <outline>
    <contour>
      <point x="72" y="-218" type="line"/>
      <point x="150" y="-218" type="line"/>
      <point x="163" y="-156" type="line"/>
      <point x="255" y="-156" type="line"/>
      <point x="243" y="-218" type="line"/>
      <point x="321" y="-218" type="line"/>
      <point x="350" y="-76" type="line"/>
      <point x="100" y="-76" type="line"/>
    </contour>
    <contour>
      <point x="234" y="-20" type="move" name="_belowLC"/>
    </contour>
  </outline>
</glyph>
<glyph name="brevebelowcmb" format="1">
	<unicode hex="032E"/>
	<advance width="600"/>
	<outline>
		<component base="brevecmb" xOffset="-162" yOffset="-806"/>
		<contour>
			<point name="_belowLC" x="234" y="-20" type="move"/>
		</contour>
	</outline>
</glyph>
<glyph name="breveinvertedbelowcmb" format="1">
	<unicode hex="032F"/>
	<advance width="600"/>
	<outline>
		<component base="breveinvertedcmb" xOffset="-162" yOffset="-814"/>
		<contour>
			<point name="_belowLC" x="234" y="-20" type="move"/>
		</contour>
	</outline>
</glyph>
<glyph name="bridgeinvertedbelowcmb" format="1">
  <advance width="600"/>
  <unicode hex="033A"/>
  <outline>
    <contour>
      <point x="73" y="-210" type="line"/>
      <point x="323" y="-210" type="line"/>
      <point x="351" y="-68" type="line"/>
      <point x="272" y="-68" type="line"/>
      <point x="260" y="-130" type="line"/>
      <point x="168" y="-130" type="line"/>
      <point x="180" y="-68" type="line"/>
      <point x="102" y="-68" type="line"/>
    </contour>
    <contour>
      <point x="234" y="-20" type="move" name="_belowLC"/>
    </contour>
  </outline>
</glyph>
<glyph name="seagullbelowcmb" format="1">
	<unicode hex="033C"/>
	<advance width="600"/>
	<outline>
		<contour>
			<point x="85" y="-250" type="line"/>
			<point x="97" y="-193"/>
			<point x="110" y="-179"/>
			<point x="132" y="-179" type="curve" smooth="yes"/>
			<point x="159" y="-179"/>
			<point x="162" y="-200"/>
			<point x="157" y="-225" type="curve" smooth="yes"/>
			<point x="152" y="-248" type="line"/>
			<point x="229" y="-248" type="line"/>
			<point x="233" y="-225" type="line" smooth="yes"/>
			<point x="238" y="-200"/>
			<point x="250" y="-179"/>
			<point x="275" y="-179" type="curve" smooth="yes"/>
			<point x="297" y="-179"/>
			<point x="306" y="-193"/>
			<point x="295" y="-250" type="curve"/>
			<point x="380" y="-238" type="line"/>
			<point x="401" y="-129"/>
			<point x="380" y="-74"/>
			<point x="302" y="-74" type="curve" smooth="yes"/>
			<point x="268" y="-74"/>
			<point x="236" y="-92"/>
			<point x="217" y="-126" type="curve"/>
			<point x="213" y="-126" type="line"/>
			<point x="207" y="-92"/>
			<point x="184" y="-74"/>
			<point x="148" y="-74" type="curve" smooth="yes"/>
			<point x="72" y="-74"/>
			<point x="27" y="-129"/>
			<point x="5" y="-238" type="curve"/>
		</contour>
		<contour>
			<point name="_belowLC" x="234" y="-20" type="move"/>
		</contour>
	</outline>
</glyph>
<glyph name="emdash" format="1">
  <advance width="600"/>
  <unicode hex="2014"/>
  <outline>
    <contour>
      <point x="-2" y="196" type="line"/>
      <point x="558" y="196" type="line"/>
      <point x="581" y="313" type="line"/>
      <point x="21" y="313" type="line"/>
    </contour>
  </outline>
</glyph>
<glyph name="quoteleft" format="1">
  <advance width="600"/>
  <unicode hex="2018"/>
  <outline>
    <contour>
      <point x="301" y="291" type="curve" smooth="yes"/>
      <point x="376" y="291"/>
      <point x="427" y="347"/>
      <point x="427" y="410" type="curve" smooth="yes"/>
      <point x="427" y="467"/>
      <point x="390" y="503"/>
      <point x="333" y="503" type="curve" smooth="yes"/>
      <point x="304" y="503"/>
      <point x="285" y="492"/>
      <point x="270" y="482" type="curve"/>
      <point x="304" y="375" type="line"/>
      <point x="331" y="499" type="line"/>
      <point x="347" y="544"/>
      <point x="400" y="593"/>
      <point x="483" y="610" type="curve"/>
      <point x="464" y="689" type="line"/>
      <point x="311" y="658"/>
      <point x="201" y="553"/>
      <point x="201" y="416" type="curve" smooth="yes"/>
      <point x="201" y="336"/>
      <point x="241" y="291"/>
    </contour>
  </outline>
</glyph>
<glyph name="dagger" format="1">
  <advance width="600"/>
  <unicode hex="2020"/>
  <outline>
    <contour>
      <point x="157" y="-80" type="line"/>
      <point x="285" y="-80" type="line"/>
      <point x="377" y="428" type="line"/>
      <point x="535" y="418" type="line"/>
      <point x="559" y="546" type="line"/>
      <point x="397" y="536" type="line"/>
      <point x="443" y="712" type="line"/>
      <point x="315" y="712" type="line"/>
      <point x="289" y="536" type="line"/>
      <point x="133" y="546" type="line"/>
      <point x="107" y="418" type="line"/>
      <point x="269" y="428" type="line"/>
    </contour>
  </outline>
</glyph>
<glyph name="daggerdbl" format="1">
  <advance width="600"/>
  <unicode hex="2021"/>
  <outline>
    <contour>
      <point x="162" y="-80" type="line"/>
      <point x="290" y="-80" type="line"/>
      <point x="314" y="94" type="line"/>
      <point x="472" y="84" type="line"/>
      <point x="498" y="212" type="line"/>
      <point x="336" y="200" type="line"/>
      <point x="368" y="316" type="line"/>
      <point x="382" y="432" type="line"/>
      <point x="540" y="418" type="line"/>
      <point x="564" y="546" type="line"/>
      <point x="402" y="536" type="line"/>
      <point x="446" y="712" type="line"/>
      <point x="320" y="712" type="line"/>
      <point x="294" y="536" type="line"/>
      <point x="136" y="546" type="line"/>
      <point x="112" y="418" type="line"/>
      <point x="274" y="432" type="line"/>
      <point x="240" y="316" type="line"/>
      <point x="228" y="200" type="line"/>
      <point x="70" y="212" type="line"/>
      <point x="46" y="84" type="line"/>
      <point x="206" y="94" type="line"/>
    </contour>
  </outline>
</glyph>
<glyph name="perthousand" format="1">
	<unicode hex="2030"/>
	<advance width="600"/>
	<outline>
		<contour>
			<point x="172" y="388" type="curve" smooth="yes"/>
			<point x="265" y="388"/>
			<point x="332" y="453"/>
			<point x="332" y="544" type="curve" smooth="yes"/>
			<point x="332" y="608"/>
			<point x="291" y="647"/>
			<point x="227" y="647" type="curve" smooth="yes"/>
			<point x="143" y="647"/>
			<point x="67" y="588"/>
			<point x="67" y="495" type="curve" smooth="yes"/>
			<point x="67" y="431"/>
			<point x="109" y="388"/>
		</contour>
		<contour>
			<point x="184" y="455" type="curve" smooth="yes"/>
			<point x="165" y="455"/>
			<point x="156" y="468"/>
			<point x="156" y="498" type="curve" smooth="yes"/>
			<point x="156" y="550"/>
			<point x="186" y="581"/>
			<point x="216" y="581" type="curve" smooth="yes"/>
			<point x="233" y="581"/>
			<point x="243" y="571"/>
			<point x="243" y="542" type="curve" smooth="yes"/>
			<point x="243" y="483"/>
			<point x="213" y="455"/>
		</contour>
		<contour>
			<point x="105" y="264" type="line"/>
			<point x="608" y="406" type="line"/>
			<point x="582" y="506" type="line"/>
			<point x="89" y="310" type="line"/>
		</contour>
		<contour>
			<point x="92" y="-13" type="curve" smooth="yes"/>
			<point x="185" y="-13"/>
			<point x="252" y="52"/>
			<point x="252" y="143" type="curve" smooth="yes"/>
			<point x="252" y="207"/>
			<point x="211" y="246"/>
			<point x="147" y="246" type="curve" smooth="yes"/>
			<point x="63" y="246"/>
			<point x="-13" y="187"/>
			<point x="-13" y="94" type="curve" smooth="yes"/>
			<point x="-13" y="30"/>
			<point x="29" y="-13"/>
		</contour>
		<contour>
			<point x="104" y="54" type="curve" smooth="yes"/>
			<point x="85" y="54"/>
			<point x="76" y="67"/>
			<point x="76" y="97" type="curve" smooth="yes"/>
			<point x="76" y="149"/>
			<point x="106" y="180"/>
			<point x="136" y="180" type="curve" smooth="yes"/>
			<point x="153" y="180"/>
			<point x="163" y="170"/>
			<point x="163" y="141" type="curve" smooth="yes"/>
			<point x="163" y="82"/>
			<point x="133" y="54"/>
		</contour>
		<contour>
			<point x="379" y="-13" type="curve" smooth="yes"/>
			<point x="472" y="-13"/>
			<point x="539" y="52"/>
			<point x="539" y="143" type="curve" smooth="yes"/>
			<point x="539" y="207"/>
			<point x="498" y="246"/>
			<point x="434" y="246" type="curve" smooth="yes"/>
			<point x="350" y="246"/>
			<point x="274" y="187"/>
			<point x="274" y="94" type="curve" smooth="yes"/>
			<point x="274" y="30"/>
			<point x="316" y="-13"/>
		</contour>
		<contour>
			<point x="391" y="54" type="curve" smooth="yes"/>
			<point x="372" y="54"/>
			<point x="363" y="67"/>
			<point x="363" y="97" type="curve" smooth="yes"/>
			<point x="363" y="149"/>
			<point x="393" y="180"/>
			<point x="423" y="180" type="curve" smooth="yes"/>
			<point x="440" y="180"/>
			<point x="450" y="170"/>
			<point x="450" y="141" type="curve" smooth="yes"/>
			<point x="450" y="82"/>
			<point x="420" y="54"/>
		</contour>
	</outline>
</glyph>
<glyph name="guilsinglleft" format="1">
  <advance width="600"/>
  <unicode hex="2039"/>
  <outline>
    <contour>
      <point x="319" y="20" type="line"/>
      <point x="398" y="79" type="line"/>
      <point x="317" y="257" type="line"/>
      <point x="315" y="234" type="line"/>
      <point x="467" y="421" type="line"/>
      <point x="412" y="484" type="line"/>
      <point x="204" y="321" type="line"/>
      <point x="181" y="193" type="line"/>
    </contour>
  </outline>
</glyph>
<glyph name="guilsinglright" format="1">
  <advance width="600"/>
  <unicode hex="203A"/>
  <outline>
    <contour>
      <point x="166" y="20" type="line"/>
      <point x="374" y="183" type="line"/>
      <point x="397" y="311" type="line"/>
      <point x="259" y="484" type="line"/>
      <point x="180" y="425" type="line"/>
      <point x="261" y="247" type="line"/>
      <point x="263" y="270" type="line"/>
      <point x="111" y="83" type="line"/>
    </contour>
  </outline>
</glyph>
<glyph name="undertie" format="1">
	<unicode hex="203F"/>
	<advance width="600"/>
	<outline>
		<contour>
			<point x="190" y="-230" type="curve" smooth="yes"/>
			<point x="341" y="-230"/>
			<point x="505" y="-191"/>
			<point x="654" y="-108" type="curve"/>
			<point x="618" y="-35" type="line"/>
			<point x="482" y="-108"/>
			<point x="322" y="-130"/>
			<point x="210" y="-130" type="curve" smooth="yes"/>
			<point x="95" y="-130"/>
			<point x="-60" y="-108"/>
			<point x="-170" y="-35" type="curve"/>
			<point x="-225" y="-108" type="line"/>
			<point x="-109" y="-191"/>
			<point x="39" y="-230"/>
		</contour>
	</outline>
</glyph>
<glyph name="exclamquestion" format="1">
  <advance width="600"/>
  <unicode hex="2049"/>
  <outline>
    <contour>
      <point x="348" y="264" type="curve"/>
      <point x="480" y="264" type="line"/>
      <point x="488" y="384"/>
      <point x="640" y="426"/>
      <point x="640" y="556" type="curve" smooth="yes"/>
      <point x="640" y="643"/>
      <point x="570" y="682"/>
      <point x="488" y="682" type="curve" smooth="yes"/>
      <point x="445" y="682"/>
      <point x="393" y="668"/>
      <point x="350" y="634" type="curve"/>
      <point x="406" y="532" type="line"/>
      <point x="424" y="548"/>
      <point x="440" y="554"/>
      <point x="454" y="554" type="curve" smooth="yes"/>
      <point x="470" y="554"/>
      <point x="480" y="542"/>
      <point x="480" y="524" type="curve" smooth="yes"/>
      <point x="480" y="444"/>
      <point x="357" y="407"/>
    </contour>
    <contour>
      <point x="374" y="-12" type="curve" smooth="yes"/>
      <point x="444" y="-12"/>
      <point x="492" y="42"/>
      <point x="492" y="108" type="curve" smooth="yes"/>
      <point x="492" y="160"/>
      <point x="456" y="198"/>
      <point x="406" y="198" type="curve" smooth="yes"/>
      <point x="336" y="198"/>
      <point x="288" y="144"/>
      <point x="288" y="78" type="curve" smooth="yes"/>
      <point x="288" y="26"/>
      <point x="324" y="-12"/>
    </contour>
    <component base="exclam" xOffset="-140"/>
  </outline>
</glyph>
<glyph name="franc" format="1">
  <advance width="600"/>
  <unicode hex="20A3"/>
  <outline>
    <contour>
      <point x="56" y="0" type="line"/>
      <point x="216" y="0" type="line"/>
      <point x="268" y="260" type="line"/>
      <point x="482" y="260" type="line"/>
      <point x="508" y="394" type="line"/>
      <point x="294" y="394" type="line"/>
      <point x="314" y="500" type="line"/>
      <point x="570" y="500" type="line"/>
      <point x="596" y="634" type="line"/>
      <point x="182" y="634" type="line"/>
    </contour>
    <contour>
      <point x="-2" y="90" type="line"/>
      <point x="372" y="90" type="line"/>
      <point x="392" y="188" type="line"/>
      <point x="96" y="188" type="line"/>
      <point x="16" y="182" type="line"/>
    </contour>
  </outline>
</glyph>
<glyph name="lira" format="1">
  <advance width="600"/>
  <unicode hex="20A4"/>
  <outline>
    <contour>
      <point x="12" y="0" type="line"/>
      <point x="458" y="0" type="line"/>
      <point x="482" y="134" type="line"/>
      <point x="246" y="134" type="line"/>
      <point x="248" y="138" type="line"/>
      <point x="298" y="188"/>
      <point x="318" y="232"/>
      <point x="318" y="306" type="curve" smooth="yes"/>
      <point x="318" y="332"/>
      <point x="312" y="368"/>
      <point x="312" y="394" type="curve" smooth="yes"/>
      <point x="312" y="490"/>
      <point x="348" y="518"/>
      <point x="396" y="518" type="curve" smooth="yes"/>
      <point x="426" y="518"/>
      <point x="454" y="502"/>
      <point x="476" y="474" type="curve"/>
      <point x="578" y="558" type="line"/>
      <point x="538" y="612"/>
      <point x="468" y="646"/>
      <point x="396" y="646" type="curve" smooth="yes"/>
      <point x="260" y="646"/>
      <point x="164" y="560"/>
      <point x="164" y="418" type="curve" smooth="yes"/>
      <point x="164" y="380"/>
      <point x="174" y="326"/>
      <point x="174" y="288" type="curve" smooth="yes"/>
      <point x="174" y="200"/>
      <point x="114" y="132"/>
      <point x="32" y="98" type="curve"/>
    </contour>
    <contour>
      <point x="78" y="338" type="line"/>
      <point x="467" y="338" type="line"/>
      <point x="483" y="416" type="line"/>
      <point x="171" y="416" type="line"/>
      <point x="92" y="411" type="line"/>
    </contour>
    <contour>
      <point x="53" y="214" type="line"/>
      <point x="442" y="214" type="line"/>
      <point x="458" y="292" type="line"/>
      <point x="146" y="292" type="line"/>
      <point x="67" y="287" type="line"/>
    </contour>
  </outline>
</glyph>
<glyph name="naira" format="1">
  <advance width="600"/>
  <unicode hex="20A6"/>
  <outline>
    <contour>
      <point x="38" y="0" type="line"/>
      <point x="151" y="0" type="line"/>
      <point x="201" y="248" type="line"/>
      <point x="228" y="519" type="line"/>
      <point x="232" y="519" type="line"/>
      <point x="255" y="346" type="line"/>
      <point x="297" y="0" type="line"/>
      <point x="443" y="0" type="line"/>
      <point x="569" y="635" type="line"/>
      <point x="456" y="635" type="line"/>
      <point x="407" y="386" type="line"/>
      <point x="378" y="104" type="line"/>
      <point x="374" y="105" type="line"/>
      <point x="353" y="289" type="line"/>
      <point x="309" y="635" type="line"/>
      <point x="165" y="635" type="line"/>
    </contour>
    <contour>
      <point x="33" y="342" type="line"/>
      <point x="586" y="342" type="line"/>
      <point x="597" y="403" type="line"/>
      <point x="114" y="403" type="line"/>
      <point x="44" y="397" type="line"/>
    </contour>
    <contour>
      <point x="13" y="235" type="line"/>
      <point x="564" y="235" type="line"/>
      <point x="575" y="296" type="line"/>
      <point x="93" y="296" type="line"/>
      <point x="23" y="290" type="line"/>
    </contour>
  </outline>
</glyph>
<glyph name="ruble" format="1">
  <advance width="600"/>
  <unicode hex="20BD"/>
  <outline>
    <contour>
      <point x="66" y="0" type="line"/>
      <point x="221" y="0" type="line"/>
      <point x="274" y="262" type="line"/>
      <point x="318" y="262" type="line" smooth="yes"/>
      <point x="494" y="262"/>
      <point x="604" y="354"/>
      <point x="604" y="486" type="curve" smooth="yes"/>
      <point x="604" y="590"/>
      <point x="512" y="634"/>
      <point x="393" y="634" type="curve" smooth="yes"/>
      <point x="192" y="634" type="line"/>
    </contour>
    <contour>
      <point x="290" y="346" type="line"/>
      <point x="327" y="528" type="line"/>
      <point x="368" y="528" type="line" smooth="yes"/>
      <point x="420" y="528"/>
      <point x="450" y="510"/>
      <point x="450" y="466" type="curve" smooth="yes"/>
      <point x="450" y="394"/>
      <point x="396" y="346"/>
      <point x="330" y="346" type="curve" smooth="yes"/>
    </contour>
    <contour>
      <point x="22" y="262" type="line"/>
      <point x="189" y="262" type="line"/>
      <point x="206" y="346" type="line"/>
      <point x="152" y="346" type="line"/>
      <point x="38" y="340" type="line"/>
    </contour>
    <contour>
      <point x="-3" y="134" type="line"/>
      <point x="472" y="134" type="line"/>
      <point x="489" y="218" type="line"/>
      <point x="127" y="218" type="line"/>
      <point x="12" y="212" type="line"/>
    </contour>
  </outline>
</glyph>
<glyph name="litre" format="1">
  <advance width="600"/>
  <unicode hex="2113"/>
  <outline>
    <contour>
      <point x="294" y="-12" type="curve" smooth="yes"/>
      <point x="380" y="-12"/>
      <point x="446" y="22"/>
      <point x="502" y="67" type="curve"/>
      <point x="449" y="164" type="line"/>
      <point x="423" y="144"/>
      <point x="394" y="120"/>
      <point x="356" y="120" type="curve" smooth="yes"/>
      <point x="318" y="120"/>
      <point x="292" y="144"/>
      <point x="304" y="206" type="curve" smooth="yes"/>
      <point x="362" y="480" type="line" smooth="yes"/>
      <point x="378" y="564"/>
      <point x="404" y="592"/>
      <point x="426" y="592" type="curve" smooth="yes"/>
      <point x="440" y="592"/>
      <point x="446" y="578"/>
      <point x="446" y="556" type="curve" smooth="yes"/>
      <point x="446" y="457"/>
      <point x="346" y="342"/>
      <point x="50" y="200" type="curve"/>
      <point x="88" y="102" type="line"/>
      <point x="488" y="302"/>
      <point x="576" y="437"/>
      <point x="576" y="572" type="curve" smooth="yes"/>
      <point x="576" y="656"/>
      <point x="526" y="708"/>
      <point x="442" y="708" type="curve" smooth="yes"/>
      <point x="332" y="708"/>
      <point x="234" y="630"/>
      <point x="200" y="460" type="curve" smooth="yes"/>
      <point x="144" y="190" type="line" smooth="yes"/>
      <point x="118" y="56"/>
      <point x="198" y="-12"/>
    </contour>
  </outline>
</glyph>
<glyph name="soundcopyright" format="1">
  <advance width="600"/>
  <unicode hex="2117"/>
  <outline>
    <contour>
      <point x="242" y="-8" type="curve" smooth="yes"/>
      <point x="434" y="-8"/>
      <point x="601" y="153"/>
      <point x="601" y="396" type="curve" smooth="yes"/>
      <point x="601" y="558"/>
      <point x="504" y="656"/>
      <point x="374" y="656" type="curve" smooth="yes"/>
      <point x="185" y="656"/>
      <point x="16" y="499"/>
      <point x="16" y="254" type="curve" smooth="yes"/>
      <point x="16" y="92"/>
      <point x="112" y="-8"/>
    </contour>
    <contour>
      <point x="250" y="55" type="curve" smooth="yes"/>
      <point x="144" y="55"/>
      <point x="85" y="138"/>
      <point x="85" y="261" type="curve" smooth="yes"/>
      <point x="85" y="453"/>
      <point x="207" y="592"/>
      <point x="362" y="592" type="curve" smooth="yes"/>
      <point x="469" y="592"/>
      <point x="532" y="512"/>
      <point x="532" y="389" type="curve" smooth="yes"/>
      <point x="532" y="199"/>
      <point x="405" y="55"/>
    </contour>
    <contour>
      <point x="152" y="140" type="line"/>
      <point x="256" y="140" type="line"/>
      <point x="313" y="429" type="line"/>
      <point x="304" y="421" type="line"/>
      <point x="330" y="421" type="line" smooth="yes"/>
      <point x="362" y="421"/>
      <point x="375" y="410"/>
      <point x="375" y="382" type="curve" smooth="yes"/>
      <point x="375" y="338"/>
      <point x="352" y="307"/>
      <point x="305" y="307" type="curve" smooth="yes"/>
      <point x="259" y="307" type="line"/>
      <point x="247" y="227" type="line"/>
      <point x="295" y="227" type="line" smooth="yes"/>
      <point x="379" y="227"/>
      <point x="486" y="264"/>
      <point x="486" y="400" type="curve" smooth="yes"/>
      <point x="486" y="477"/>
      <point x="424" y="505"/>
      <point x="357" y="505" type="curve" smooth="yes"/>
      <point x="225" y="505" type="line"/>
    </contour>
  </outline>
</glyph>
<glyph name="onetenth" format="1">
	<unicode hex="2152"/>
	<advance width="600"/>
	<outline>
		<contour>
			<point x="148" y="400" type="line"/>
			<point x="264" y="400" type="line"/>
			<point x="310" y="634" type="line"/>
			<point x="220" y="634" type="line"/>
			<point x="183" y="613"/>
			<point x="161" y="604"/>
			<point x="108" y="598" type="curve"/>
			<point x="94" y="530" type="line"/>
			<point x="174" y="530" type="line"/>
		</contour>
		<contour>
			<point x="105" y="264" type="line"/>
			<point x="608" y="406" type="line"/>
			<point x="582" y="506" type="line"/>
			<point x="89" y="310" type="line"/>
		</contour>
		<contour>
			<point x="68" y="0" type="line"/>
			<point x="184" y="0" type="line"/>
			<point x="230" y="234" type="line"/>
			<point x="140" y="234" type="line"/>
			<point x="103" y="213"/>
			<point x="81" y="204"/>
			<point x="28" y="198" type="curve"/>
			<point x="14" y="130" type="line"/>
			<point x="94" y="130" type="line"/>
		</contour>
		<contour>
			<point x="379" y="-13" type="curve" smooth="yes"/>
			<point x="472" y="-13"/>
			<point x="539" y="52"/>
			<point x="539" y="143" type="curve" smooth="yes"/>
			<point x="539" y="207"/>
			<point x="498" y="246"/>
			<point x="434" y="246" type="curve" smooth="yes"/>
			<point x="350" y="246"/>
			<point x="274" y="187"/>
			<point x="274" y="94" type="curve" smooth="yes"/>
			<point x="274" y="30"/>
			<point x="316" y="-13"/>
		</contour>
		<contour>
			<point x="363" y="97" type="curve" smooth="yes"/>
			<point x="363" y="149"/>
			<point x="393" y="180"/>
			<point x="423" y="180" type="curve" smooth="yes"/>
			<point x="440" y="180"/>
			<point x="450" y="170"/>
			<point x="450" y="141" type="curve" smooth="yes"/>
			<point x="450" y="82"/>
			<point x="420" y="54"/>
			<point x="391" y="54" type="curve" smooth="yes"/>
			<point x="372" y="54"/>
			<point x="363" y="67"/>
		</contour>
	</outline>
</glyph>
<glyph name="arrowleft" format="1">
  <advance width="600"/>
  <unicode hex="2190"/>
  <outline>
    <contour>
      <point x="282" y="-18" type="line"/>
      <point x="356" y="68" type="line"/>
      <point x="215" y="190" type="line"/>
      <point x="558" y="190" type="line"/>
      <point x="558" y="314" type="line"/>
      <point x="216" y="314" type="line"/>
      <point x="356" y="436" type="line"/>
      <point x="282" y="522" type="line"/>
      <point x="4" y="254" type="line"/>
      <point x="4" y="250" type="line"/>
    </contour>
  </outline>
</glyph>
<glyph name="arrowright" format="1">
  <advance width="600"/>
  <unicode hex="2192"/>
  <outline>
    <contour>
      <point x="298" y="-18" type="line"/>
      <point x="576" y="250" type="line"/>
      <point x="576" y="254" type="line"/>
      <point x="298" y="522" type="line"/>
      <point x="224" y="436" type="line"/>
      <point x="365" y="314" type="line"/>
      <point x="22" y="314" type="line"/>
      <point x="22" y="190" type="line"/>
      <point x="364" y="190" type="line"/>
      <point x="224" y="68" type="line"/>
    </contour>
  </outline>
</glyph>
<glyph name="arrowdblleft" format="1">
  <advance width="600"/>
  <unicode hex="21D0"/>
  <outline>
    <contour>
      <point x="282" y="-18" type="line"/>
      <point x="356" y="68" type="line"/>
      <point x="142" y="252" type="line"/>
      <point x="356" y="436" type="line"/>
      <point x="282" y="522" type="line"/>
      <point x="4" y="254" type="line"/>
      <point x="4" y="250" type="line"/>
    </contour>
    <contour>
      <point x="166" y="286" type="line"/>
      <point x="558" y="286" type="line"/>
      <point x="558" y="390" type="line"/>
      <point x="166" y="390" type="line"/>
    </contour>
    <contour>
      <point x="166" y="114" type="line"/>
      <point x="558" y="114" type="line"/>
      <point x="558" y="218" type="line"/>
      <point x="166" y="218" type="line"/>
    </contour>
  </outline>
</glyph>
<glyph name="arrowdblup" format="1">
  <advance width="600"/>
  <unicode hex="21D1"/>
  <outline>
    <contour>
      <point x="106" y="180" type="line"/>
      <point x="290" y="394" type="line"/>
      <point x="474" y="180" type="line"/>
      <point x="560" y="254" type="line"/>
      <point x="292" y="532" type="line"/>
      <point x="288" y="532" type="line"/>
      <point x="20" y="254" type="line"/>
    </contour>
    <contour>
      <point x="166" y="-22" type="line"/>
      <point x="262" y="-22" type="line"/>
      <point x="262" y="370" type="line"/>
      <point x="166" y="370" type="line"/>
    </contour>
    <contour>
      <point x="318" y="-22" type="line"/>
      <point x="414" y="-22" type="line"/>
      <point x="414" y="370" type="line"/>
      <point x="318" y="370" type="line"/>
    </contour>
  </outline>
</glyph>
<glyph name="arrowdblright" format="1">
  <advance width="600"/>
  <unicode hex="21D2"/>
  <outline>
    <contour>
      <point x="298" y="-18" type="line"/>
      <point x="576" y="250" type="line"/>
      <point x="576" y="254" type="line"/>
      <point x="298" y="522" type="line"/>
      <point x="224" y="436" type="line"/>
      <point x="438" y="252" type="line"/>
      <point x="224" y="68" type="line"/>
    </contour>
    <contour>
      <point x="22" y="286" type="line"/>
      <point x="414" y="286" type="line"/>
      <point x="414" y="390" type="line"/>
      <point x="22" y="390" type="line"/>
    </contour>
    <contour>
      <point x="22" y="114" type="line"/>
      <point x="414" y="114" type="line"/>
      <point x="414" y="218" type="line"/>
      <point x="22" y="218" type="line"/>
    </contour>
  </outline>
</glyph>
<glyph name="arrowdbldown" format="1">
  <advance width="600"/>
  <unicode hex="21D3"/>
  <outline>
    <contour>
      <point x="288" y="-24" type="line"/>
      <point x="292" y="-24" type="line"/>
      <point x="560" y="254" type="line"/>
      <point x="474" y="328" type="line"/>
      <point x="290" y="114" type="line"/>
      <point x="106" y="328" type="line"/>
      <point x="20" y="254" type="line"/>
    </contour>
    <contour>
      <point x="152" y="138" type="line"/>
      <point x="256" y="138" type="line"/>
      <point x="256" y="530" type="line"/>
      <point x="152" y="530" type="line"/>
    </contour>
    <contour>
      <point x="324" y="138" type="line"/>
      <point x="428" y="138" type="line"/>
      <point x="428" y="530" type="line"/>
      <point x="324" y="530" type="line"/>
    </contour>
  </outline>
</glyph>
<glyph name="partialdiff" format="1">
  <advance width="600"/>
  <unicode hex="2202"/>
  <outline>
    <contour>
      <point x="219" y="-12" type="curve" smooth="yes"/>
      <point x="417" y="-12"/>
      <point x="569" y="195"/>
      <point x="569" y="437" type="curve" smooth="yes"/>
      <point x="569" y="609"/>
      <point x="484" y="670"/>
      <point x="369" y="670" type="curve" smooth="yes"/>
      <point x="315" y="670"/>
      <point x="254" y="652"/>
      <point x="200" y="617" type="curve"/>
      <point x="254" y="515" type="line"/>
      <point x="279" y="532"/>
      <point x="301" y="544"/>
      <point x="335" y="544" type="curve" smooth="yes"/>
      <point x="387" y="544"/>
      <point x="419" y="511"/>
      <point x="419" y="437" type="curve" smooth="yes"/>
      <point x="419" y="272"/>
      <point x="335" y="115"/>
      <point x="245" y="115" type="curve" smooth="yes"/>
      <point x="207" y="115"/>
      <point x="182" y="137"/>
      <point x="182" y="187" type="curve" smooth="yes"/>
      <point x="182" y="256"/>
      <point x="228" y="300"/>
      <point x="289" y="300" type="curve" smooth="yes"/>
      <point x="336" y="300"/>
      <point x="372" y="262"/>
      <point x="389" y="216" type="curve"/>
      <point x="429" y="335" type="line"/>
      <point x="406" y="382"/>
      <point x="345" y="419"/>
      <point x="276" y="419" type="curve" smooth="yes"/>
      <point x="134" y="419"/>
      <point x="27" y="322"/>
      <point x="27" y="175" type="curve" smooth="yes"/>
      <point x="27" y="45"/>
      <point x="104" y="-12"/>
    </contour>
  </outline>
</glyph>
<glyph name="product" format="1">
  <advance width="600"/>
  <unicode hex="220F"/>
  <outline>
    <contour>
      <point x="12" y="-120" type="line"/>
      <point x="172" y="-120" type="line"/>
      <point x="172" y="494" type="line"/>
      <point x="414" y="494" type="line"/>
      <point x="414" y="-120" type="line"/>
      <point x="574" y="-120" type="line"/>
      <point x="574" y="634" type="line"/>
      <point x="12" y="634" type="line"/>
    </contour>
  </outline>
</glyph>
<glyph name="radical" format="1">
  <advance width="600"/>
  <unicode hex="221A"/>
  <outline>
    <contour>
      <point x="205" y="-77" type="line"/>
      <point x="312" y="-77" type="line"/>
      <point x="708" y="820" type="line"/>
      <point x="604" y="820" type="line"/>
      <point x="318" y="161" type="line" smooth="yes"/>
      <point x="306" y="132"/>
      <point x="295" y="104"/>
      <point x="285" y="75" type="curve"/>
      <point x="281" y="75" type="line"/>
      <point x="281" y="104"/>
      <point x="279" y="132"/>
      <point x="277" y="161" type="curve"/>
      <point x="239" y="446" type="line"/>
      <point x="43" y="373" type="line"/>
      <point x="55" y="300" type="line"/>
      <point x="136" y="330" type="line"/>
    </contour>
  </outline>
</glyph>
<glyph name="infinity" format="1">
	<unicode hex="221E"/>
	<advance width="600"/>
	<outline>
		<contour>
			<point x="441" y="115" type="curve" smooth="yes"/>
			<point x="538" y="115"/>
			<point x="615" y="195"/>
			<point x="615" y="341" type="curve" smooth="yes"/>
			<point x="615" y="453"/>
			<point x="541" y="536"/>
			<point x="450" y="536" type="curve" smooth="yes"/>
			<point x="383" y="536"/>
			<point x="335" y="509"/>
			<point x="289" y="439" type="curve"/>
			<point x="285" y="439" type="line"/>
			<point x="255" y="492"/>
			<point x="212" y="520"/>
			<point x="152" y="520" type="curve" smooth="yes"/>
			<point x="52" y="520"/>
			<point x="-15" y="445"/>
			<point x="-15" y="315" type="curve" smooth="yes"/>
			<point x="-15" y="224"/>
			<point x="48" y="142"/>
			<point x="130" y="142" type="curve" smooth="yes"/>
			<point x="189" y="142"/>
			<point x="232" y="172"/>
			<point x="263" y="223" type="curve"/>
			<point x="267" y="223" type="line"/>
			<point x="320" y="137"/>
			<point x="370" y="115"/>
		</contour>
		<contour>
			<point x="153" y="258" type="curve" smooth="yes"/>
			<point x="121" y="258"/>
			<point x="101" y="289"/>
			<point x="101" y="319" type="curve" smooth="yes"/>
			<point x="101" y="349"/>
			<point x="116" y="372"/>
			<point x="148" y="372" type="curve" smooth="yes"/>
			<point x="174" y="372"/>
			<point x="200" y="355"/>
			<point x="219" y="310" type="curve"/>
			<point x="202" y="273"/>
			<point x="180" y="258"/>
		</contour>
		<contour>
			<point x="431" y="263" type="curve" smooth="yes"/>
			<point x="387" y="263"/>
			<point x="360" y="295"/>
			<point x="332" y="352" type="curve"/>
			<point x="361" y="399"/>
			<point x="392" y="420"/>
			<point x="425" y="420" type="curve" smooth="yes"/>
			<point x="470" y="420"/>
			<point x="499" y="389"/>
			<point x="499" y="337" type="curve" smooth="yes"/>
			<point x="499" y="298"/>
			<point x="474" y="263"/>
		</contour>
	</outline>
</glyph>
<glyph name="notequal" format="1">
  <advance width="600"/>
  <unicode hex="2260"/>
  <outline>
    <contour>
      <point x="82" y="34" type="line"/>
      <point x="183" y="34" type="line"/>
      <point x="253" y="155" type="line"/>
      <point x="533" y="155" type="line"/>
      <point x="533" y="268" type="line"/>
      <point x="316" y="268" type="line"/>
      <point x="385" y="392" type="line"/>
      <point x="533" y="392" type="line"/>
      <point x="533" y="505" type="line"/>
      <point x="447" y="505" type="line"/>
      <point x="518" y="626" type="line"/>
      <point x="417" y="626" type="line"/>
      <point x="347" y="505" type="line"/>
      <point x="67" y="505" type="line"/>
      <point x="67" y="392" type="line"/>
      <point x="284" y="392" type="line"/>
      <point x="215" y="268" type="line"/>
      <point x="67" y="268" type="line"/>
      <point x="67" y="155" type="line"/>
      <point x="153" y="155" type="line"/>
    </contour>
  </outline>
</glyph>
<glyph name="greaterequal" format="1">
  <advance width="600"/>
  <unicode hex="2265"/>
  <outline>
    <contour>
      <point x="71" y="0" type="line"/>
      <point x="536" y="0" type="line"/>
      <point x="536" y="111" type="line"/>
      <point x="71" y="111" type="line"/>
    </contour>
    <contour>
      <point x="71" y="154" type="line"/>
      <point x="536" y="294" type="line"/>
      <point x="536" y="424" type="line"/>
      <point x="71" y="564" type="line"/>
      <point x="71" y="435" type="line"/>
      <point x="237" y="393" type="line"/>
      <point x="376" y="361" type="line"/>
      <point x="376" y="357" type="line"/>
      <point x="237" y="325" type="line"/>
      <point x="71" y="283" type="line"/>
    </contour>
  </outline>
</glyph>
<glyph name="ceilingright" format="1">
	<unicode hex="231D"/>
	<advance width="600"/>
	<outline>
		<contour>
			<point x="224" y="0" type="line"/>
			<point x="344" y="0" type="line"/>
			<point x="486" y="708" type="line"/>
			<point x="188" y="708" type="line"/>
			<point x="172" y="624" type="line"/>
			<point x="350" y="624" type="line"/>
		</contour>
	</outline>
</glyph>
<glyph name="integraltp" format="1">
	<unicode hex="2320"/>
	<advance width="600"/>
	<outline>
		<contour>
			<point x="377" y="-400" type="line"/>
			<point x="377" y="545" type="line"/>
			<point x="377" y="636"/>
			<point x="389" y="672"/>
			<point x="439" y="672" type="curve" smooth="yes"/>
			<point x="453" y="672"/>
			<point x="465" y="671"/>
			<point x="475" y="668" type="curve"/>
			<point x="490" y="784" type="line"/>
			<point x="479" y="787"/>
			<point x="455" y="792"/>
			<point x="431" y="792" type="curve" smooth="yes"/>
			<point x="265" y="792"/>
			<point x="233" y="684"/>
			<point x="233" y="541" type="curve"/>
			<point x="233" y="-400" type="line"/>
		</contour>
	</outline>
</glyph>
<glyph name="uplightrightheavybxd" format="1">
	<unicode hex="2515"/>
	<advance width="600"/>
	<outline>
		<contour>
			<point x="220" y="140" type="line"/>
			<point x="680" y="140" type="line"/>
			<point x="680" y="460" type="line"/>
			<point x="380" y="460" type="line"/>
			<point x="380" y="1000" type="line"/>
			<point x="220" y="1000" type="line"/>
		</contour>
	</outline>
</glyph>
<glyph name="rightlightleftdnheavybxd" format="1">
  <advance width="600"/>
  <unicode hex="2531"/>
  <outline>
    <contour>
      <point x="-80" y="140" type="line"/>
      <point x="140" y="140" type="line"/>
      <point x="140" y="-400" type="line"/>
      <point x="460" y="-400" type="line"/>
      <point x="460" y="220" type="line"/>
      <point x="680" y="220" type="line"/>
      <point x="680" y="380" type="line"/>
      <point x="460" y="380" type="line"/>
      <point x="460" y="460" type="line"/>
      <point x="-80" y="460" type="line"/>
    </contour>
  </outline>
</glyph>
<glyph name="vertheavyhorzlightbxd" format="1">
	<unicode hex="2542"/>
	<advance width="600"/>
	<outline>
		<contour>
			<point x="680" y="220" type="line"/>
			<point x="680" y="380" type="line"/>
			<point x="460" y="380" type="line"/>
			<point x="460" y="1000" type="line"/>
			<point x="140" y="1000" type="line"/>
			<point x="140" y="380" type="line"/>
			<point x="-80" y="380" type="line"/>
			<point x="-80" y="220" type="line"/>
			<point x="140" y="220" type="line"/>
			<point x="140" y="-400" type="line"/>
			<point x="460" y="-400" type="line"/>
			<point x="460" y="220" type="line"/>
		</contour>
	</outline>
</glyph>
<glyph name="rightdnheavyleftuplightbxd" format="1">
	<unicode hex="2546"/>
	<advance width="600"/>
	<outline>
		<contour>
			<point x="-80" y="220" type="line"/>
			<point x="140" y="220" type="line"/>
			<point x="140" y="-400" type="line"/>
			<point x="460" y="-400" type="line"/>
			<point x="460" y="140" type="line"/>
			<point x="680" y="140" type="line"/>
			<point x="680" y="460" type="line"/>
			<point x="380" y="460" type="line"/>
			<point x="380" y="1000" type="line"/>
			<point x="220" y="1000" type="line"/>
			<point x="220" y="460" type="line"/>
			<point x="140" y="460" type="line"/>
			<point x="140" y="380" type="line"/>
			<point x="-80" y="380" type="line"/>
		</contour>
	</outline>
</glyph>
<glyph name="heavydbldashvertbxd" format="1">
  <advance width="600"/>
  <unicode hex="254F"/>
  <outline>
    <contour>
      <point x="140" y="-75" type="line"/>
      <point x="460" y="-75" type="line"/>
      <point x="460" y="175" type="line"/>
      <point x="140" y="175" type="line"/>
    </contour>
    <contour>
      <point x="140" y="425" type="line"/>
      <point x="460" y="425" type="line"/>
      <point x="460" y="675" type="line"/>
      <point x="140" y="675" type="line"/>
    </contour>
  </outline>
</glyph>
<glyph name="vertdblleftsngbxd" format="1">
	<unicode hex="2562"/>
	<advance width="600"/>
	<outline>
		<contour>
			<point x="-80" y="220" type="line"/>
			<point x="60" y="220" type="line"/>
			<point x="60" y="-400" type="line"/>
			<point x="220" y="-400" type="line"/>
			<point x="220" y="1000" type="line"/>
			<point x="60" y="1000" type="line"/>
			<point x="60" y="380" type="line"/>
			<point x="-80" y="380" type="line"/>
		</contour>
		<contour>
			<point x="380" y="-400" type="line"/>
			<point x="540" y="-400" type="line"/>
			<point x="540" y="1000" type="line"/>
			<point x="380" y="1000" type="line"/>
		</contour>
	</outline>
</glyph>
<glyph name="lightdiaguprightdnleftbxd" format="1">
	<unicode hex="2571"/>
	<advance width="600"/>
	<outline>
		<contour>
			<point x="0" y="-121" type="line"/>
			<point x="0" y="-300" type="line"/>
			<point x="89" y="-300" type="line"/>
			<point x="600" y="721" type="line"/>
			<point x="600" y="900" type="line"/>
			<point x="511" y="900" type="line"/>
		</contour>
	</outline>
</glyph>
<glyph name="lightleftbxd" format="1">
  <advance width="600"/>
  <unicode hex="2574"/>
  <outline>
    <contour>
      <point x="-80" y="220" type="line"/>
      <point x="380" y="220" type="line"/>
      <point x="380" y="380" type="line"/>
      <point x="-80" y="380" type="line"/>
    </contour>
  </outline>
</glyph>
<glyph name="dnthreeeighthsblock" format="1">
	<unicode hex="2583"/>
	<advance width="600"/>
	<outline>
		<contour>
			<point x="0" y="-400" type="line"/>
			<point x="600" y="-400" type="line"/>
			<point x="600" y="125" type="line"/>
			<point x="0" y="125" type="line"/>
		</contour>
	</outline>
</glyph>
<glyph name="bulletsquare" format="1">
	<unicode hex="25AA"/>
	<advance width="600"/>
	<outline>
		<contour>
			<point x="145" y="110" type="line"/>
			<point x="455" y="110" type="line"/>
			<point x="455" y="414" type="line"/>
			<point x="145" y="414" type="line"/>
		</contour>
	</outline>
</glyph>
<glyph name="triangledownwhite" format="1">
  <advance width="600"/>
  <unicode hex="25BD"/>
  <outline>
    <contour>
      <point x="298" y="81" type="line"/>
      <point x="302" y="81" type="line"/>
      <point x="534" y="559" type="line"/>
      <point x="534" y="563" type="line"/>
      <point x="66" y="563" type="line"/>
      <point x="66" y="559" type="line"/>
    </contour>
    <contour>
      <point x="300" y="265" type="line"/>
      <point x="199" y="485" type="line"/>
      <point x="401" y="485" type="line"/>
    </contour>
  </outline>
</glyph>
<glyph name="trianglesmalldownblack" format="1">
  <advance width="600"/>
  <unicode hex="25BE"/>
  <outline>
    <contour>
      <point x="298" y="79" type="line"/>
      <point x="302" y="79" type="line"/>
      <point x="481" y="409" type="line"/>
      <point x="481" y="413" type="line"/>
      <point x="119" y="413" type="line"/>
      <point x="119" y="409" type="line"/>
    </contour>
  </outline>
</glyph>
<glyph name="trianglesmallleftblack" format="1">
  <advance width="600"/>
  <unicode hex="25C2"/>
  <outline>
    <contour>
      <point x="451" y="81" type="line"/>
      <point x="455" y="81" type="line"/>
      <point x="455" y="443" type="line"/>
      <point x="451" y="443" type="line"/>
      <point x="121" y="264" type="line"/>
      <point x="121" y="260" type="line"/>
    </contour>
  </outline>
</glyph>
<glyph name="invbullet" format="1">
	<unicode hex="25D8"/>
	<advance width="600"/>
	<outline>
		<contour>
			<point x="140" y="105" type="line"/>
			<point x="460" y="105" type="line"/>
			<point x="460" y="419" type="line"/>
			<point x="140" y="419" type="line"/>
		</contour>
		<contour>
			<point x="300" y="117" type="curve" smooth="yes"/>
			<point x="215" y="117"/>
			<point x="152" y="179"/>
			<point x="152" y="262" type="curve" smooth="yes"/>
			<point x="152" y="345"/>
			<point x="215" y="407"/>
			<point x="300" y="407" type="curve" smooth="yes"/>
			<point x="385" y="407"/>
			<point x="448" y="345"/>
			<point x="448" y="262" type="curve" smooth="yes"/>
			<point x="448" y="179"/>
			<point x="385" y="117"/>
		</contour>
	</outline>
</glyph>
<glyph name="uniE0A2" format="1">
  <advance width="600"/>
  <unicode hex="E0A2"/>
  <outline>
    <contour>
      <point x="580" y="-150" type="line"/>
      <point x="580" y="440" type="line"/>
      <point x="494" y="440" type="line"/>
      <point x="494" y="580" type="line" smooth="yes"/>
      <point x="494" y="705"/>
      <point x="423" y="776"/>
      <point x="300" y="776" type="curve" smooth="yes"/>
      <point x="177" y="776"/>
      <point x="106" y="705"/>
      <point x="106" y="580" type="curve"/>
      <point x="106" y="440" type="line"/>
      <point x="20" y="440" type="line"/>
      <point x="20" y="-150" type="line"/>
    </contour>
    <contour>
      <point x="250" y="-22" type="line"/>
      <point x="282" y="158" type="line"/>
      <point x="247" y="170"/>
      <point x="230" y="195"/>
      <point x="230" y="224" type="curve" smooth="yes"/>
      <point x="230" y="259"/>
      <point x="262" y="288"/>
      <point x="300" y="288" type="curve" smooth="yes"/>
      <point x="338" y="288"/>
      <point x="370" y="259"/>
      <point x="370" y="224" type="curve" smooth="yes"/>
      <point x="370" y="195"/>
      <point x="353" y="170"/>
      <point x="318" y="158" type="curve"/>
      <point x="350" y="-22" type="line"/>
    </contour>
    <contour>
      <point x="236" y="440" type="line"/>
      <point x="236" y="560" type="line" smooth="yes"/>
      <point x="236" y="616"/>
      <point x="257" y="650"/>
      <point x="300" y="650" type="curve" smooth="yes"/>
      <point x="343" y="650"/>
      <point x="364" y="616"/>
      <point x="364" y="560" type="curve" smooth="yes"/>
      <point x="364" y="440" type="line"/>
    </contour>
  </outline>
</glyph>
<glyph name="uniE0B3" format="1">
  <advance width="600"/>
  <unicode hex="E0B3"/>
  <outline>
    <contour>
      <point x="526" y="-212" type="line"/>
      <point x="620" y="-120" type="line"/>
      <point x="144" y="380" type="line"/>
      <point x="620" y="880" type="line"/>
      <point x="526" y="972" type="line"/>
      <point x="-30" y="380" type="line"/>
    </contour>
  </outline>
</glyph>
<glyph name="Bstroke" format="1">
  <advance width="600"/>
  <outline>
    <contour>
      <point x="23" y="0" type="line"/>
      <point x="252" y="0" type="line" smooth="yes"/>
      <point x="412" y="0"/>
      <point x="547" y="75"/>
      <point x="547" y="228" type="curve" smooth="yes"/>
      <point x="547" y="305"/>
      <point x="500" y="349"/>
      <point x="435" y="363" type="curve"/>
      <point x="436" y="367" type="line"/>
      <point x="529" y="389"/>
      <point x="574" y="455"/>
      <point x="574" y="523" type="curve" smooth="yes"/>
      <point x="574" y="619"/>
      <point x="494" y="651"/>
      <point x="372" y="651" type="curve" smooth="yes"/>
      <point x="153" y="651" type="line"/>
    </contour>
    <contour>
      <point x="-17" y="174" type="line"/>
      <point x="315" y="174" type="line"/>
      <point x="330" y="249" type="line"/>
      <point x="74" y="249" type="line"/>
      <point x="-3" y="243" type="line"/>
    </contour>
    <contour>
      <point x="203" y="113" type="line"/>
      <point x="242" y="307" type="line"/>
      <point x="301" y="307" type="line" smooth="yes"/>
      <point x="365" y="307"/>
      <point x="398" y="285"/>
      <point x="398" y="235" type="curve" smooth="yes"/>
      <point x="398" y="160"/>
      <point x="351" y="113"/>
      <point x="262" y="113" type="curve" smooth="yes"/>
    </contour>
    <contour>
      <point x="261" y="400" type="line"/>
      <point x="288" y="538" type="line"/>
      <point x="335" y="538" type="line" smooth="yes"/>
      <point x="390" y="538"/>
      <point x="417" y="523"/>
      <point x="417" y="488" type="curve" smooth="yes"/>
      <point x="417" y="435"/>
      <point x="383" y="400"/>
      <point x="307" y="400" type="curve" smooth="yes"/>
    </contour>
  </outline>
</glyph>
<glyph name="Germandbls" format="1">
  <advance width="600"/>
  <outline>
    <contour>
      <point x="344" y="-12" type="curve" smooth="yes"/>
      <point x="470" y="-12"/>
      <point x="552" y="66"/>
      <point x="552" y="182" type="curve" smooth="yes"/>
      <point x="552" y="278"/>
      <point x="478" y="331"/>
      <point x="434" y="350" type="curve"/>
      <point x="435" y="319" type="line"/>
      <point x="566" y="487" type="line"/>
      <point x="548" y="602"/>
      <point x="466" y="662"/>
      <point x="362" y="662" type="curve" smooth="yes"/>
      <point x="204" y="662"/>
      <point x="116" y="582"/>
      <point x="88" y="444" type="curve" smooth="yes"/>
      <point x="-2" y="0" type="line"/>
      <point x="158" y="0" type="line"/>
      <point x="242" y="420" type="line" smooth="yes"/>
      <point x="258" y="498"/>
      <point x="295" y="536"/>
      <point x="355" y="536" type="curve" smooth="yes"/>
      <point x="395" y="536"/>
      <point x="424" y="510"/>
      <point x="428" y="481" type="curve"/>
      <point x="442" y="532" type="line"/>
      <point x="308" y="360" type="line"/>
      <point x="300" y="270" type="line"/>
      <point x="358" y="254"/>
      <point x="394" y="228"/>
      <point x="394" y="180" type="curve" smooth="yes"/>
      <point x="394" y="142"/>
      <point x="368" y="118"/>
      <point x="332" y="118" type="curve" smooth="yes"/>
      <point x="306" y="118"/>
      <point x="286" y="130"/>
      <point x="268" y="150" type="curve"/>
      <point x="197" y="50" type="line"/>
      <point x="221" y="22"/>
      <point x="275" y="-12"/>
    </contour>
  </outline>
</glyph>
<glyph name="Ghook" format="1">
  <advance width="600"/>
  <outline>
    <contour>
      <point x="572" y="566" type="line"/>
      <point x="563" y="589"/>
      <point x="551" y="617"/>
      <point x="553" y="647" type="curve" smooth="yes"/>
      <point x="556" y="682"/>
      <point x="580" y="697"/>
      <point x="610" y="695" type="curve" smooth="yes"/>
      <point x="620" y="694"/>
      <point x="625" y="691"/>
      <point x="635" y="686" type="curve"/>
      <point x="684" y="795" type="line"/>
      <point x="664" y="806"/>
      <point x="641" y="816"/>
      <point x="598" y="820" type="curve" smooth="yes"/>
      <point x="499" y="829"/>
      <point x="431" y="758"/>
      <point x="424" y="680" type="curve" smooth="yes"/>
      <point x="422" y="648"/>
      <point x="429" y="606"/>
      <point x="434" y="573" type="curve"/>
    </contour>
    <component base="G"/>
  </outline>
</glyph>
<glyph name="Gsmall" format="1">
  <advance width="600"/>
  <outline>
    <contour>
      <point x="360" y="522" type="move" name="aboveUC"/>
    </contour>
    <contour>
      <point x="270" y="-22" type="move" name="belowLC"/>
    </contour>
    <contour>
      <point x="282" y="-12" type="curve" smooth="yes"/>
      <point x="364" y="-12"/>
      <point x="440" y="13"/>
      <point x="484" y="46" type="curve"/>
      <point x="536" y="304" type="line"/>
      <point x="324" y="304" type="line"/>
      <point x="304" y="204" type="line"/>
      <point x="375" y="204" type="line"/>
      <point x="361" y="120" type="line"/>
      <point x="348" y="113"/>
      <point x="317" y="110"/>
      <point x="300" y="110" type="curve" smooth="yes"/>
      <point x="253" y="110"/>
      <point x="204" y="134"/>
      <point x="204" y="220" type="curve" smooth="yes"/>
      <point x="204" y="303"/>
      <point x="266" y="390"/>
      <point x="348" y="390" type="curve" smooth="yes"/>
      <point x="393" y="390"/>
      <point x="433" y="367"/>
      <point x="459" y="342" type="curve"/>
      <point x="548" y="440" type="line"/>
      <point x="511" y="479"/>
      <point x="450" y="512"/>
      <point x="363" y="512" type="curve" smooth="yes"/>
      <point x="160" y="512"/>
      <point x="42" y="363"/>
      <point x="42" y="206" type="curve" smooth="yes"/>
      <point x="41" y="62"/>
      <point x="162" y="-12"/>
    </contour>
  </outline>
</glyph>
<glyph name="I" format="1">
  <advance width="600"/>
  <outline>
    <contour>
      <point x="8" y="0" type="line"/>
      <point x="466" y="0" type="line"/>
      <point x="494" y="134" type="line"/>
      <point x="344" y="134" type="line"/>
      <point x="422" y="516" type="line"/>
      <point x="570" y="516" type="line"/>
      <point x="598" y="650" type="line"/>
      <point x="140" y="650" type="line"/>
      <point x="112" y="516" type="line"/>
      <point x="262" y="516" type="line"/>
      <point x="184" y="134" type="line"/>
      <point x="36" y="134" type="line"/>
    </contour>
    <contour>
      <point x="370" y="670" type="move" name="aboveUC"/>
    </contour>
    <contour>
      <point x="238" y="0" type="move" name="ogonekUC"/>
    </contour>
    <contour>
      <point x="238" y="0" type="move" name="baseLC"/>
    </contour>
    <contour>
      <point x="234" y="-20" type="move" name="belowLC"/>
    </contour>
  </outline>
</glyph>
<glyph name="Ismall" format="1">
  <advance width="600"/>
  <outline>
    <contour>
      <point x="345" y="522" type="move" name="aboveLC"/>
    </contour>
    <contour>
      <point x="236" y="-22" type="move" name="belowLC"/>
    </contour>
    <contour>
      <point x="22" y="0" type="line"/>
      <point x="462" y="0" type="line"/>
      <point x="488" y="134" type="line"/>
      <point x="350" y="134" type="line"/>
      <point x="396" y="366" type="line"/>
      <point x="534" y="366" type="line"/>
      <point x="560" y="500" type="line"/>
      <point x="120" y="500" type="line"/>
      <point x="94" y="366" type="line"/>
      <point x="230" y="366" type="line"/>
      <point x="184" y="134" type="line"/>
      <point x="48" y="134" type="line"/>
    </contour>
  </outline>
</glyph>
<glyph name="Lslash" format="1">
  <advance width="600"/>
  <outline>
    <contour>
      <point x="33" y="164" type="line"/>
      <point x="133" y="214" type="line"/>
      <point x="250" y="268" type="line"/>
      <point x="515" y="400" type="line"/>
      <point x="477" y="502" type="line"/>
      <point x="276" y="400" type="line"/>
      <point x="158" y="346" type="line"/>
      <point x="-5" y="266" type="line"/>
    </contour>
    <component base="L"/>
    <contour>
      <point x="266" y="670" type="move" name="aboveUC"/>
    </contour>
    <contour>
      <point x="280" y="-20" type="move" name="belowLC"/>
    </contour>
  </outline>
</glyph>
<glyph name="Lsmall" format="1">
  <advance width="600"/>
  <outline>
    <contour>
      <point x="244" y="522" type="move" name="aboveUC"/>
    </contour>
    <contour>
      <point x="284" y="-22" type="move" name="belowLC"/>
    </contour>
    <contour>
      <point x="66" y="0" type="line"/>
      <point x="482" y="0" type="line"/>
      <point x="508" y="124" type="line"/>
      <point x="250" y="124" type="line"/>
      <point x="324" y="500" type="line"/>
      <point x="164" y="500" type="line"/>
    </contour>
  </outline>
</glyph>
<glyph name="Omega.math" format="1">
  <advance width="600"/>
  <outline>
    <contour>
      <point x="-40" y="0" type="line"/>
      <point x="200" y="0" type="line"/>
      <point x="222" y="114" type="line"/>
      <point x="196" y="154"/>
      <point x="186" y="211"/>
      <point x="186" y="277" type="curve" smooth="yes"/>
      <point x="186" y="413"/>
      <point x="251" y="527"/>
      <point x="346" y="527" type="curve" smooth="yes"/>
      <point x="402" y="527"/>
      <point x="429" y="475"/>
      <point x="429" y="400" type="curve" smooth="yes"/>
      <point x="429" y="247"/>
      <point x="370" y="177"/>
      <point x="305" y="114" type="curve"/>
      <point x="283" y="0" type="line"/>
      <point x="531" y="0" type="line"/>
      <point x="556" y="127" type="line"/>
      <point x="458" y="127" type="line"/>
      <point x="459" y="131" type="line"/>
      <point x="517" y="182"/>
      <point x="595" y="275"/>
      <point x="595" y="424" type="curve" smooth="yes"/>
      <point x="595" y="566"/>
      <point x="514" y="663"/>
      <point x="373" y="663" type="curve" smooth="yes"/>
      <point x="177" y="663"/>
      <point x="31" y="505"/>
      <point x="31" y="313" type="curve" smooth="yes"/>
      <point x="31" y="232"/>
      <point x="60" y="164"/>
      <point x="86" y="131" type="curve"/>
      <point x="85" y="127" type="line"/>
      <point x="-15" y="127" type="line"/>
    </contour>
  </outline>
</glyph>
<glyph name="Oogonek" format="1">
  <advance width="600"/>
  <outline>
    <contour>
      <point x="216" y="-228" type="curve" smooth="yes"/>
      <point x="254" y="-228"/>
      <point x="304" y="-216"/>
      <point x="336" y="-194" type="curve"/>
      <point x="306" y="-118" type="line"/>
      <point x="294" y="-124"/>
      <point x="286" y="-126"/>
      <point x="276" y="-126" type="curve" smooth="yes"/>
      <point x="254" y="-126"/>
      <point x="236" y="-114"/>
      <point x="236" y="-94" type="curve" smooth="yes"/>
      <point x="236" y="-70"/>
      <point x="258" y="-22"/>
      <point x="314" y="-8" type="curve" smooth="yes"/>
      <point x="486" y="34"/>
      <point x="580" y="212"/>
      <point x="580" y="394" type="curve" smooth="yes"/>
      <point x="580" y="562"/>
      <point x="493" y="662"/>
      <point x="358" y="662" type="curve" smooth="yes"/>
      <point x="165" y="662"/>
      <point x="26" y="486"/>
      <point x="26" y="256" type="curve" smooth="yes"/>
      <point x="26" y="106"/>
      <point x="92" y="18"/>
      <point x="202" y="-10" type="curve"/>
      <point x="162" y="-38"/>
      <point x="112" y="-88"/>
      <point x="112" y="-146" type="curve" smooth="yes"/>
      <point x="112" y="-198"/>
      <point x="154" y="-228"/>
    </contour>
    <contour>
      <point x="266" y="122" type="curve" smooth="yes"/>
      <point x="214" y="122"/>
      <point x="190" y="156"/>
      <point x="190" y="240" type="curve" smooth="yes"/>
      <point x="190" y="404"/>
      <point x="256" y="524"/>
      <point x="342" y="524" type="curve" smooth="yes"/>
      <point x="393" y="524"/>
      <point x="416" y="490"/>
      <point x="416" y="410" type="curve" smooth="yes"/>
      <point x="416" y="240"/>
      <point x="352" y="122"/>
    </contour>
    <contour>
      <point x="370" y="670" type="move" name="aboveUC"/>
    </contour>
  </outline>
</glyph>
<glyph name="S" format="1">
  <advance width="600"/>
  <outline>
    <contour>
      <point x="269" y="-12" type="curve" smooth="yes"/>
      <point x="403" y="-12"/>
      <point x="512" y="57"/>
      <point x="512" y="190" type="curve"/>
      <point x="512" y="281"/>
      <point x="462" y="326"/>
      <point x="398" y="368" type="curve" smooth="yes"/>
      <point x="331" y="412" type="line" smooth="yes"/>
      <point x="298" y="433"/>
      <point x="275" y="451"/>
      <point x="275" y="478" type="curve" smooth="yes"/>
      <point x="275" y="513"/>
      <point x="305" y="527"/>
      <point x="340" y="527" type="curve" smooth="yes"/>
      <point x="393" y="527"/>
      <point x="434" y="497"/>
      <point x="464" y="462" type="curve"/>
      <point x="565" y="549" type="line"/>
      <point x="519" y="614"/>
      <point x="435" y="662"/>
      <point x="340" y="662" type="curve" smooth="yes"/>
      <point x="212" y="662"/>
      <point x="110" y="588"/>
      <point x="110" y="467" type="curve" smooth="yes"/>
      <point x="110" y="380"/>
      <point x="160" y="324"/>
      <point x="220" y="288" type="curve" smooth="yes"/>
      <point x="275" y="255" type="line" smooth="yes"/>
      <point x="320" y="228"/>
      <point x="348" y="211"/>
      <point x="348" y="178" type="curve" smooth="yes"/>
      <point x="348" y="143"/>
      <point x="315" y="125"/>
      <point x="264" y="125" type="curve" smooth="yes"/>
      <point x="207" y="125"/>
      <point x="158" y="155"/>
      <point x="122" y="210" type="curve"/>
      <point x="19" y="119" type="line"/>
      <point x="65" y="45"/>
      <point x="147" y="-12"/>
    </contour>
    <contour>
      <point x="354" y="670" type="move" name="aboveUC"/>
    </contour>
    <contour>
      <point x="260" y="0" type="move" name="baseLC"/>
    </contour>
    <contour>
      <point x="260" y="-20" type="move" name="belowLC"/>
    </contour>
  </outline>
</glyph>
<glyph name="Schwa" format="1">
  <advance width="600"/>
  <outline>
    <contour>
      <point x="260" y="672" type="move" name="aboveUC"/>
    </contour>
    <contour>
      <point x="272" y="-22" type="move" name="belowLC"/>
    </contour>
    <contour>
      <point x="236" y="-12" type="curve" smooth="yes"/>
      <point x="428" y="-12"/>
      <point x="569" y="162"/>
      <point x="569" y="416" type="curve" smooth="yes"/>
      <point x="569" y="571"/>
      <point x="495" y="663"/>
      <point x="358" y="663" type="curve" smooth="yes"/>
      <point x="262" y="663"/>
      <point x="182" y="630"/>
      <point x="129" y="593" type="curve"/>
      <point x="192" y="484" type="line"/>
      <point x="227" y="506"/>
      <point x="269" y="529"/>
      <point x="323" y="529" type="curve" smooth="yes"/>
      <point x="381" y="529"/>
      <point x="412" y="485"/>
      <point x="412" y="403" type="curve" smooth="yes"/>
      <point x="412" y="228"/>
      <point x="342" y="118"/>
      <point x="260" y="118" type="curve" smooth="yes"/>
      <point x="214" y="118"/>
      <point x="183" y="162"/>
      <point x="197" y="260" type="curve"/>
      <point x="428" y="260" type="line"/>
      <point x="451" y="375" type="line"/>
      <point x="64" y="375" type="line"/>
      <point x="55" y="346"/>
      <point x="40" y="293"/>
      <point x="40" y="225" type="curve" smooth="yes"/>
      <point x="40" y="79"/>
      <point x="114" y="-12"/>
    </contour>
  </outline>
</glyph>
<glyph name=".notdef" format="1">
  <advance width="600"/>
  <outline>
    <contour>
      <point x="30" y="0" type="line"/>
      <point x="570" y="0" type="line"/>
      <point x="570" y="660" type="line"/>
      <point x="30" y="660" type="line"/>
    </contour>
    <contour>
      <point x="226" y="97" type="line"/>
      <point x="259" y="165" type="line"/>
      <point x="298" y="262" type="line"/>
      <point x="302" y="262" type="line"/>
      <point x="341" y="165" type="line"/>
      <point x="374" y="97" type="line"/>
    </contour>
    <contour>
      <point x="298" y="418" type="line"/>
      <point x="256" y="514" type="line"/>
      <point x="231" y="563" type="line"/>
      <point x="369" y="563" type="line"/>
      <point x="343" y="514" type="line"/>
      <point x="302" y="418" type="line"/>
    </contour>
    <contour>
      <point x="135" y="162" type="line"/>
      <point x="135" y="518" type="line"/>
      <point x="224" y="340" type="line"/>
    </contour>
    <contour>
      <point x="376" y="340" type="line"/>
      <point x="465" y="518" type="line"/>
      <point x="465" y="162" type="line"/>
    </contour>
  </outline>
</glyph>
<glyph name="a.alt" format="1">
  <advance width="600"/>
  <outline>
    <contour>
      <point x="160" y="-12" type="curve" smooth="yes"/>
      <point x="228" y="-12"/>
      <point x="288" y="14"/>
      <point x="338" y="62" type="curve"/>
      <point x="342" y="62" type="line"/>
      <point x="342" y="0" type="line"/>
      <point x="472" y="0" type="line"/>
      <point x="526" y="276" type="line" smooth="yes"/>
      <point x="532" y="306"/>
      <point x="534" y="326"/>
      <point x="534" y="348" type="curve" smooth="yes"/>
      <point x="534" y="460"/>
      <point x="454" y="512"/>
      <point x="345" y="512" type="curve" smooth="yes"/>
      <point x="254" y="512"/>
      <point x="176" y="492"/>
      <point x="96" y="456" type="curve"/>
      <point x="142" y="346" type="line"/>
      <point x="214" y="376"/>
      <point x="255" y="388"/>
      <point x="303" y="388" type="curve" smooth="yes"/>
      <point x="358" y="388"/>
      <point x="378" y="368"/>
      <point x="378" y="336" type="curve" smooth="yes"/>
      <point x="378" y="334"/>
      <point x="378" y="330"/>
      <point x="376" y="320" type="curve"/>
      <point x="126" y="312"/>
      <point x="22" y="236"/>
      <point x="22" y="112" type="curve" smooth="yes"/>
      <point x="22" y="38"/>
      <point x="80" y="-12"/>
    </contour>
    <contour>
      <point x="224" y="110" type="curve" smooth="yes"/>
      <point x="193" y="110"/>
      <point x="178" y="122"/>
      <point x="178" y="146" type="curve" smooth="yes"/>
      <point x="178" y="184"/>
      <point x="226" y="224"/>
      <point x="360" y="232" type="curve"/>
      <point x="350" y="170" type="line"/>
      <point x="316" y="130"/>
      <point x="260" y="110"/>
    </contour>
    <contour>
      <point x="364" y="0" type="move" name="ogonekLC"/>
    </contour>
    <contour>
      <point x="330" y="520" type="move" name="aboveLC"/>
    </contour>
    <contour>
      <point x="408" y="0" type="move" name="baseLC"/>
    </contour>
    <contour>
      <point x="240" y="-20" type="move" name="belowLC"/>
    </contour>
  </outline>
</glyph>
<glyph name="aringacute.a" format="1">
  <advance width="600"/>
  <outline>
    <contour>
      <point x="328" y="720" type="line"/>
      <point x="509" y="830" type="line"/>
      <point x="440" y="896" type="line"/>
      <point x="282" y="754" type="line"/>
    </contour>
    <component base="aring.a"/>
  </outline>
</glyph>
<glyph name="aspercmb" format="1">
  <advance width="600"/>
  <outline>
    <contour>
      <point x="409" y="566" type="curve"/>
      <point x="434" y="632" type="line"/>
      <point x="413" y="635"/>
      <point x="397" y="642"/>
      <point x="401" y="662" type="curve" smooth="yes"/>
      <point x="406" y="684"/>
      <point x="428" y="698"/>
      <point x="484" y="702" type="curve"/>
      <point x="494" y="796" type="line"/>
      <point x="353" y="792"/>
      <point x="299" y="743"/>
      <point x="285" y="674" type="curve" smooth="yes"/>
      <point x="270" y="602"/>
      <point x="331" y="570"/>
    </contour>
    <contour>
      <point x="340" y="520" type="move" name="_aboveLC"/>
    </contour>
  </outline>
</glyph>
<glyph name="bracketleft" format="1">
  <advance width="600"/>
  <outline>
    <contour>
      <point x="102" y="-152" type="line"/>
      <point x="400" y="-152" type="line"/>
      <point x="416" y="-68" type="line"/>
      <point x="238" y="-68" type="line"/>
      <point x="378" y="624" type="line"/>
      <point x="558" y="624" type="line"/>
      <point x="574" y="708" type="line"/>
      <point x="276" y="708" type="line"/>
    </contour>
  </outline>
</glyph>
<glyph name="brackhalftopright" format="1">
  <advance width="600"/>
  <outline>
    <contour>
      <point x="280" y="278" type="line"/>
      <point x="400" y="278" type="line"/>
      <point x="486" y="708" type="line"/>
      <point x="188" y="708" type="line"/>
      <point x="172" y="624" type="line"/>
      <point x="350" y="624" type="line"/>
    </contour>
  </outline>
</glyph>
<glyph name="brevecmb.cyrcap" format="1">
	<advance width="600"/>
	<outline>
		<contour>
			<point x="376" y="697" type="curve" smooth="yes"/>
			<point x="493" y="697"/>
			<point x="555" y="759"/>
			<point x="573" y="831" type="curve"/>
			<point x="448" y="831" type="line"/>
			<point x="438" y="794"/>
			<point x="418" y="775"/>
			<point x="392" y="775" type="curve" smooth="yes"/>
			<point x="366" y="775"/>
			<point x="353" y="794"/>
			<point x="358" y="831" type="curve"/>
			<point x="233" y="831" type="line"/>
			<point x="222" y="759"/>
			<point x="259" y="697"/>
		</contour>
		<contour>
			<point name="_aboveUC" x="370" y="670" type="move"/>
		</contour>
	</outline>
</glyph>
<glyph name="brevecmb" format="1">
  <advance width="600"/>
  <outline>
    <contour>
      <point x="354" y="572" type="curve" smooth="yes"/>
      <point x="472" y="572"/>
      <point x="538" y="638"/>
      <point x="556" y="732" type="curve"/>
      <point x="464" y="748" type="line"/>
      <point x="450" y="708"/>
      <point x="422" y="678"/>
      <point x="374" y="678" type="curve" smooth="yes"/>
      <point x="326" y="678"/>
      <point x="306" y="708"/>
      <point x="308" y="748" type="curve"/>
      <point x="208" y="732" type="line"/>
      <point x="194" y="638"/>
      <point x="237" y="572"/>
    </contour>
    <contour>
      <point x="340" y="520" type="move" name="_aboveLC"/>
    </contour>
    <contour>
      <point x="300" y="520" type="move" name="aboveLC"/>
    </contour>
  </outline>
</glyph>
<glyph name="brevegravecmb" format="1">
  <advance width="600"/>
  <outline>
    <contour>
      <point x="352" y="572" type="curve" smooth="yes"/>
      <point x="470" y="572"/>
      <point x="536" y="638"/>
      <point x="554" y="732" type="curve"/>
      <point x="472" y="748" type="line"/>
      <point x="457" y="702"/>
      <point x="424" y="668"/>
      <point x="370" y="668" type="curve" smooth="yes"/>
      <point x="316" y="668"/>
      <point x="295" y="702"/>
      <point x="296" y="748" type="curve"/>
      <point x="206" y="732" type="line"/>
      <point x="192" y="638"/>
      <point x="235" y="572"/>
    </contour>
    <contour>
      <point x="366" y="705" type="line"/>
      <point x="449" y="748" type="line"/>
      <point x="380" y="903" type="line"/>
      <point x="267" y="838" type="line"/>
    </contour>
    <contour>
      <point x="340" y="520" type="move" name="_aboveLC"/>
    </contour>
  </outline>
</glyph>
<glyph name="brevehoi" format="1">
  <advance width="600"/>
  <outline>
    <contour>
      <point x="352" y="572" type="curve" smooth="yes"/>
      <point x="470" y="572"/>
      <point x="537" y="638"/>
      <point x="557" y="732" type="curve"/>
      <point x="474" y="748" type="line"/>
      <point x="458" y="702"/>
      <point x="424" y="668"/>
      <point x="370" y="668" type="curve" smooth="yes"/>
      <point x="316" y="668"/>
      <point x="296" y="702"/>
      <point x="298" y="748" type="curve"/>
      <point x="209" y="732" type="line"/>
      <point x="193" y="638"/>
      <point x="235" y="572"/>
    </contour>
    <contour>
      <point x="339" y="703" type="line"/>
      <point x="411" y="711"/>
      <point x="471" y="731"/>
      <point x="484" y="801" type="curve" smooth="yes"/>
      <point x="495" y="859"/>
      <point x="467" y="900"/>
      <point x="346" y="904" type="curve"/>
      <point x="313" y="813" type="line"/>
      <point x="363" y="809"/>
      <point x="374" y="799"/>
      <point x="371" y="783" type="curve" smooth="yes"/>
      <point x="368" y="767"/>
      <point x="357" y="762"/>
      <point x="340" y="759" type="curve"/>
    </contour>
    <contour>
      <point x="340" y="520" type="move" name="_aboveLC"/>
    </contour>
  </outline>
</glyph>
<glyph name="brevehoicmb.cap" format="1">
  <advance width="600"/>
  <outline>
    <contour>
      <point x="376" y="694" type="curve" smooth="yes"/>
      <point x="478" y="694"/>
      <point x="545" y="738"/>
      <point x="573" y="834" type="curve"/>
      <point x="494" y="850" type="line"/>
      <point x="475" y="804"/>
      <point x="438" y="782"/>
      <point x="393" y="782" type="curve" smooth="yes"/>
      <point x="348" y="782"/>
      <point x="320" y="804"/>
      <point x="318" y="850" type="curve"/>
      <point x="233" y="834" type="line"/>
      <point x="225" y="738"/>
      <point x="274" y="694"/>
    </contour>
    <contour>
      <point x="362" y="808" type="line"/>
      <point x="434" y="812"/>
      <point x="492" y="836"/>
      <point x="504" y="898" type="curve" smooth="yes"/>
      <point x="512" y="942"/>
      <point x="485" y="978"/>
      <point x="364" y="982" type="curve"/>
      <point x="335" y="914" type="line"/>
      <point x="385" y="910"/>
      <point x="396" y="900"/>
      <point x="393" y="884" type="curve" smooth="yes"/>
      <point x="390" y="868"/>
      <point x="377" y="863"/>
      <point x="360" y="860" type="curve"/>
    </contour>
    <contour>
      <point x="370" y="670" type="move" name="_aboveUC"/>
    </contour>
  </outline>
</glyph>
<glyph name="breveinvertedcmb.cap" format="1">
  <advance width="600"/>
  <outline>
    <contour>
      <point x="298" y="690" type="line"/>
      <point x="317" y="735"/>
      <point x="348" y="758"/>
      <point x="390" y="758" type="curve" smooth="yes"/>
      <point x="432" y="758"/>
      <point x="461" y="736"/>
      <point x="462" y="690" type="curve"/>
      <point x="558" y="706" type="line"/>
      <point x="564" y="809"/>
      <point x="513" y="856"/>
      <point x="408" y="856" type="curve" smooth="yes"/>
      <point x="304" y="856"/>
      <point x="238" y="808"/>
      <point x="210" y="706" type="curve"/>
    </contour>
    <contour>
      <point x="370" y="670" type="move" name="_aboveUC"/>
    </contour>
  </outline>
</glyph>
<glyph name="candrabinducmb.cap" format="1">
  <advance width="600"/>
  <outline>
    <contour>
      <point x="376" y="694" type="curve" smooth="yes"/>
      <point x="488" y="694"/>
      <point x="564" y="738"/>
      <point x="596" y="834" type="curve"/>
      <point x="514" y="850" type="line"/>
      <point x="490" y="802"/>
      <point x="445" y="782"/>
      <point x="393" y="782" type="curve" smooth="yes"/>
      <point x="346" y="782"/>
      <point x="306" y="802"/>
      <point x="300" y="850" type="curve"/>
      <point x="216" y="834" type="line"/>
      <point x="212" y="738"/>
      <point x="272" y="694"/>
    </contour>
    <contour>
      <point x="404" y="816" type="curve" smooth="yes"/>
      <point x="454" y="816"/>
      <point x="500" y="860"/>
      <point x="500" y="912" type="curve" smooth="yes"/>
      <point x="500" y="958"/>
      <point x="466" y="978"/>
      <point x="428" y="978" type="curve" smooth="yes"/>
      <point x="378" y="978"/>
      <point x="332" y="934"/>
      <point x="332" y="882" type="curve" smooth="yes"/>
      <point x="332" y="836"/>
      <point x="366" y="816"/>
    </contour>
    <contour>
      <point x="370" y="670" type="move" name="_aboveUC"/>
    </contour>
  </outline>
</glyph>
<glyph name="caronbelowcmb" format="1">
  <advance width="600"/>
  <outline>
    <component base="caroncmb" xOffset="-160" yOffset="-804"/>
    <contour>
      <point x="234" y="-20" type="move" name="_belowLC"/>
    </contour>
  </outline>
</glyph>
<glyph name="ccurl" format="1">
  <advance width="600"/>
  <outline>
    <contour>
      <point x="397" y="522" type="move" name="aboveLC"/>
    </contour>
    <contour>
      <point x="136" y="-74" type="line"/>
      <point x="216" y="91"/>
      <point x="308" y="184"/>
      <point x="388" y="184" type="curve" smooth="yes"/>
      <point x="414" y="184"/>
      <point x="424" y="174"/>
      <point x="424" y="162" type="curve" smooth="yes"/>
      <point x="424" y="140"/>
      <point x="394" y="118"/>
      <point x="344" y="118" type="curve" smooth="yes"/>
      <point x="282" y="118"/>
      <point x="220" y="150"/>
      <point x="220" y="220" type="curve" smooth="yes"/>
      <point x="220" y="312"/>
      <point x="286" y="382"/>
      <point x="354" y="382" type="curve" smooth="yes"/>
      <point x="392" y="382"/>
      <point x="430" y="366"/>
      <point x="462" y="332" type="curve"/>
      <point x="558" y="420" type="line"/>
      <point x="522" y="466"/>
      <point x="454" y="512"/>
      <point x="364" y="512" type="curve" smooth="yes"/>
      <point x="200" y="512"/>
      <point x="58" y="390"/>
      <point x="58" y="206" type="curve" smooth="yes"/>
      <point x="58" y="60"/>
      <point x="190" y="-12"/>
      <point x="316" y="-12" type="curve" smooth="yes"/>
      <point x="460" y="-12"/>
      <point x="548" y="76"/>
      <point x="548" y="182" type="curve" smooth="yes"/>
      <point x="548" y="252"/>
      <point x="500" y="296"/>
      <point x="414" y="296" type="curve" smooth="yes"/>
      <point x="282" y="296"/>
      <point x="142" y="198"/>
      <point x="20" y="-16" type="curve"/>
    </contour>
  </outline>
</glyph>
<glyph name="cedi" format="1">
  <advance width="600"/>
  <outline>
    <contour>
      <point x="297" y="-12" type="curve" smooth="yes"/>
      <point x="385" y="-12"/>
      <point x="465" y="16"/>
      <point x="531" y="75" type="curve"/>
      <point x="460" y="177" type="line"/>
      <point x="423" y="147"/>
      <point x="380" y="121"/>
      <point x="329" y="121" type="curve" smooth="yes"/>
      <point x="272" y="121"/>
      <point x="234" y="160"/>
      <point x="234" y="250" type="curve" smooth="yes"/>
      <point x="234" y="390"/>
      <point x="309" y="521"/>
      <point x="409" y="521" type="curve" smooth="yes"/>
      <point x="455" y="521"/>
      <point x="482" y="500"/>
      <point x="504" y="470" type="curve"/>
      <point x="603" y="552" type="line"/>
      <point x="567" y="604"/>
      <point x="516" y="647"/>
      <point x="426" y="647" type="curve" smooth="yes"/>
      <point x="230" y="647"/>
      <point x="72" y="498"/>
      <point x="72" y="237" type="curve" smooth="yes"/>
      <point x="72" y="75"/>
      <point x="168" y="-12"/>
    </contour>
    <contour>
      <point x="230" y="-110" type="line"/>
      <point x="316" y="-110" type="line"/>
      <point x="485" y="734" type="line"/>
      <point x="399" y="734" type="line"/>
    </contour>
  </outline>
</glyph>
<glyph name="cent" format="1">
  <advance width="600"/>
  <outline>
    <contour>
      <point x="287" y="46" type="curve" smooth="yes"/>
      <point x="365" y="46"/>
      <point x="437" y="77"/>
      <point x="490" y="125" type="curve"/>
      <point x="433" y="223" type="line"/>
      <point x="404" y="201"/>
      <point x="373" y="177"/>
      <point x="322" y="177" type="curve" smooth="yes"/>
      <point x="269" y="177"/>
      <point x="234" y="209"/>
      <point x="234" y="273" type="curve" smooth="yes"/>
      <point x="234" y="365"/>
      <point x="295" y="438"/>
      <point x="383" y="438" type="curve" smooth="yes"/>
      <point x="427" y="438"/>
      <point x="446" y="419"/>
      <point x="468" y="398" type="curve"/>
      <point x="556" y="488" type="line"/>
      <point x="527" y="525"/>
      <point x="471" y="565"/>
      <point x="401" y="565" type="curve" smooth="yes"/>
      <point x="220" y="565"/>
      <point x="77" y="451"/>
      <point x="77" y="259" type="curve" smooth="yes"/>
      <point x="77" y="128"/>
      <point x="163" y="46"/>
    </contour>
    <contour>
      <point x="226" y="-52" type="line"/>
      <point x="312" y="-52" type="line"/>
      <point x="457" y="656" type="line"/>
      <point x="372" y="656" type="line"/>
    </contour>
  </outline>
</glyph>
<glyph name="checkbox" format="1">
  <advance width="600"/>
  <outline>
    <contour>
      <point x="-29" y="-10" type="line"/>
      <point x="562" y="-10" type="line"/>
      <point x="629" y="68" type="line"/>
      <point x="629" y="675" type="line"/>
      <point x="48" y="675" type="line"/>
      <point x="-29" y="608" type="line"/>
    </contour>
    <contour>
      <point x="32" y="51" type="line"/>
      <point x="32" y="584" type="line"/>
      <point x="538" y="584" type="line"/>
      <point x="538" y="51" type="line"/>
    </contour>
  </outline>
</glyph>
<glyph name="checkedbox" format="1">
  <advance width="600"/>
  <outline>
    <contour>
      <point x="-90" y="-10" type="line"/>
      <point x="503" y="-10" type="line"/>
      <point x="570" y="67" type="line"/>
      <point x="570" y="675" type="line"/>
      <point x="-13" y="675" type="line"/>
      <point x="-90" y="608" type="line"/>
    </contour>
    <contour>
      <point x="-30" y="51" type="line"/>
      <point x="-30" y="584" type="line"/>
      <point x="479" y="584" type="line"/>
      <point x="479" y="51" type="line"/>
    </contour>
    <contour>
      <point x="161" y="109" type="curve"/>
      <point x="308" y="126" type="line"/>
      <point x="387" y="415"/>
      <point x="519" y="610"/>
      <point x="646" y="732" type="curve"/>
      <point x="550" y="816" type="line"/>
      <point x="421" y="681"/>
      <point x="296" y="464"/>
      <point x="226" y="226" type="curve"/>
      <point x="222" y="226" type="line"/>
      <point x="195" y="300"/>
      <point x="166" y="372"/>
      <point x="121" y="445" type="curve"/>
      <point x="21" y="380" type="line"/>
      <point x="83" y="288"/>
      <point x="124" y="211"/>
    </contour>
  </outline>
</glyph>
<glyph name="circledotted" format="1">
  <advance width="600"/>
  <outline>
    <contour>
      <point x="288" y="-13" type="curve" smooth="yes"/>
      <point x="315" y="-13"/>
      <point x="333" y="4"/>
      <point x="333" y="34" type="curve" smooth="yes"/>
      <point x="333" y="62"/>
      <point x="314" y="78"/>
      <point x="288" y="78" type="curve" smooth="yes"/>
      <point x="265" y="78"/>
      <point x="245" y="62"/>
      <point x="245" y="34" type="curve" smooth="yes"/>
      <point x="245" y="4"/>
      <point x="265" y="-13"/>
    </contour>
    <contour>
      <point x="183" y="14" type="curve" smooth="yes"/>
      <point x="209" y="14"/>
      <point x="228" y="31"/>
      <point x="228" y="61" type="curve" smooth="yes"/>
      <point x="228" y="89"/>
      <point x="207" y="105"/>
      <point x="183" y="105" type="curve" smooth="yes"/>
      <point x="159" y="105"/>
      <point x="138" y="89"/>
      <point x="138" y="61" type="curve" smooth="yes"/>
      <point x="138" y="31"/>
      <point x="159" y="14"/>
    </contour>
    <contour>
      <point x="393" y="14" type="curve" smooth="yes"/>
      <point x="421" y="14"/>
      <point x="439" y="31"/>
      <point x="439" y="61" type="curve" smooth="yes"/>
      <point x="439" y="89"/>
      <point x="418" y="105"/>
      <point x="393" y="105" type="curve" smooth="yes"/>
      <point x="370" y="105"/>
      <point x="349" y="89"/>
      <point x="349" y="61" type="curve" smooth="yes"/>
      <point x="349" y="31"/>
      <point x="370" y="14"/>
    </contour>
    <contour>
      <point x="105" y="96" type="curve" smooth="yes"/>
      <point x="132" y="96"/>
      <point x="150" y="112"/>
      <point x="150" y="141" type="curve" smooth="yes"/>
      <point x="150" y="170"/>
      <point x="131" y="187"/>
      <point x="105" y="187" type="curve" smooth="yes"/>
      <point x="83" y="187"/>
      <point x="62" y="170"/>
      <point x="62" y="141" type="curve" smooth="yes"/>
      <point x="62" y="112"/>
      <point x="83" y="96"/>
    </contour>
    <contour>
      <point x="473" y="96" type="curve" smooth="yes"/>
      <point x="499" y="96"/>
      <point x="517" y="112"/>
      <point x="517" y="141" type="curve" smooth="yes"/>
      <point x="517" y="170"/>
      <point x="497" y="187"/>
      <point x="473" y="187" type="curve" smooth="yes"/>
      <point x="448" y="187"/>
      <point x="427" y="170"/>
      <point x="427" y="141" type="curve" smooth="yes"/>
      <point x="427" y="112"/>
      <point x="448" y="96"/>
    </contour>
    <contour>
      <point x="77" y="204" type="curve" smooth="yes"/>
      <point x="105" y="204"/>
      <point x="123" y="221"/>
      <point x="123" y="251" type="curve" smooth="yes"/>
      <point x="123" y="279"/>
      <point x="103" y="295"/>
      <point x="77" y="295" type="curve" smooth="yes"/>
      <point x="54" y="295"/>
      <point x="33" y="279"/>
      <point x="33" y="251" type="curve" smooth="yes"/>
      <point x="33" y="221"/>
      <point x="54" y="204"/>
    </contour>
    <contour>
      <point x="499" y="204" type="curve" smooth="yes"/>
      <point x="525" y="204"/>
      <point x="544" y="221"/>
      <point x="544" y="251" type="curve" smooth="yes"/>
      <point x="544" y="279"/>
      <point x="523" y="295"/>
      <point x="499" y="295" type="curve" smooth="yes"/>
      <point x="474" y="295"/>
      <point x="454" y="279"/>
      <point x="454" y="251" type="curve" smooth="yes"/>
      <point x="454" y="221"/>
      <point x="474" y="204"/>
    </contour>
    <contour>
      <point x="105" y="313" type="curve" smooth="yes"/>
      <point x="132" y="313"/>
      <point x="150" y="331"/>
      <point x="150" y="360" type="curve" smooth="yes"/>
      <point x="150" y="390"/>
      <point x="131" y="405"/>
      <point x="105" y="405" type="curve" smooth="yes"/>
      <point x="83" y="405"/>
      <point x="62" y="390"/>
      <point x="62" y="360" type="curve" smooth="yes"/>
      <point x="62" y="331"/>
      <point x="83" y="313"/>
    </contour>
    <contour>
      <point x="473" y="313" type="curve" smooth="yes"/>
      <point x="499" y="313"/>
      <point x="517" y="330"/>
      <point x="517" y="359" type="curve" smooth="yes"/>
      <point x="517" y="388"/>
      <point x="497" y="404"/>
      <point x="473" y="404" type="curve" smooth="yes"/>
      <point x="448" y="404"/>
      <point x="427" y="388"/>
      <point x="427" y="359" type="curve" smooth="yes"/>
      <point x="427" y="330"/>
      <point x="448" y="313"/>
    </contour>
    <contour>
      <point x="183" y="395" type="curve" smooth="yes"/>
      <point x="209" y="395"/>
      <point x="228" y="412"/>
      <point x="228" y="440" type="curve" smooth="yes"/>
      <point x="228" y="470"/>
      <point x="207" y="486"/>
      <point x="183" y="486" type="curve" smooth="yes"/>
      <point x="159" y="486"/>
      <point x="138" y="470"/>
      <point x="138" y="440" type="curve" smooth="yes"/>
      <point x="138" y="412"/>
      <point x="159" y="395"/>
    </contour>
    <contour>
      <point x="393" y="394" type="curve" smooth="yes"/>
      <point x="421" y="394"/>
      <point x="439" y="411"/>
      <point x="439" y="440" type="curve" smooth="yes"/>
      <point x="439" y="469"/>
      <point x="418" y="486"/>
      <point x="393" y="486" type="curve" smooth="yes"/>
      <point x="370" y="486"/>
      <point x="349" y="469"/>
      <point x="349" y="440" type="curve" smooth="yes"/>
      <point x="349" y="411"/>
      <point x="370" y="394"/>
    </contour>
    <contour>
      <point x="288" y="421" type="curve" smooth="yes"/>
      <point x="315" y="421"/>
      <point x="333" y="439"/>
      <point x="333" y="468" type="curve" smooth="yes"/>
      <point x="333" y="496"/>
      <point x="314" y="512"/>
      <point x="288" y="512" type="curve" smooth="yes"/>
      <point x="265" y="512"/>
      <point x="245" y="496"/>
      <point x="245" y="468" type="curve" smooth="yes"/>
      <point x="245" y="439"/>
      <point x="265" y="421"/>
    </contour>
    <contour>
      <point x="390" y="500" type="move" name="hornLC"/>
    </contour>
    <contour>
      <point x="288" y="250" type="move" name="center"/>
    </contour>
    <contour>
      <point x="448" y="520" type="move" name="aboverightLC"/>
    </contour>
    <contour>
      <point x="240" y="0" type="move" name="ogonekLC"/>
    </contour>
    <contour>
      <point x="342" y="520" type="move" name="aboveLC"/>
    </contour>
    <contour>
      <point x="240" y="0" type="move" name="baseLC"/>
    </contour>
    <contour>
      <point x="234" y="-20" type="move" name="belowLC"/>
    </contour>
  </outline>
</glyph>
<glyph name="circumflexbreve" format="1">
  <advance width="600"/>
  <outline>
    <contour>
      <point x="270" y="562" type="line"/>
      <point x="362" y="622" type="line"/>
      <point x="366" y="622" type="line"/>
      <point x="438" y="562" type="line"/>
      <point x="504" y="598" type="line"/>
      <point x="444" y="690" type="line"/>
      <point x="308" y="690" type="line"/>
      <point x="216" y="598" type="line"/>
    </contour>
    <contour>
      <point x="382" y="724" type="curve" smooth="yes"/>
      <point x="471" y="724"/>
      <point x="512" y="768"/>
      <point x="534" y="826" type="curve"/>
      <point x="476" y="846" type="line"/>
      <point x="460" y="822"/>
      <point x="444" y="802"/>
      <point x="396" y="802" type="curve" smooth="yes"/>
      <point x="348" y="802"/>
      <point x="336" y="822"/>
      <point x="328" y="846" type="curve"/>
      <point x="266" y="826" type="line"/>
      <point x="268" y="768"/>
      <point x="293" y="724"/>
    </contour>
    <contour>
      <point x="340" y="520" type="move" name="_aboveLC"/>
    </contour>
  </outline>
</glyph>
<glyph name="circumflexcmb" format="1">
  <advance width="600"/>
  <outline>
    <contour>
      <point x="216" y="558" type="line"/>
      <point x="366" y="646" type="line"/>
      <point x="370" y="646" type="line"/>
      <point x="480" y="558" type="line"/>
      <point x="550" y="618" type="line"/>
      <point x="466" y="746" type="line"/>
      <point x="290" y="746" type="line"/>
      <point x="162" y="622" type="line"/>
    </contour>
    <contour>
      <point x="340" y="520" type="move" name="_aboveLC"/>
    </contour>
    <contour>
      <point x="386" y="740" type="move" name="aboveLC"/>
    </contour>
  </outline>
</glyph>
<glyph name="circumflextilde" format="1">
  <advance width="600"/>
  <outline>
    <contour>
      <point x="256" y="564" type="line"/>
      <point x="368" y="620" type="line"/>
      <point x="372" y="620" type="line"/>
      <point x="464" y="564" type="line"/>
      <point x="526" y="620" type="line"/>
      <point x="448" y="706" type="line"/>
      <point x="312" y="706" type="line"/>
      <point x="210" y="628" type="line"/>
    </contour>
    <contour>
      <point x="440" y="718" type="curve" smooth="yes"/>
      <point x="492" y="718"/>
      <point x="533" y="752"/>
      <point x="556" y="838" type="curve"/>
      <point x="482" y="846" type="line"/>
      <point x="472" y="820"/>
      <point x="460" y="810"/>
      <point x="446" y="810" type="curve" smooth="yes"/>
      <point x="420" y="810"/>
      <point x="406" y="852"/>
      <point x="352" y="852" type="curve" smooth="yes"/>
      <point x="300" y="852"/>
      <point x="259" y="818"/>
      <point x="234" y="732" type="curve"/>
      <point x="308" y="724" type="line"/>
      <point x="320" y="750"/>
      <point x="332" y="760"/>
      <point x="346" y="760" type="curve" smooth="yes"/>
      <point x="372" y="760"/>
      <point x="386" y="718"/>
    </contour>
    <contour>
      <point x="340" y="520" type="move" name="_aboveLC"/>
    </contour>
  </outline>
</glyph>
